<mxfile host="app.diagrams.net" modified="2022-09-07T06:21:27.391Z" agent="5.0 (Windows)" etag="gBkfKBa-yfsJSbSbAC6S" version="20.2.8" type="github">
  <diagram id="C5RBs43oDa-KdzZeNtuy" name="Page-1">
    <mxGraphModel dx="938" dy="1950" grid="1" gridSize="10" guides="1" tooltips="1" connect="1" arrows="1" fold="1" page="1" pageScale="1" pageWidth="827" pageHeight="1169" math="0" shadow="0">
      <root>
        <mxCell id="WIyWlLk6GJQsqaUBKTNV-0" />
        <mxCell id="WIyWlLk6GJQsqaUBKTNV-1" parent="WIyWlLk6GJQsqaUBKTNV-0" />
        <mxCell id="WIyWlLk6GJQsqaUBKTNV-2" value="" style="rounded=0;html=1;jettySize=auto;orthogonalLoop=1;fontSize=11;endArrow=block;endFill=0;endSize=8;strokeWidth=1;shadow=0;labelBackgroundColor=none;edgeStyle=orthogonalEdgeStyle;" parent="WIyWlLk6GJQsqaUBKTNV-1" source="WIyWlLk6GJQsqaUBKTNV-3" target="WIyWlLk6GJQsqaUBKTNV-6" edge="1">
          <mxGeometry relative="1" as="geometry" />
        </mxCell>
        <mxCell id="WIyWlLk6GJQsqaUBKTNV-3" value="User Lands on a LinkedIn Profile" style="rounded=1;whiteSpace=wrap;html=1;fontSize=12;glass=0;strokeWidth=1;shadow=0;" parent="WIyWlLk6GJQsqaUBKTNV-1" vertex="1">
          <mxGeometry x="160" y="80" width="120" height="40" as="geometry" />
        </mxCell>
        <mxCell id="OAiTxJ_8k9dRIG4-UQdj-2" style="edgeStyle=orthogonalEdgeStyle;rounded=0;orthogonalLoop=1;jettySize=auto;html=1;exitX=1;exitY=0.5;exitDx=0;exitDy=0;" edge="1" parent="WIyWlLk6GJQsqaUBKTNV-1" source="WIyWlLk6GJQsqaUBKTNV-6" target="WIyWlLk6GJQsqaUBKTNV-7">
          <mxGeometry relative="1" as="geometry" />
        </mxCell>
        <mxCell id="OAiTxJ_8k9dRIG4-UQdj-3" style="edgeStyle=orthogonalEdgeStyle;rounded=0;orthogonalLoop=1;jettySize=auto;html=1;exitX=0.5;exitY=1;exitDx=0;exitDy=0;entryX=0.5;entryY=0;entryDx=0;entryDy=0;" edge="1" parent="WIyWlLk6GJQsqaUBKTNV-1" source="WIyWlLk6GJQsqaUBKTNV-6" target="WIyWlLk6GJQsqaUBKTNV-11">
          <mxGeometry relative="1" as="geometry" />
        </mxCell>
        <mxCell id="WIyWlLk6GJQsqaUBKTNV-6" value="which device" style="rhombus;whiteSpace=wrap;html=1;shadow=0;fontFamily=Helvetica;fontSize=12;align=center;strokeWidth=1;spacing=6;spacingTop=-4;" parent="WIyWlLk6GJQsqaUBKTNV-1" vertex="1">
          <mxGeometry x="170" y="170" width="100" height="80" as="geometry" />
        </mxCell>
        <mxCell id="WIyWlLk6GJQsqaUBKTNV-7" value="Android" style="rounded=1;whiteSpace=wrap;html=1;fontSize=12;glass=0;strokeWidth=1;shadow=0;" parent="WIyWlLk6GJQsqaUBKTNV-1" vertex="1">
          <mxGeometry x="390" y="190" width="120" height="40" as="geometry" />
        </mxCell>
        <mxCell id="WIyWlLk6GJQsqaUBKTNV-11" value="Chrome" style="rounded=1;whiteSpace=wrap;html=1;fontSize=12;glass=0;strokeWidth=1;shadow=0;" parent="WIyWlLk6GJQsqaUBKTNV-1" vertex="1">
          <mxGeometry x="160" y="340" width="120" height="40" as="geometry" />
        </mxCell>
        <mxCell id="OAiTxJ_8k9dRIG4-UQdj-0" value="" style="shape=image;verticalLabelPosition=bottom;labelBackgroundColor=default;verticalAlign=top;aspect=fixed;imageAspect=0;image=data:image/png,iVBORw0KGgoAAAANSUhEUgAAAggAAADOCAYAAABb0vrjAAAgAElEQVR4XuxdBXhURxc9STbunmCB4EGCBHctpWhbKFakFLefYhVci7sXh0KxQnGH4hAIAYJL8CghLhv55066IcGyu3krCTP9Uja7M3funHnZd96dKwZprEE0gYBAQCAgEBAIaACB1NRUBIeEwN3NjUtvMGECTowbp4GZpBF5IiAAN58+RbxcrrZAAzYyn709apUsicIuLmrL0eTAHRcv4rC/P5b37s2niYuLg4WFRZYpDQKfPBUEQZO7IGQLBAQCAoHPGAEiCOHh4fCpXClXEITPZaveJQh37t6Dubl5VoIgLAify+Ug1ikQEAgIBLSPQG6zIGgfId3MqJQFQRAE3WyOmFUgIBDQPwTkzBR+u35T0L+2TRqj2Ob1+qdkLtNIEAT93DBBEPRzX4RWAgGBgB4ikPjkKW5WqPKeZpUjgvVQ25yr1KhhYzx/8gIwMIQhO2g2YAfnP/TpgeEjhudceCYJgiBICqdkwrRGECz7nFZZ6djldTLGkJ9kZGwShDOEyjDqdICJzBCWZsY61SEvTP748WP8/vvvfCkLFiyAqampVpa1c+dOHDp0iM81bdo0ODg4aGXezJMEBQVh2bJlsLKyQlRUFIYOHQp75tyljZaSkoInT54gOTmZTxddLf07ycjODAUOBOBJjaL89zKXz8GsWPprqdvcuXNx584dLtbExAQLFy6UeooPyrOxsUF+lwI4sqA/4uQpMDUxxKuQSPSatg1O+Rxw4vgJyfTQV4Jw56YfPAp7INHIBg9v+aNy5cpKrfnKlSsZfWNDH8LU0RMyQ3JLVK7dY+OLVaoMFYYoJ1jFXrmGIETEJKq4NNFdXxCwYgTBmBEF0VRHgIjxwIEDM25QCglVq1ZFz549VReo4og+ffpkGbF8+XLMnDkTtWrVQs2aNVWUplr3ffv24Z9//vnooN7Ms1rZL2zVZk7v/fz5c0yaNCnL0N5bd/Hf3VbuQL423rjqXIz/XnznVtg0qKfONJ8cQ/vft2/fLH1oTypVSnfm01TbtGkTunTpgkEd2+C3bo1hZGyKVKQgLUmOrhM24vCFi4iOjuakTYqmbYLw6vpOtPpxOpCagoX/XED1fLL3lhEXeh+Nlz/EudHN+Gc+Pj7w9fX94HIvrfofBi4/i9Q0AxjVGo2UMxM/2vfDeKUx+VVgZGgIa6968Lx5Agsv+cJUx1+bWiUIpjIDvF5cG2HRcngMv5DtdZXZgiAIQrZw6W0HKzMZIwhGequfvip29+5dzJkz56PqGTB775IlS2DIvlQ01RYtWoQbN25w8b/++iuuXbuG/fv3898XL14Mmez9L1apdNE1QXiXHNG6FATB1NUMLovP4tm36U+U3oH3ILO1lWrpGXII6927d2eRW6xYMYwYMULyuTILJAuVhXEaRvZoDwsbS7SuXgKBL8IQlmKCxRsO4eSli+jwXQds3rxZEj10QRC2JLeBfGlrePRbhZm92wJmJshnEIeX8SmwLNIAMwZUxdLrThhTaDuOuo3ByoEtcPniOTQfshT5X+7AkuVL8dvfSWxsRY5ByJX1+PlhTaxuX4yTCWoOZRqgm/kJfDH7Ito2qomxA1rCqvloDPoi/fPancdg3tDW7FU6Qfj3wDrU7ToHlUL9cYuZDxJSjRjR+Af+10PQ84fu8D08B407Tsab8NdwtTRAcGyaikREte3SKkEo5W6OK+PTgVHmyEEQBNU2U197C4Kg3s5ERERg8uTJiImJ+aCApk2b4uuvv2bnwsqbLtXRhPSgJ0VjY2OEhoZi9OjRXAyZ/TU5N5n2p06d+lGVCRtnZ2d1lqTUGAVBmDVrFoYPH86PWB4/eAB80TLLeOuGDVBixxalZKraiY6V6Hjp3UaWHE022ldzdqRwYdUohnF+GDBLhoHMhD1wy/HiyUNU6TsPdNXRjV2KpguCMO5gHDo1qY76FemG3obdaHdlWAnoBn9sNyMA593xk2wajvxHEM7uHIVRm8NQpYAN2nXuDJNMi3+XIJC1wadpFwz1vMMJQrNm7HXfFrCv3BxjuzRh8x1H22Fr8PfsIRkEYcSvo/Hd123Qm81PFoRaVX2wc84g7HxqjY3zpnKC8MvWFFR78wfq/rwJ7WoxPc9+2Kohxb5olSCQwlZmRohJSFFKd2UJAiVv+O3ndEY98uff4J4vn1LyRSftICAIgvo4jxo1Cm/evPmggM7sC6pu3brqC1di5Pbt23HkyBHek8ztLlpM6EIWBCIljo6O72kaHBwMV1dXjR4x9OvX76M3wDL3H6FR/gIoOXcmZE5OSiCpXhc6y/5QK1u2rEb9UMzMzJCYmIhmlTywZtoIJCcmwNTCBqnyBFTq/Atevo5F165dsW7dOvUW9s4oXRAEsiAMrZRufVMQhI2/j8S87ScwaOpatCnD7ivvEATfy5fQuml9RBk6YM/yYeg7NxIb57fgMrIjCPNHdMbBq89w+cLZ/4jI+wRBcYSRmSAc2zYfTTuzY4uk6LxNEIyNDPCVd7qT066r4WhTKf0Pn163q+KMx6Hx8A18+7SkLEEYOngA5i5YzGUN+98gzJ73vhNPakoC5kz5DVY1e6Nv45JKXdTyiEAY2xdWqq/o9HEEBEFQ/+rITBAUT42KJ1ttEIR3zezt2rXDtm3b+IKWLl2q0eMNXR8xkIMi+X986Cm5XLly/DNNtv79+4N0+FjTpBVh165daNuWmd2ZJeHF39MgMzNnHggyXPLzR5tfVnCVYmNj38uqpy4e2iYI6ur5uY3TqgXBwVKGZ3NqcIzpiEFBAMgRR2GqjIxLRr6h59MvwExRDJ/yQZgwbjTGTZjMx6xd/Qe6//Dje/v476bfULfzlIz3500bg//9whyQUmMwceJijB0/CouXH0F4tDE7JyqOiQu34Jde3yA+/DkOP3XGtw2VIxWf2wWkzHoFQVAGpQ/3GT9+PF69esU/fJcgjBkzBgUKFFBfuBIj3yUI5Jx49uxZPpK86cmrXlNNztLYfuomrGkfiHfXlfnIwdraWlPLzpD7119/Zbz28/PjlqQGDRpkvPfdd99pVAd7O3tEJsSiYadvMbu6A2Tse7r9uTjc3rCWmcu/zPBFkUIJQRCkQFF6GXpBEEZtfYSVp15yB0ZqCv8EZQnC8KGD0anL93B1c8es6dMyrAnvwnXu8FZ41GiNU2tnI8XGHQ/vPcL4KZNw/tQxROf3wektyzFp9Ej4PouET0FbKCwIUTe2wKZcB+nR/0wkCoKQs41++fIlf4pVkAHyrqd86NoIOdQlQcgZatKPXrFiBShyQheNjhousrz4ZFXQZhuydDUGNGyItDfBMGIWYItCRXAq4C46Nkj/rpaqCYIgFZLSytELgvAuIVCVIBAkFy+eR1xMLItZDoT/Nb/3SMLr4DA4uDph4ozdqOp6H826DUc4O0ebM20vpsxsi913oxHwzxn8OqI1tp17gHY1i2UQhBhGEKwEQVD7yhMEQW3oxECBwGeBgCAI+rnNeYYgZIZ37ZpV+Obb9tCGGVA/t1W/tBIEQb/2Q2gjENA3BJQhCPf/O2rTN90/pk9xd3eevyQhISG3qPxeXos8SRByzW58JooKgqDqRlNSMMqUmIZHEYnwtDdTVYBS/fv0nYTly8YwP5wkbL8eg28rZM2S2K//Bixd8j3WTl+I7qMGZchce/oxutcp8sk5Hpw8iGL10xPMqNsSX16Bab63mevCbm6GU9mO6or74Lhf/tcH0+alhwyO/O0EZkx5e8avzESrRk9Cz8kMQxVbn379sXzpEvzx5yr82Oltwiv/tYvh3X0AzjwH/pr6DxZOLwFYl3pP+osLe5G/egvsuRmDlmWlSVZEkySF3sFd01IoZwMcnD8ZzYakh7Rquk1buBXd29X9ZLlnKgGdmxqVqw4LC8vIgpkbdK9dO+vRkSAIuWHXcrmOgiCouoFZCYLfX1vgWc4dFWt9gRkHLsI07CaaepdG6fI1MX3dTljEvMSgAap71P91+DbaNC2NG5vH4WXpIUiOj0LLUnIWuVOcK3w3jEUUGZji/B/L0KlnPTwMNYZHicJYtv08ioUeQ6uBvyE8wQLHLj5AOEtD6+MWgipt++H8OX84J72CS34zmHjWhZmReomc0glCBZy4fQ/Xj/ijc8M0hBtVwMlXJjC8fh5lPAugZqv6qoKbpf8vf59Hz/o+MLp1Akv3G2PGYFvcfm2IoqUr4OLt2yhfqhTu+gXAybMsgl7dxvFDz9C7/nOEm1bC1eT8SPhrGQpEBqNQ/wEoULo0Ni5fhkqeFqjQpCuneB9rl16nwTguBlf+3YrOzeoiMDgZwbJ8iNmzGD69h+PBGxn+nLIeC2dUhxEjCLvO3kYBr9IwfBaAcwHBKG/yGPkbdsatF8mIP/cnSpXxQHl2fcyadxK2yX7o1rUpHoanonTpcirhQwThzIG1aNj1d9x64A+vYt44cOY2bkUZYljzkggMDOT5IKhRpsU6dd6mw1dponc63z78B+xK1oS7hxf/hMgA3WAzN0EQcoKwcmN1ShCUU/FtL2WdFFWVK/prFwGRallVvLMShIcRCWjiaYcnTIxlnBzX1rJsav1HIYYlvz2+Zz/P196iRXostirtr2OPEel/AV/07wj/O69R+OlGPIMzvmqV/pR+Nywecdc2w/9KLIyf3IVt82YoX6cJDl97gS4VjHBsyR6YNGiK2izLHqXLsUxLRWyKIcuuCDw7uQt3HKqhRXl3VVTK0jcm8CRg7ggr13KICdiOhDQ5tyDsHf4LWkwegtV/XcUP3ZqrLZ8GEkEoEXEfVhWa4fKOADjHn0Ppht7wrtMM/qf3ouZXreF/ZB9K1WiGO7cCEfPnUpwp/yWm92yMTTdCMwjCFwsXwfdFIqxsTFHSQo4kI+NPE4QIoMizndh9MwKe1klo2LIffh25Eu1LxqFCzyHcgrB56l4snl4M0WEvYV2kITMopWLn9Vd4c+wsmlY3RYGarbkFwclKjhqF7XErGijAgiuMbu2EpdfX2LJhDTp830MlfIggmDh4ICRgM1w82dNkmin2nrrBo8y++uorLosSNz1gCaOaNGmikuxPdU5l0WSH/tqKLzv+wLsJgiAZtCoJ0hlB8Bh2AcmpypdaorTMj2ZWz1hcKhsbGZek0mJFZ90jYMi+WGwtNRcKp/sVakIDORNKBa7S8CpGDsvwC1hz9CWG9OyAqMRkPDy8ExVbtkc86/Hs4CIciKmEId+qXhfhlF8QqhaKYvfgEjj/MAo1itrgcSS7cf2XMfhZVCIKshve+q270bVdC8xfsAhDhgzBsS3z0ajDEDxJSEbioZ0o0bo9HpzfhgO+hTFoUBWQ9qH+vshXzhv+IcnwdjNXA6QEdmN6ghb1SmL+/Plo270PbCMuYO1uf67DymWLUKLWN6jHLCs5aavP3cYPNSmxmi3+WOuPH7t78/loDvp3MPt3Qabfq5mYo3q/79lnu1CgaTNYXtoPp9g38GEWhHth7Pvp7m48dGqKRiVts2TZe1fHO+xmXordzOdvOoghnZvxuQawuWRvHuLEGyc4W9ni5OaLGNiT6WZRkH/ei32+jv3rWbACvmjmhXX3gZK2VqhgfBPLtz9hOn+LWDaR0ZMzSGKUbc2up+y9LirBkxz5jKWMLoiDjDA284hjBK0An7tm+yGokjOoP6kH+SCs3HgUfZjlQxAElbZM0s46IwiSrkIIEwgIBCRHYPDgNaxSpGpPnJIrkQsE3tg+Hiv/fc2rar7bBg8eDJMqPTDr+/T8/KIph4AyToriiEE5LHPSSxCEnKAnxgoEBAICAYGA5AgIgiA5pGoJFARBLdjEIIGAQEAgIBDQFALqEgRyZExOeI0mLNJmcv8RqOVswf0X3m0Otg2x43910Jp9VqJCDXQvaoSBO8687eZWBIe7f4Wmvy9Seok1y3dD92LX0Xun3wfHqB/FkIqxx06wA0ZqhpjUqAEWHjuGQY0aYfeF0yhXtg48pQtcyaK7WgQhMjJSeecBpeEVHQUCAgGBgEBAIJBeFTKUhQQWZ6WsqSnrpKiIdGjEbvzHxlG4qSEWBrzGNwYHccigEezvHMb864/ACUI3lpbcwhYjDvpyguBnVQXlE4JQuqA1ki3dQZ4ye6++RHnjc3hT+GtYPTuJAqUaoMfyXdjUj9WlYO2nRRPw+8BxSGFeuZN3B3KC4Fm2FbrPnoznsVnrZqhLEC5fP4NA24po52GJc/4XEWztiKuPyUWZFZVi/lwRzD/pIauDMYkRht9PHIMn80NxdS+No7cuw4j16eDhiGOsvpu7lTO+LpVfpcsrO4JARdLMzbP6FBlER0UIgqASzKKzQEAgIBAQCCiLgIIgFC3K8j6oSBAmB0SgyuXzcC8SgvL1ujNyMQsnxg5FfJoRmk9KtyZwgvC9HY4lesAtid1sY0LgVbYRL1nN51u+PsOCcGLM/5CWnIbUNEMYmtrANyoJJ1nBqiuJhbGxe1OkmrjjC0ZIyIIwqVUhPL+5Cd12PXpvqeoShOO+zHpQqC4auRgh4PYV3DZ2x6snt7NYEAIDjqGSTx3MPnk6fV5TeyAxAhMaNkLYkwAsfBiELuzzkraqOYhnRxBCgl+xNO+CICh7XYt+AgGBgEBAIJBDBHJCEBpMno0To4eh3cQJ2DZ2HLc+/M2OHuzkoWgwdUkWgtBg0U6eXyHg5jGULtMQ8YlxrEZlPJqt2oPj/btj1fzZ6PG/4bh+7gAq1myGpJcXMeGhDSbVLIFk9nx+dMc0NG7/awZBIAtCsXKt0GnqBARR+E6mpi5BSEtNwNgTZ2FpbIJYeRK/6a89fgwh7PfS7H5PRwycIFRtiNnHj/N+5YuUw/l7VzCBWRUO37mHhgXtMf/Gc4yorpqzrCAIObyQxXCBgEBAICAQkBYBdQnCx7TYPWYcxi+aAb8ICgbWTVOXIOhG2/RZBUHQJfpiboGAQEAgIBB4DwEpCUKd6g1RFKFYe+GGTpEWBEGn8IvJBQICAYGAQCAvICAlQdAXPARB0JedEHoIBAQCAgGBQK5FQBAE/dg6ccSgH/sgtBAICAQEAgKB/xAQBEE/LgVBEPRjH4QWAgGBgEBAICAIgl5dA1onCHK5HAkJVJ1OpFLQqytBKCMQEAgojwArOmZuZsYqVbJSlSq0tLQ0xMfHIyUlaxIdFUR8Fl1TGU5h4eHwLp8elqdsoiR9Bkf4IGSzOy+CQnDh3vsJJPR5U4VuAgF1EChTvBhsrDSU/zSTQtHxCYhmNxzRdINAYStTODk6KDV5YmIiHJ1cler7uXdSN9WyPuMmCMIndicmhtX3vnpTn/dP6CYQkBSBGhUrSCrvQ8IEQdA4xNlOUNbVHmbMmpBdMzE1h4mJaXbdxOcMAUEQ9OMy0NoRQ8DDQNx5EaQfqxZaCAS0gIAgCFoAWQ+mKGhhDFdnp09qkpSUBAdHFz3QNneoIAiCfuyT1giC/70HeBAUph+rFloIBLSAQInCHnC0ZznRNdhi2BFDlDhi0CDC2YsuwAiCWzYEIT4hAc7ObtkLEz04AoIg6MeFIAiCfuyD0CIPImBkZISq5ctpdGXiiEGj8ColXCqC0LRpU/j4+MCK+a78+uuvSs39sU579uxBy5YtP/jx0aNH0bhx4xzJ1/RgQRA0jbBy8gVBUA4n0UsgoBYCmj5mEARBrW2RdJBUBKFjx47YvHkzJk6ciJEjRyIyMhJUTpda//79cfr0af47/RxnRXnKlSuH27dZVb9BgxAdHY0GDRrg33//xapVq7BixQqcP38edLTx/fffY9++ffypvF69epx8fPnll5JiILUwbRKEvT//nKH+gEW/40kMK/Oc6b3pW1bidGB4jpcopZPi5JMnM/SxtS2IQRWL4sz5kzhJAYK8mWJ0/Ro51lkQhBxDKAQIBD6OQKUyXjA1Ua3Eqip4CoKgClqa6SsVQWjEKu8VLlwY7dq1Q/369REXF8etCUQUnJ2dUbVqVezevRtOTk64desWvL29ceXKFVSuXBlbt25F+/btMXfuXAwdOhSbNm0CEY7nz5+jUKFCmDNnDicM27Ztw6esC5pBSHWp2iQIdONWtB/mTMDjaPAKj4o2ccNinHiU8+NxKQnCmGPHMvSzsy2EYT7FcerMMRzNRBAmNaqtOvDvjBAEIccQCgECgY8jYGNpiTIlimsMIkEQNAat0oKlIggKCwJNnMB8FgxYrgVDQ0OEhIQgf/78qFWrFrZv3w53d3cEBASgTJkynCh4eXlh3bp16NatG6ZPn45Ro0ZxgtChQwe8ePGCEwRqRDyIIKxduxbdu3dXen266KhNgqCt9UlJELSlsyAI2kJazPPZIqDJYwZBEHR/WUlFECZPnozRo0fzBdHRABEEY2Nj3LhxA2vWrMHs2bPx+vVrODo6IjAwkFsbnjx5Ag8PD25lIMsBHS1Q8qZly5ahR48eCAoKwqxZszBv3jx+xNCnTx9+XEG+DvrcBEHQj90RBEE/9kFokYcREAQhD28uW5pUBCFvo6Ta6gRBUA0vTfUWBEFTyAq5AoH/EChfqiQszc01goewIGgEVpWECoKgElxKdRYEQSmYNN5JEASNQywm+NwRMGYmX59yZTUCgyAIGoFVJaGCIKgEl1KdBUFQCiaNdxIEQeMQiwkEAoCmjhkEQdD91SUIgvR7IAiC9JiqI1EQBHVQE2MEAioiUL2CN3c6k7oJgiA1oqrLEwRBdcyyGyEIQnYIaedzQRC0g7OY5TNHoHLZMjBhHulSN0EQpEZUdXmCIKiOWXYjpCQIc75tiJ+2H39vynaWZtgWm/De+0XZOw/ffdfeE4h4vxKxSbl2SLqxLbvl8M9VCXM0NC+M1PjA9+Q6Fy6F0MA7771f3Ksk7t+6+9773p5m8H/0/hodrA3xOjo1W70FQcgWItFBIJBzBPK7uqBQvnw5F/SOBEEQJIdUZYGCIKgMWbYDpCQIXRs2x/rj+7PMaWphg1HdvsfEpYuzvF+m7rf4zvIxxh64kuX9Pu26wNB3I5Y+zqr6nx0bYOjOEwjOSFD08aWpQhB8vD1x89ZjJMjTsggsUawgHj94Bvk70xQpxN5/+uydd41RsIgXnj32z/q+zAVlS9gy+fez3QdBELKFSHQQCEiDgCb8EARBkGZvciJFrwgCu5+kGaQijf1nyF6nsFMtw9Q0pBjKIEMy+9AQqew9loIJKUhln7HXrL9BmhG9SIdB+pMwleGVgiBM6fQdQmIS0bJMcey7fBomqXJMP34FU1o3RrShNeoUsMLK01eRGhOGfU+i8INXATh6VkIBqxTsuP4ET+5dRohVUdRxtUZ9n+qIiAyC3xtjnD61DaW8G8HRUI5uTRrg5l1/pBhbYObWPz+5TmUIgpVDAZgbpyKfhyfi3gQj2cAYj+/egmP+wjAyNIBHPne8iQiBocwUd28FwLOUF5JZzoxC7i4sBfdLmMqAm3cCUbp0CSSnpLEqo/Z4znJmGLK9f/QiAqWL5kOykQVszUzxIigE8vgIhEW/SzfeLkMQBJUvXTFAIKAeAoIgqIebvo/SJ4JAz5sG7MZPN9hUA0MYpqSwG4IhIwfsNZIYbSAiQL0M2VOoEYxSk9mtQ8b6JrHs/caMUKSy/7M+Om5SEARawpT23eHh6gCTaF+0X/tvxqrG1O8C76oeWL51OY4Evk2jvHrQMLiZxaP9zCVgJRnSm0kp/D28FeSRr9B+8YYMGSVLfIU5LYpiT2AClu1ckS1iyhAEEmJh6w7vUvkRHpqAe49uZsi1KuYNLzsZEuJjcD3g7XFCsdIlYWdhhXhGgAL8rmf0r1yWHZaYOSH2+W3cCYrKeL+YdxU4msvw5Np5BL1/+pBlHYIgZLutooNAQBoEBEGQBkd9k6JPBCGFgWOUxiwIaWmISTNAoRKVEfjgKmxTGDkwYo+XzFLAjAjMciBnVgVWVjlNBodylfDq8iVYmaYi2dCE0QXdmxCkIgjr+vdD9yXL8Mf3vdBzw383cTsPbP+2Mtqv3oW/BnZFuwVr0y+p8h0w2uIkVoS6Y1x5Gwz4+xR/e2DnHrh5bB1SK3ZBvqN/YoucWWJY2zC0P7rPW4oZAwZj8aL5eN9DIeuVqixB8K7ig+uXfVGyog9e+vsi6j9XgUrly8L/+k14VayIG35+GcJ9KleE7xU/VKtcDhev3PjvfSNU9imPK75+qOhTDX6+F/n7BoYWqFjSCVcfRMC7dH4m731/hsxaC4Kgb982Qp88i4BPuTIwlknrqCiOGHR/uegTQaB7CTtEQBJjAe4lvBFy9yo8DmyGQ5op/mzWBl5GCezJ2Bx+0UkYcGY/IuWxuN7qezh71ED803+ZxcEUrEq5zptUBEHnC8mkgLIEQZ90FgRBn3ZD6JKnESjlWQT2traSrlEQBEnhVEuYPhEEZjhgj4nJiGOWgfwlqyLs9kX8/OAGkhNlWP/oOlq4ucPLzAG/BN5iHVMxs1gl/K+MB/JV/AK3fE/AyZDZIAylJbHqgCoIgjqoST9GEATpMRUSBQIfRMDZwQHFPNIr60nVBEGQCkn15egTQSDjt4x5F8SlGqNQ5cYI9DuCJ8wRreyxg3j4RUcU378F2+vVR6dDF5FgFYNnX3VGfnbcUK55D6yeNRY+ZYrB0ED3JgRBENS/HqUc+SmCEB8Xg+joaFhYZE0jbxAdFZE19kIJjfzvPcCDoJzX1FZiKtFFIKCXCBgyL+Rq3t6S6iYIgqRwqiVMnwgCLYCiExLI/8C7IYL8DzJDgSmctu/EBO/i+PvFY7yOiITMzJ5ZCqJx9Yvv2L9pKPdFF2xaNBVliheBTPcuCNzJMpiVuXZ3c+N70mDCBJ5HQDTdIrDj4kUc9vfH8t69IQiCbvdCzJ4HEZDaUVEQBN1fJPpEEMhJkZ7e0lJTYFWyFuLvnmNBC6nYFRWM746exYjKVbDr5hm0KVICP5epBjMWvQAWt+BSpg6CA07BiFkPdG8/YJxGEATdX9gf0EAQBL3cFqFUXkFAEIS8sptUyfQAACAASURBVJNv16FPBCGJWQ+MKKQxRY7KbX/EvnWL4GLH3BZTLZFomIQz4ZEYe/YwdrfoyPwNEiFLlSGWxdp7lKuFkJvMa99AxglCZhOxLgwKgiDo59+JIAj6uS9CqzyCgCAIeWQjMy1DnwiCIg9CCnsCj081QuvvumDbhj/gYGHCbvoGLPzRAMnsJ5Ld9Z0TUhFrmoL6zdrh5KFdsGS+CymMLLwlCOk0wUAHYY+CIOjn34kgCPq5L0KrPIKAIAh5ZCP1nCCksgRJaYbsuCCNeSTQfZ7lQKAbfQrlSGBWBsYUWB4EI5iwfpRl0YCRBpkBIwgsT4KRIUuQwPpQLgVOEHTgtKgtgvDvrVuo6+WV9y5KDa1IEAQNASvECgQIAamLNgkfBN1fV/poQVCgkpDM0ikz51gZu+kTQaAjCFOWWVfOIhll5LDAci0bsIyLlD2BSEF6o0wKjEYwKwRVIDXin2u3aZ8gJCPiTQzSLO3goPsoT+2CrcJsgiCoAJboKhBQFQGpcyEIgqDqDkjfX7cEgW7lb2/glGaZfueOiuxn/oZdsDaS48eObSmNHi/OcIhl6Xvx9BW6ftuSvZfCLAfp4xmVYMcLyWycjEVCAM2+aoV9+/6BCXutbT8EbRME+evHMHYoglMPw1GvqKP0F0kekSgIQh7ZSLEM/USgECu2kt/VVTLlBEGQDEq1BemSILx8HQPPml/A3UyOseOm4NeJU2FilIYLR/egVM0vkWhggkv71qNVx16MG8iw6vdf0WPIKPTt+h1ePn+GxMRE+NSpj4CA23CyNsPVGwEo4lkcI3t3QfuBv6CCVzEM7v0jShVyVxsfdQaqQhBCTs9AeNlBMIqPQtTNA3ievxVs/fahASvzHG5oh6fPQpFqXRiLu9TH/1btwtVju9C9e3eu1tsjhhSsWbMB33XtDgt9CONQBzQtjBEEQQsgiyk+XwSkTpYkCILuryVdEoQabTpj8IBeaNegHpzLVcOzK6fgUrYuBg3pCxdLC4yaNg+3Dv8Jr+Y9UaGQLY7t2IiKjb/F/fN72Q20Ow7t2IQCZarCu1JVzBo7DAkJ8Rg57ncc3rkWY6Yvw8+De8LY1BSsRpBWmyoEYedQH7SZ68vtKFOOPYfL5ja4f9cEM/bMxm2ZJ24FuWLG97XwTUE7jFw0CT7Nx8LXd+87BEGry8u1kwmCkGu3TiieGxCwtbaGVzFWZU2iJgiCREDmQIwuCYL/o+eo1fgrlC5cGPUb18OcRSvwv0H90LZxLTTu2JtlRZQh6s5ZWJZuAJPEMLx6eBtV6zVFwOl9GDZxNmaOG4UffxqDXf/8g1P7dqBx8y+RYGCOF6yE8ZEzvnC2ACpVrgZLLT9Vq0IQaOvqVa2KDmPXInhjd5j3PYxRZc7hT98oVKrTgBOEmd3q4Pzqflhy7AXWrj2BS5f28x0PCwuDk5NTDnb/8xoqCMLntd9itVpGwNLcHOVLlZRsVkEQJINSbUG6JAgpySwKgR0p0AN+GivQZMgiD+TMY8A4NQnJMlMKQYAsOYb1sURCqgHatO+EKeNHo1IZL9aXJWZm/gcprI9hciIMWKRDMotoIF9F0+QoxMtsYMpyJ6SwbsYy8kTQXlOVIKir2VuCkIwbN26jUKlysBVOih+F87MgCMUL5kchdg6cz9mJefh+2kM3SS5H4KsgPHrxEsGvI9S9DsU4gQBHwMTYmEcySNUEQZAKSfXl6JIgqK+1fo/UNkEQTorKXQ95kiDYW1uhgU8lWFswe9k7LYXR45TkZBbSw/x2M+J+GRNnNU+NZDJGIN63rT149hwXmVNPMoshFk0goAoCFGNe1bu8KkM+2VcQBMmgVFuQIAhqQ/fRgdomCFTB4ujRE6hWvzGstexvIT16mpOYpwhCoyqVUcDFOQMtuuii34QhPjZaLQRtHVxgZmHFY4MV7eglFjIUKopQqQXoZzpIymRJgiDo/iISBEH6PdA+QZB+DXlRYp4gCF/Xrwtr5sGraKGvnjIrAcsOImEzt7QGEQZFC3j0GL6370o4gxCVVxEQBCFv7awgCNLvp7YIgvSa522JuZog1ChXBiUKFeQ7JE9KRHjwc43vlpHMGE5uBTOsCocuXEJQ+GuNzysmyL0ISEkQYuITEBUfn3vByAOaC4Ig/SYKgiA9plJIzJUEwZj5CnRs2ojfpMmnIPTlEymwUEmGzNiEEwVOTphPw5+Hjqo0XnT+fBCQkiCIIwbdXzeCIEi/B4IgSI+pFBJzHUHwKuKBKl6l+drDgp4hWU71zXXXbOydYWFlwxX468hxJCTpVh/dISFm/hgCgiDkrWtDEATp91MQBOkxlUJiriII3zasD0tzM15UJOTFYynWL5kMt4LpyXAu37qDW48DJZMrBOV+BARByP17mHkFgiBIv5+CIEiPqRQScw1B6NKsCYxYKGJcDMu/HREqxdoll+GSrzAPl3wWHILjvlclly8E5k4EBEHInfv2Ma0FQZB+PwVBkB5TKSTmCoLQ7atmfK2Rr0PUDlmUAixlZDi6FoCxiSmeM5JwTJAEZSDL030MmZ9MtQrekq1R+CBIBqXaggRBUBu6jw4UBEF6TKWQqPcE4fsvm/LshxGhr5CYECfFmjUug5wXyYnx5sPHuHJHhEJqHHA9noAcan3KlZVMQ0EQJINSbUGCIKgNnSAI0kOnUYl6TRBa1a0Fe1bsJup1KOJiozQKhNTCFccNJ6/44UlQsNTihbxcgoC5mSkqlE53qpWiCYIgBYo5k6EtgtC7d28sW7Ys2/TwmVdz9uxZXL16FdHR0SjNrrs3b95g4cKFuHLlSpaEb4oxy5cvx7p163Du3LmPgrJx40Z06dIlZ6B9YPSiRYtgaWmJVq1awd7eHsEhIXB3c+M9G0yYgBPjxkk+pxCoGgJ6SxDKF/NExZIlkBAXizfhQaqtSk96uxbw5H+U6/Yd1BONhBraRsDGygpliheTbFpBECSDUm1B2iAIaSwNfEREBL+xN2nSBH/++Sdq1aqFn3/+GUWKFMHQoUOxa9cumLNiYFVZZcMSJUqwkO8UxMbGwsYmParq77//Rtu2bfnrJUuWoH///vz1oEGDOHHYsGEDYmJiMGnSJEyfPh0//vgj8uXLh4kTJ2Lnzp2Ii4vjcz1+/BgdO3bEvXv3OOmQqhE56dOnDxc3ZcoUmLAy0yOGD9dPghB2HR0HTcPmzZu5foSH4nVmPELuHsWQ8avgVqwi5k4a+UGoGtWsisNnL8HobYJeqSCVXI5eEgTCrSvzO0hlF3zIy0DJF61NgRTdQH/s6/cf0ua0Yi49QcDRzg4lihSWTBtBECSDUm1B2iAIRAz+YSWZT5w4gX///Rc3b95EqVKlOAkwZTfS0NBQ+Pr64ssvv8TAgQNBT+NJLMRaxuvJpBeky0wQyBLRt29fPm7lypX8weWXX37hBIFIhaOjI5JZPhczMzP89ddfkLOidWQ1GMee4osXLw4TExO0b99ebcw+NHDp0qWoV68eJzdEUPSaIARdQKspmzBn7kIkbx2MMZvPYdm8JdgZUgi9qqXhwDU5vqxUCC+v7cBWfAPZrDbwGr8ZFs8O49+A1xg5sAdaN62N6g06MiiiMIphP33a37A3vYe+P41CqjwSc9efRFLILb4v+tL0kiAonBKDnj3UF5zU1kPGHBadmONi6JtI7D97Xm05YmDuRCC/qwsKsacyqZogCFIhqb4cbRAEujmTaT8xMZGTgpcvX6Jo0aLckkA388qVK3NiMH/+fJw/fz7DUvDtt9/yp/HLly9z833ZsmWxadMmjB07lhMHIgH79++Hra0tvzn7+/vj4sWL6NWrFxYsWMDfIyLSvXt3zJs3Dzt27OB9GzVqxKPIXFzepptXH8H0kbnKgsAIQv/zNvCbtRI2OI3Cdkz/fb6oWq8ZehRKRKe1J2DL6vwRQWj14zQYuVbFxX1L8PjGBRw/vBFeXabh75/bY8aaA/Dx8cElRu6q+jTHhgnNMO9ZNVz5YwDOszo/Nar6cOKnL03vCAKlTqYUypQ2mdIn54Xm7O7BK0VuOnhEVITMCxuqwhqKF/aAEztflaoJgiAVkurL0QZB+JR29NRvzMqIkyUhrzS9j2LgBMEFV6a0h8/AFUje1psThGlfVMXucANc8L3It0JhQXj0e2P0WnwAg3r+iF6lI+A2YAMOje2Ib0avxoD2Lf4jCKPw78Z6GHrcDldWD8b2v3fh27ZtBEH41EVN1gMyyQc/f5RXrn2+DnHUkKe2U+nFVChdCubMbCtVEwRBKiTVl6MrgqDwSyC/A/rJS03vCUJKEqLkhrBIi4GBqS1iIsNha++E0CursdOgLfpUSn8ISJEnIAFmsDROQ9jrKJgYpMDK2hxyA1OYGqQiIjqB93F0ckJ4WDQc7UwQlWQAG8b1IuOS0bhBXUEQPnZh163ojSL53KGJo4Xg1zE4cOkBImM/bZXI52iFNrVLwVjG7EUSNksbe1jbOmDXydNMh1gJJQtR+oyAlEmSaJ2CIOh+t3VFEHS/cs1poPcE4QNLT3x2GS2GrsWR7YtzDMzwH9vj5J032PXPbhRw0B/yp1dHDGQ9oDLNVK5Zqvbw5WvsPX9fZXFGhgbo3qwCrMxNVB77sQFkRaA/hA0HDksmUwjSbwQEQdDv/VFHu5wSBIogsGPOq6q0M2fOoHbt2tkOISsDfceQv4CqjfwTKFLBy8tLqaHr16/n0RBt2rTB3r17uYMkhWZ+qt26dQsnT55Ejx49slhBciNBUAqkXN5JbwhCtTJeKFW4kGTWg9TUNCz6+xLScrhBhVxs0bZOqRxKSR+uKOy0noU95lQvSRQSQjSOgCAIGodY6xNISRAmsHj/L774AvGshPeaNWtAN136sWb5X44dO4a5c+dyfwOKZKDogtmzZ3MHRApxpJBHJ2aqXrt2LTw9PbmDITkxEpkYPXo0Jk+ezKMbyDlxxowZGDlyJB48eICZM2di8ODBPKLh0KFDmDZtGseQ5qcbdc+ePfl85cuX5x71BQoUwLBhw/gPRRtYsdBdiq5o0KABH/f06VMUKlSIv6b8C6T7xxoRBCIg5EdBPhSkIzlcUsTGJPZa5EHQ+uX8yQn1hiB0bf4FD72R4nhBzrx+l+yS1hN0yDfVJNk5siIEv36Ng+cvSSJPCNFvBARB0O/9UUc7qQgChSU2a9aMWxMoQmHMmDE8hwFZAeiJvGXLljzKwNvbm9/0yYJAT9+Uq4BCA+lmTBEOx48f5zfcrl278rEkl8gE/b5t2za0a9fuPYKwePFiNG3alC+fxlOjGz59B9Pv9+/f5zd+il6g6AYKs1yxYkVG5MGePXu4fu8ShIQEdgL/CZ8bBUGgcZRr4euvv8apU6dQp04d+F27hsqVKqXrIhIlqXNpSj5GbwgCHS9IUWshOi4Rqw9ckxwoEigFSVBENIjkSRrZIr0TKgiC3m1JjhWSgiAQGSBz/JYtW/jN8fbt2zz8jV5TU9yAP0QQKIERZUykcEZK2EPhkJGRkXBwcOAEYcCAAdy6QFYDsiBQozDJVatW8f4UGklhjxQeSSGOJCcsLIyHTxJB2L59OyclRFrI0uDu7s6tByNGjOAWBAsLCz4PJWuiMEyyMpBVgkIlyerwqUYEgfIf0FiyTEydOhWFCxfGjRs3MJzJFxaEHF+ekgrQC4LQmqVUtmNmKSmsB/N3pIebaKJZmMrQq0XlHIk2MTWHg0s+kV0xRyjmjsG27Jr2KpZeBlyqJpwUpUJSfTk5JQjqz6zdkWQNoDTMlMmRjjA01RQWBClTLaelpsDAUHk/jER25muqZGbDmJvPYFW2oHJwyFn9IGML5fqyXjFywMpY6e4a76gXBEGq44Wlu32RlJyiUdCqeeVH9dIFcjQHHTNQJANFNIiWdxEoynJ6uLCnMimbIAhSoqmerM+FIKiHjnqjpHZSjFzbCJbfHYHMPD2r5CdbajSCV2yAa9/0VNTZtaCfCsBtzvPsuvHPX926DHuvKizwUZmWiEsBIahaRknyoYzIHPbRC4JAxwsxUREstvS12suJiknAmkP+ao9XZeDgr6t+sPCJsjJETgRlkcrd/aTOgUBoCIKg+2tCGwSB0h9TJsSPNfIHyC5iIDuk6FiCHCAp+oBSKSsavU+OhoqUzdnJkeJzIggPHj5ECZbWmVpOfRCCRpQBSk6E24/fZKte9LaeSPA7CuepT7Ltm5aSgGi/v2BStivztcje5HDm3GUYysxRs2r2FV3v+F1EbIIclWt8OFrlyvoJQNlWKFSiHJytZNnqKkUHnRMEK5bw45uG9RD68glzuElWe02aPFp4VylHG3N0afLps7ZPLcTWwQXmltbimEHt3c4dA6X2PxAEQT/2XUqCoE7II6GgDkEgf4cOHTpwEKlQ0/fff/8eoBQ1Qf4ByupFxwMUPZHTRgThJJPV8L/ICFUJgjz0GqIv3ElXIyUSBvW+gXxBQ8gq/Zqhml2LDmDR67y93rMl4/2k8wdh2rEP0gLfEgTjEnVhXTI9RfqbA1uQ+t+tKeXGeBg4TWFTnIBxqbc3coeW6bgmRL7C45dv/pPNjjlkDogOfgSrTJbEzAWvyPdE0cLDo+Hh5ohIeRIUhyPWboVQwD6dKBJBqNw1vcLlor1HcDvOFpVfnsQPrWvgn2gPtCqfHkkiZdM5QahYohjKs2p3OfE/iIxNwNqD2rEeKMDPicOisYkZHF3zi9TLUl7JeihLEAQ93BQJVNIEQbhz5w6vgUDOghS6SI5/5DBITnzklEglm8lxkKIe/vjjDx6OSFEM5DxIDojkL3D69GkeuRAVFYXXLFKKLAFkGaCwQgqLpD4KgvCQPa1T9ATVQ6hYsSIv+kSN6jQ0b96cv6ZoCIqSePbsGZdXvXr1DPQo0oF+yD9BKoIwl9V+GPbTT3wOVQkCjZG/uIbXLDLCxDke8pubYejZGqaNJiF2USO4zPRDlsOGtGQEDSsF22F/If7YUiTdD4RJqUZA7CWYfLECVh7OWa6UN+u6wKjqLMgvT0bStV0wqdAGFrXbIurEA7j0TK9IqWgJUeG4dv8l7M0NEB0VCVMrW1i7FMbLe9dQpVZtGGc2PDA9zpy9iErF8+FRaBQiY5Jha2PFmMYbuHiWh4vd26RJGQRB/hrjNu3DpaAQtDNL4QQBRdKdW6VuOicIXb5sCiMWp5sTgrDn3F08eqVgbVJD9GF5XZqUg6ON8s4nmaXQHz6Vgt5+/CRi4xO0o7CYResICIKgdci1MqGUBEGRN4CiDSh5EJn7KT9AZoJAkQJUOKlcuXL8Rn7gwAE8f/6chxMSISCyEBISwgkCFWsigkBRDvXr18eTJ094iWYqukRyOnXqxDGiSIYhQ4bwKAeKViC5RAYoguG7777jEQ+UD4GIxKVLl3gIJCVfcnZ25jkbKNUzRTV88803WYiDuhuQUwtCxrxpcgRN/haIuAI4j2A3Wl+4TdjwUbVCJ1aCSb78iL/FCARzDnSa+hwf821MvLMd8W71kTCRJdDrsgzJMm/Ylf+Yv0Aqu/FfBdISYGDEoj5Yqubatd8SrHcVusDCWM1NDBGdlAoLxmS8a9bOsCIo+ioIQkr4A8w96Y9jjNTkeYIgReVGbR4vKDarZEFHNKtaTN2/B16b4fr9h/C7p3qWR7UnFQO1hoAmIhhIeeGDoLUt/OhEUhIEVVZDSY0oqZI2G2VXJNKi6SaZk2JKGCLusqqVO5rArMMOJGxrBOdfP14VOGj4N7DuMwDR2/fAZnAvmBiWZI6NH45+iN7OyFWxsYhd3xhWgy8i7uQJuHTv8hFokhH44hViXj6DRSEvhD8KQJUatT4K4xlW6bdMUTfcesqOGTwc4MYqAGse9ex3VecWhNxKEAjanBwzEEGIYo5If4tIhuyv0lzYo6JXaZhpoNqeIAi6vxh0RRB0v3LNaSAVQYjZ8SNiLlyH6wyWiE4ei+CfS8NuztOPRhEEDfOA3YT7MLWUIXgYO8MvuRBufdp+cKFBPxWEYb09cGldAVF7RiLuxN8smuHDD3iPAnzxMiIBNWvVQlpyEs5fvIyylWsj04nB2zkSY3Dm8jVUqlKdWxHOnT0HmZUrqlVId9jUZRMEIQfo55QgiLoMOQBfz4dWr+Cdo0iXjy1PEATdb7wgCNLvgVQEIfrOQ1iXypp7JJIdkdhWrfqe0rFnN8OiVkdkdglIengKJkU/4HSZ9gbJyXaQZcpRkJoUDZiwaI8PwPEi5DXyuzhk+eTBoyAU83R7r3fI43twKVIiy/tvwl7BzsldeqBVlCgIgoqAZe6eU4JAskRGxRxsgB4P1YT/AS1XEATdb7ouCMKnTP3kE3D37l3uo6BMkabDhw9npFn+EJrk0EgFmMg5krImZo5+0AT6QUFBcHFxgZSJkjSh5+coUxCEHOy6IAg5AC8PDyWn26re6ofBfgoaQRB0f+FokiD4+vry6AK6KVO4IdVAsLW1RbFixfjNn1IjX7hwAf/73/8ygFA4DR48eDCjoBM5MNIPOTuWLVsW4eHhGDRoEI9kIAdGKrb022+/ZeQ/oHTLlOaZnBEpzXNmgtC5c2fMmjULbm5uCAgI4LpRkSWpGhEE0nU8q78wj4VZUlMnikEqfYSctwgIgpCDqyGnBEHOHID+PHQ0BxqIofqIgEeB/MjHvL010QRB0ASqqsnUJEEgTajQUiVWtKg4SxpEIY0UmUAVFClxEVkSMic1ov5EEOgGS0/8RASosiIVWvLz80OVKlV4wSeKeqBaCVTN8dGjRzwJUy12Pn716lU+16hRo3iYJUVSfMiC0L59e15/gXSgKCwpm8KCsIZVpez5ww+CIEgJbg5lCYKgJoBG7OBpYFv1KzySk+JLFvN85KK0VSfVXI4YJiECmjpeIBUFQZBwo9QUpUmCQEcFRAwoBwGFKFJYId2UyYpAN2a6uSvKKdNn1GgMVXik9ymUMTAwECVLlgTdeF1dXXkYJOUxoP5kQaA+dHRAsqgfjSfCkD9/fk4gKA+Dvb09l01Eg8iJ4neSTa/JyiFVk8vlfK3mTKf8bB3UhAVBKnRzJkcQBDXxa1DBA+VZWIq6jQjCsctX8DwkVF0RYpyeIiAIgp5ujERqaZIgSKRirhOjrJMiVY00K/UVBrX0ynVrzI0K65wgtK7LQj+srXKUKOnWk1Ac8X2kVfz7t/aBsUz5amGZlTM0ksElnwe2Hj2BeMbmRcs7CFBoI4U4aqoJC4KmkFVeriAIymOlbE9lCMKemcPQcsRsLrJvk/pIq9EetQ1OYf6+h/i2jAkaTz6CvkN+gkV8GOJCn+KS72VUZSW095zyRZdxCxEZnwpc3IBvho5BrS9bo27WIANlVf2s+umcIDjZ2eKrWjVyRBBox7SdLCkn/gdmrA6DHavHICIY8t7fWokiheEoofn1XYQEQdD9NaPPBIH8Ebp164a17DyfjhE+1BTRCbpH8q0GyhCE/bOHou5ARhDiYrD6dhRCNw5GCWdjtO4zkqVXrojFR+5i8/ataHR9DyYs6YDIRANGIn6CAyvA8O3624hd9T06VyqFH+Zv1Kel67UuOicIxixLV6cvGiM8+AXkSeqnHV51wA8xcUlaAbtHswqwsTRVey5ndw8YsXULgqA2hHo7UJPHC7RoQRB0v/X6SBColsPq1asxgUUCUBpkyrrYuHFjdOzYEVu3buX1GsaMGcNTKBNBGDlyJE+zrC9NGYJAuvKIB1tnJMeEw8zKHgZJkTC3soEBy5Mck5DMUtfHwSwpHrb2LL2xqQ1CWH+KvgiNlSONjXFxtEUUM9qaMoxMlagErS/46EoPnRMEWjhlU0xmFazCgp6pjUNqahoW/s2yZ32imRqlISryDaKiY9KreqWlcsefNJYqI4VZn1ydHSAztYScvf5YMzIywMA27yfdUEVx8j8QEQyqIJZ7+gqCkHv2Sl1N9ZEgUEgkORpS6CIRhDVr1nDHRCrmRK99mKmd8iTQDXb8+PFYtmyZusvXyDhlCYJGJhdCP4qAXhCELs2a8BjfnBRsohUGBIbi6JV0XwS67cdGvUYw+4Ng0TlqNQszU9g5uoCOBBiT4DJycrSgUIIIwqVbt3H7cfb1x9VSXAzSCQL5mcd4oXyazX4mLAg62dosk+ojQSASQJEFVO2RKjIWLlyYhz6SZaFFixbYvHkzLwJFFgWyIFBeA4pO+Om/6om6RlUQBF3vwIfn1wuCUICF3zSqWhnBzx/xWNuctLV7z8Pv+tsa2zmR9e7YLt9+hSolXHMk0trOCZbWtuJ4IUco6udgTVsPaNWCIOh+7/WRIOgelZxpIAhCzvDT1Gi9IAi0ODpmSIyPRURYkFprPRYQjsTkdHJx5vghdhYlbXSAd4UKcMvPinmwVtLNAkVd1Sv1TNYDIkHr9x9Sa51ikP4iIAiC/u6NlJoJgiAlmumylCEIVNKajk+USSctvYZ5WyLdk6j0OPlrZG56QxDaNaoPC2YSU/WY4dKjSIRFy9/bvQcBfngYqL5PQ2aBtevWZU/97ycGKVfQCgUdzJS+csjfwbWApzheUBqx3NMxH8sl75E/PcmLJpuwIGgSXeVkC4KgHE6q9FKGIDx79gwFCxZURazoqwICtAeUlEsrBOFlaBjiU5RPyWluaoIShQoiKoLFsMZEZruskKgk+D6O+mS/NHk8Dh8+kq2sj3UwNpahYdPmnxxPzo5NyjgyVpv9Wp1Z7gMjlgPB//7H65OrrawYqFME8rmkZ7zTdEtiqXaT5MmankbI/wQCafFRcHL4dBB9PMtY6OysfiK1z20DlCEIL1684NkeRdMeAhqzINCXmIODk1oryc6K8O+d14hJ/ESowTuzvgh8gJsBt5TWxdTEGHXq1oORqfLHCKXzWaKIs/kn56DjBdEEAgKB3I3Ai+dPeOrjTzVBEFTbY0EQVMNLW731kiBEvWFWhOj3rQip7Jzk4PXwHGHz/EEA7j4IZGGNqRkOkYbM9G/IoihqVqsCZSIAnwAAIABJREFUczv1i+yYygzRqMyHnywEOcjRtonBAgG9QUAQBOm3QhAE6TGVQqJeEgRa2IesCPv9w6RYs0Zl0EHDl95ZLSdGMmM4u6c7OIomEBAI5G4EBEGQfv+0RRCuPA5D5SJZv59Hz9iEySM7Z7uoNZci0KNqehErzbT7TGzxD4qe1Xs4hq+Yle20HTuswOYtvbPtp2wHvSUIKclyhL56ytchZ1mMjtx8reya9KJf80wkQVgP9GJLhBICAUkQEARBEhizCMkJQRjNkkFZuHmh95CeWLZiI/Njc0B1W+akHh6LEROmYtK48YiITMWITl5YfioM40cM5HMH7F2Gf58mITDGEZP7NsQfW/ehUrMOOHjyCsZ1qYf5p0Jhcn4eQqOBsVOmgAhCp8KPsWaXH+xKVEVd2yf468Q9PA6KxYIZYzBl0iR29G2BaZOHYfPS39Gk389QUJEfxvyN1ZMa4vRzS1icHIfKX/+IeeuOwdi1FAY0KYy9y5ai3tDusJYVx+ip69GlShxO3nrDakv8zHWd1WsIbGt5o0Sd1qiAm9h89AZa/zAQE/qMRlScGUb3L45zt0Nw9Lgptvz1GRAEAiUi9BXb2GicvBMh/RWpBYlEEhxdC8DYRP20zFpQU0whEBAIqICAIAgqgKVkV3UJgvzlNRjnq8BnCWOZ9uev2oVJ/dpg1MRJsGLvfdN7JO6f3Mxy41zG+KmLcfhmEJqWTXceHbD1ERa39wRZEKxvHUGSJ/mIuaCCw3M0avEVLApXYKmrZ7Csuwb4YcQYHL4RgSMLNuLPjYNwaMlElKtRCfkqtmBjQpEYE4QZc3ZxuWPGjkFoPJDZJe3EjP4wd/fE6WBnBL6R4c3Dc9i0eTFu/LMM5RowGdYF2Mj7+GnIJsyZPx639y/GK9taaFgrfW2zeg3D8JWz0eunDZgzogZWbtmNu65fweDoXCxbvRxTVxzHr70b4rOxICiuq7X7L7EY2ZwlT1LyGpW8W9H8TqhXUTgmSg6sECgQ0CECgiBID766BAGp0bj4PAkuT3bDutoPWLHpKH7t0Rid+i/GH9M7wcLaHudfROLeosHoNm0dtp29h3a1SvAF9OjYE4v/mIORi/eic6EHKNdqFC4HytHAS4bps+Zj1PCf0XPOUcz7oSKs7Ry5BcF0yzC0mbKEWSUWY1DHkkgpXA9XFvyENuNWYtuFp6jvnghnj+KIYJH31inRkJmxLLy8xWPF1muoZHINTi374cWC/vDuMxsLx0/CL2P6ZxAEpLpj88VI1PEwho1pCCwdy4JqBiuOGIgglDXxxY+//oqf9kYwgrCREYTJ+HXgaIyZPgrdemzGH0vbwIZlAJai6e0Rg2JxlMBhzb5P11iQAghNyPihRTVNiBUyBQICAR0iIAiC9OCrTRAyVAlCfJobzLOPNpdM+Zd+e/+zIEgmUu8E6T1BIMQo4mDd/st6B97HFDJiyRG6Nc9ZQadcs1ihqEDgM0NAEATpN1x9gpCGq76+cC5cBgWdlA9Ll2IF8ZFBMLfN27kucgVBUGzm6r0XpdhXjcowkRmhSzMfjc4hhAsEBAK6Q0AQBOmxV58gSK+LkPgWgVxFEEhtfSYJ5qYydGxSWVxfAgGBQB5GQBAE6TdXEATpMZVCYq4jCPpKEjzzO6J+xWJS7ImQIRAQCGgQgZUrV8KXmaWpUQnkBQsWqDSbIAgqwaVUZ0EQlIJJ651yJUEglK7df4Grd59rHbAPTdi+YQVYWYhQRr3YDKGEQCAbBObOnYuhQ4fyXufOnYOlpSW8vb2Vxk0QBKWhUrqjIAhKQ6XVjrmWIBBK5Lz456ErPJGSLpq7ow2+rFFaF1OLOQUCAgE1EDh69Cg8PT35j6LNnj0bw1iyHWWbIAjKIqV8P0EQlMdKmz1zNUFQABUSEY29Z5UvxpRTgM1NjdGOWQ1kRpqv3pdTXcV4gYBA4C0CM2fOxIgRI7JA0qdPHyxfvlxpmARBUBoqpTsKgqA0VFrtmCcIggKxuIQkbDt+jVkWNJNYyYIRgw5NKml1g8RkAgGBgHQIEBmwsbHJIjA6OhpLlixRuly3rggCFasLjkyCu13eO84UBEG6a1xKSXmKICiAocyLNx6+xBWJfBRa1ykDR1tK3CmaQEAgkFsR+N///sdS5054r1RzSkoKBgwYgGXLlim1NH0gCH5PY3DhQSSalLHHjAPPYGshw8z2RdFmwU1YGBuy6rQGyG9ngt/bFQXLFIwEeSoGb7yPcw+j0L2WG5ytjdGmkhMm73mCgzde48bkKui0/BaWfV8Cg/98gPvBcTj7m/YehgRBUOrS03qnPEkQ3kXxTXQ8K6jxGvefhiAmniXs/kRzsbdEyUKuKOhiBzNmMRBNICAQyBsILF26NGMhDx8+BFkOKlRIz3VPrV+/fkotVB8IQoWxvviinAMcLWW8VsDjsAT89EUB9F9/H4eGl8fE3U8wtrUHTt99gzol7ThBoCSDa84EoW+DfPh6YQBMZAbY0s8Lr94kwtXGBGExchwJiMD157Ech+nt3vppKAVMDjoJgpAD8DQ49LMgCBrET4gWCAgEciECx44dw4ULF/Dbb7+prL0uCcI+/9dwsjLG31dD0aueO2ITUzFq60N0q+2Gap42GMkKEO0YWAaT/nmCMa0+TRAGNsoHG3MZG/MQx0dVwOtYOeTJabj8OBrXmIViNBuvrSYIgraQVm0eQRBUw0v0FggIBD5zBJQhCImJSXB0kqZgzucAtyAI+rnLgiDo574IrQQCAgE9RUAZgkCqm5pZwthYHFMqs42CICiDkvb7CIKgfczFjAIBgUAuRkBZghAfHw9nF/dcvFLtqS4IgvawVmUmQRBUQUv0FQgIBD57BJQlCAQU3fhiY2P5v6J9HAEK4QwLD0fFCum1bBqwaJMT48ZlGfDixQvkz59fwKhFBARB0CLYYiqBgEAg9yOgCkHI/avVzgqIQIWGhaFo0RKCIGgHcqVmEQRBKZhEJ4GAQEAgkI6AIAjSXwmCIEiPqRQSBUGQAkUhQyAgEPhsEFCFIERFRbHMjXYwYVUjRfs4AkQQQkJDUahgIWFB0KMLRRAEPdoMoYpAQCCg/wgoSxCiWCKmfPkK6v+C9EBD4aSoB5vwARUEQdDPfRFaCQQEAnqKgDIEIY053Vnb2OvpCvRPLUEQ9G9PSCNBEPRzX4RWAoFPIkBfqIaGopqoLi4TZQhCfEICnJ3ddKFerpxTEAT93DZBEPRzX4RWAgGGQBr7j2XQT6MQuVT22oijkpKWguDwKLg62rM8/CzHPsvFn04VBGHQxmUjCIL0KAuCID2mUkjUOUHo1avXe+tYuXIlO7vLh5cvX2b5zN/fH9u2bcPkyZPVWvuZM2ewbt06PvbHH39EtWrV+OsPzaXWBGKQQEBCBKhouQEjAxQjHhQZDwsTGazNjZHKCIERfx+IjEnEo1ehqFjSk9EHIguCJEi4BR8UJQiC9AgLgiA9plJI1DlBoJs2ta5du+KPP/6AiYkJateu/cGbdlxcHG7evImqVauqtfYtW7bg7NmzGDJkCPr27Qtzc3Ps2bNHEAS10BSDNI0A2Q/oizPwZTA83Z1w9XE4pq3eg3UTusNMZojVey8zS8IbjOjcCBFxyXCwMoGJkUzTan328gVBkP4SEARBekylkKhzgqBYRPHixXH9+nV+01Y81VPmrBs3bqBYsWKwsLBATEwM6L2SJUvyPs+ePeNZykqVKsV/v3btGsqVK4c7d+7A3d0dDg4OWTAigkBWiGnTpvFSr2XLlsWTJ084QXj+/DkfX758echk6V+yZMEIDg7m7xkZGfE+9K9cLudm3YIFCyIwMJD3LVy48Af3g/SnOvRUPU7RHj9+jCJFikixf0JGHkaAHzCkpOD20wj0mb0FTcoXwouIOPg9CkW1MkWQzCwLCbExMDQxQ3kPOwxoXQ1GJpZZEKFrW/G38fTpU/j4+GT5nJzpKBTP1tY24/0aNWrg3Llz/BpXtv3888/4/fffle2eq/sJgiD99gmCID2mUkjUa4JAN92pU6eiU6dO/OZ86dIl/vs///zDScGvv/4KLy8vdOzYEffv32dZuIpyC8Tu3btRv3590Bei4mZPYGUmCPPnz8eqVas4KaEv0SpVqqBDhw4YNmwYJwb//vsvkpOT+Y2fLBr03sSJE7F8+XJcvHiRWzGqV6+OWbNm8c+JAJQuXfqDe9KoUSP++Xfffcf7kMwSJUqgZs2aUuyhkJFHEaCbd4w8GTuOXkH9ckXg6u6IxTuP4+6LKARce86uQU+kxb3GxH7f4cClx/imtieMGVnI3Dp37oxNmzZxck1kmK5BuvH/+eef+OGHH9CsWTOsXr2ak21yeqQ5t2/fDktLSzRv3pxb2qgsMv099OzZkx/xrV+/nhPt2bNnY8mSJZxcPHjwAGPHjuUEZN++fVi2bBkiIiJAf2fz5s3jY65evZondkoQBOm3URAE6TGVQqJeEwQiBfSlRTfwhw8f8i8lIgg7duyAh4dHhg8B3bDpBk4Egb6E6AuLvvjWrFnDLQmKRgThp59+4r/STXvDhg38dWYfBHqtIBb0ZEVflmPGjMGjR48wffp0TkDoaWkCyxVOr3/55Rf+BUiWhUGDBnF5t27d4sRF0RQEgQgNkRmyQFSqVEmK/RMyPgMEEuVJeBEej/zO1jh28Tb+/vcGXgSHonOzWmjfoDweR4SjgJ0tzFgyHkNyaszUFBaEe/fucWtX27ZtOZkmSxsd71lZWeHQoUOcDFCjv61vvvkGBQoU4KScSAQRgVevXiEgIID/XbVr147/Xe7atYt/Rn8D41jefPLvUVjUyBpH7xNZmDlzJnr37o2QkJAM619u3racEgR68OjevTt/SKCCTmTRVLZVrlwZV65cybY7ETsiaaq0xMRETh7pe02dlhNfLkEQ1EFc82P0miAonBQ/RhDedWIkgkBfTNbW1mjVqhV/2n+XICiOGN79Es08FxGEhg0b8i89urkTGaEvWCII9IVKJIOsCTY2Nvz4YPPmzQhjecQVBOHdbVMQBLKAEGmhL86kpCR+dCKaQOBjCHAnRYpeYE/1Ry/fx6vXkXCzM2dWMRMkpibBiV1/twJfo1Qhe/iULgAjAzoay0oQMlsQ6OZNN/fbt2+DbgZz587FiBEjsHbtWm4doEaOu0S4T5w4wa1kQ4cOxYwZM7g1gKwEdevWxdKlSzFw4EBOiukm1K9fP/63cvr0aRw+fJgfWdBNjPx7iDyTFaFHjx6cxGcmzrl156UgCL/99hv/PqHvLCJqdKxDGBJOX3/9NX8guXz5MqZMmcItjtSXHjzIQkPY0oMSfZeQT5bpf1kayfF6//79/EGKHmpob4jg0XERHbv26dOHWzLPnz/PQjCdOfwVK1aEn58fKlSowC1J9vb2fF9JnwULFnBrLFl/yPJJ89P1cfLkSX5tEFkkC2qbNm24pZbmefc7Wdk9FgRBWaS02y9XEgQ6YqALmm7c3bp1408x5HwoJUGgPxD6A6A/FnKeJAuGugRBu1sqZss7CKQhmS3GKI3+b8jCG9n/GVmQs/8M0kwgM2CRDAZG7KmPRS9AxjwWUv4jCXkHAX1ciRQEoVCh9JTCR48eRcuWLflRDT1sjBw5klsZ6aZPN+GvvvqKP1AQSVy8eDE/GqIbMVkw69Wrx2/qf/31F5d15MgRfsMmnynysSKCQOTi1KlT3FJB1gHy36KKiOTLRW3UqFHcd4SOVrt06cIJQuPGjbk+ZCml+ciXi0gF6bNixQoujz6jeWkckQOSKywI+ni15kwnvSEIOVuGGC0QyHsIkJMiGDkYvXI/Khb3gLOdJcoUyw//Oy/xhjknOrM8CPHxCXCxt0JkdAxqVmA+OIYiikHTV4IUBEFhQSBd6biHnvrp6JH8PcghmywtZFEgiyVZBiIjI/nnZOnx9fXlN2Z6MKInb3qIoUb9Fi1axK0HCoJAxILIBFl56EiIxnt7e/PjImrkm0JWny+//JJbloggkPWUHojIymlmZsatGmStIAvp+PHjuQWV/LeohbL6CcePH+dWBHI0FxYETV992pUvCIJ28RazCQSURoCOGJiNAHFxciSlJPMcB6bMpiCnBAjsaVBmZIxknlHRiH2eAkdLI/ZaFAVSGmA1O+aUINBNm44kFWZ++p0im5ycnPixJX1GN2d6Iqcb8vDhw/mxDf1Ox0RkFaCQ76CgIB4NpYg2oYgrOzs7TiaIOLi5uXHHVJJJN36S8ebNGx59lTlChcgAWV8TWPZHIhtkEaAjDldXV05Q6GiJjkMVc5O+dAxLnzk6OvJIL3JqJX3UPTYVRwxqXowaHiYIgoYBFuIFAmojQAYEg2RGEQzZMQNJMWC/U35FljmRfUmnGfA3eaMvbQP6TyRKUhtuZQfmlCAoOw/1I4IwevToLNFYqozPLX0FQdDPnRIEQT/3RWglEBAI6CkC2iQIegqB5GoJgiA5pJII1AuCQOdW9AREzjPvNsVZmxSrpUgEMq2Ric7Y2FhpkVLqoPSkoqNAQCCglwgIgiD9tgiCID2mUkjUOUGg3ASUvIUIwoeq01FoIIXiUJiVi4tLjta8cOFC7mhDHrmURZHCIZVpgiAog5LoIxD4PBAQBEH6fRYEQXpMpZCoc4JA3rZ006ZYbGoU4kOxvxRaSO+Tx26ZMmW4cw2F6tSqVYuHHx44cIAnX6GkLpRwhOKtJ02axEN7aByF7lD+AcqQSF7B1BQEgV5TchIKNaLPyeu3QYMGPGscFYoib2Dy2iWHHQqjJIJAHsUURkQhP0RYaAxleKR4cUqARKFKc+bM4ZkZycmInIIo5lyVdLVSbKiQkXcQSGNVHM/P6QtryzTEpTrCxD8IRp7GsC9khGf3UrD0qR2QYAq3oQNgbGmOuIN3MG9o9bwDgJ6uRBAE6TdGEATpMZVCos4JgmIRlHiFMq7RDTVzaM27FgQKz6FMX3QDDg8Px969e3nmRIr/pQQv5E1LaWMpAQw1IgoKz9rMBIEyxtGNX5GbnmJ6yTOXksBQVjkKF6JGaWqJAJDnL8UpU6MkJZRZjuSRNzFZPii5CRERIiuUn4GSkogmEMgJAmnME/3cz16IS3ZC2rFImJVKgU3JZFz2NcTIS66wL1MI+X+ehoTHwUg8cAMGtqbw39gxJ1OKsUogIAiCEiCp2EUQBBUB01J3nRMEis2l+Fm6wdNTOz2V09O94sZMBIFu4gcPHuSxuvSkTqSgdevWPK63ffv2vH+LFi04QaDQGyIZlAWM3iO/BkUBKHrqp+MMyg5H1gB64qf4XUr8QbG+ZEWgmN4UFjK2c+dOHotMRxFEJGgsZTyjMCKyIFCiELJgUDwwWS8UyU4o2xiFAwmCoKUrOA9PQxaEC+PrQv5nKAwqJsLY1Rw7rphi3QPmRzNuLIzzVUDClvNIZcSgWOU4XL9giLtrOudhRPRjaYIgSL8PgiBIj6kUEnVOEKRYhC5k0DEGWRBEEwhoCgGyIFz0LoHk4qzCAispMuOCNZ4n28D09+0wOHcTcvNUuNhF4ulzQ4QFxSHydTRid/XSlDpC7n8IaIogECG8e2UXkhNiWYZMKpyVwn2zHN29UKCoT54+rhQEQT//vARBUHNfBEFQEzgxTGkEiCBca1cS8W5GWHLdEX5e3WFWvjIs2I3ExiAWSTERCIg1w+t7r2BpZADHfG64N7OZ0vJFR/UQkJogJMsTcPsiI31ECgxZ+e2YFMyavgAyVplz5LABMDdjOS7o6NXcHkUr5s39FQRBvWtR06MEQdA0wkK+QEBNBIgg+I0sjd4ny2H/4dVoNccXO0bVwMidR/BL09pwZY6JtX45hNOTmqHcoLUoeOccK+SzPsts5DdDR2B0JEeFdyiChxyB6UhMYQEjx9xevd63PNCRGlUdVTj5qrmMPDdMSoIQ9OQ6Qp5e5wSAKm9cvhyANWu34U10HMyNZTAxM0Lnrh1Rt1plGDDyQP5OxSu15OQhLzVBEPRzNwVB0M99EVoJBJh5ORVl2/4Gy2bf4lzvCqi15zqONffC7AP3YSI3xPLN5yC3lOHZmo4oU7s9kp+E4v6Lcx8lCOSYq6jgmLkTEQS6QVFKXQolplz75HNDRXuoQA/5/pBDMNUJoHBjcsilEtHkKPw5NqkIQvDTADy9d46nRSb8DYxYmuygp3Cyc0ZaXCJS5EBSYhIOXPBFww6tWSEulmbbyAQmqQYoW+sbGBrlnbobgiDo51+SIAj/7UtsbCyPniCGTkVRKB/5h/IyZN5GKpmrKLWqyvZSPXiS/7GmrlxVdJCqb1R8MmzMs64lUZ6KhORU2L7zvlRzfi5yUtn5c7Xp7Abi7ohD7Yqg5ZgdODqjAzqNO4z/t3cl4DUdbfiN7EGCJJbYI3ZiJ/a9aFE7f1etKq19p1TV0hK7KkWrKNWqllJrS+1bLCXIRhKCkCCyyp5/3klPXHFDNDfJDfM9T57k5p4zZ8575sy888183+s+sClWzV6MnXfz49ymoahU1A0FrGJwKcgrQ4JAIhASEiI33uojCAzp5Zo35X+HDx8uo4oYBkzpdBIChhDT68DOnLoADPF9Gc0QBIE4H/4jdQ8T8WQK7fv3wmB9LxiORUrAKpHegwKITzaF95XruFMgBU0a14N5ilD1FL4G9k2uLfrqhf/GjRtyszY3VOsaN3FTrjm9cdM3xaPYL2kiToZ6rvRecaN4r1699O6hmDlzpkwlnRmCQGEo6lWo0HFDPZ3HyyH5T0/6c50gUKaZUQFs8Byg9RnFQDiz0dcwqEDG8MQOHTpkCjXKmLIjpDEkUjPmXWD+AxpzLHDWlBVjPgTKrrJj1Ve3jRs3SlevPqNrt1mzZvKlYcgmRV0Y2slORTcDpHZcZuu56sAtnL0WhZ71HdCuepEMT3ttoSd2jKqZ4fcztgXi067l5Pe3w+NR3M7isWNLjz6OoAWNM1stdVwGCCQLUSbXZStx67gJzK3s8FaTCti7+wwSrv2DYhUroUGxcPzy8x581Lc+el/ZikJx+WC/59rjz0KE53p6eqJ58+byN8N12Ta53NC/f395rOZBYCQPc39Q7Y9ti0QhPUGgF4ISxSQHVP17Gc0QBOHA74skdHynBT2Qvy95+mL18vWwtSmImSJM+tf9B+AkRJSc7Yvi4MVTGDB8oOgnhadBkAT2haUq1UeR4uWfeAS6BIG5Xtg/MicMQ8k11UX2SZSP5mSIfR/VHjWrUqWKFIvy8/OTz59tglFmbC8UdmLkGLPfHj58WA78Z8+elaJQGRmjwkg+6JVi3hrWiXlt+MPoNKpNZoYgvIxtLbfvOdcJAnXJ79+/LyVPORgyuyHdmevXr5cJj9hJMTUyB0lvb2/ZwZFFagMlQx3JlFu1aiUbIEMYL168KM9hfgQqmPEc7WWk0pnGrPki8XpkTuz0qL1OBTMyahIEHx8fKZtK1s36cCbF4zgDY2gmddk5k6KiGV80TZ2N19IlCC1atJCdMxXbGGbJlM/sgPv16yevRV13Mv4VK1ZI0sCXkASBnQbzMfDF5n3wRSOJ4svL8piDoUmTJrKMV155RR7DcukWpj47jSGcLJ9WccJJ+M1JnUGERSdg3q4gHL0SgQMTa6PkqOMY3aEU2lcvjHdWeeOrt1xw0CcciUkpGNepNKpMOoUlb1ZExeLWcN9xHes+rCrLcRl/Ekcm18FH63xxNzIBe8e6ovy4kzj9WT20nXseQ9o4oW21wqhe8hEZy+1Gn1euT4JQ/K2NiBdqjaZR4XAM8kbBlEgEwAy2d4+ia8lETKwQActIQR5jTZCcaAKHfVfyyu3l2XpmlSAkJydh/5ZUgkBLFj6BJPF79bpfkV+8l7djE1HUpgiKiD0mZvmSUUj0Y22q1IBNAxckic2oZimmqUsSYlNjzeY9n8DxWQShatWq+OWXX2SfS8+pllmWE6fFixfLvpP9DPsVzvDZz9FzxO/p3SSR5DGc+VPBkf0fc79o/c2OHTvg7u4uP7PP+ueff1CvXj2ZT4Y5ZDZv3iyT3r399tuy/Mx6EPJsg8nDFc91gqBhxxwIlC5lY2MD5+CsbbDiQMqBe+3atXLgZDZD/nAA1RoicxWwcfM3vQQsi0yVDVFLhsTj2aBLlBAxY8I4u6f7i5roJBUkCJRI5f/Z4PkikdlSBpVEhqSA5IV15OB85swZyYIplUpj3gTNyKq5wWv79u1yLZe5GHhfpUqVkgSB7j6+IPv27ZMvKokKr0MXT3rPAD9rrkHmWdBeOmdnZ0mMNm3aJH/zpaYLmfUiEUlvRYcdRchXTeW/x/x0BfP6usA7OAYlCpnj7RXe2C68Bt8fvo21R29L0lBh/AkMb1cK3es5YNrWa1g9IJV0fL41EJ91Kyf/1gjC7QfxiElIQq3SBVD1Ew+c/LQOImKTULm4DSb84o85vZ3z8GuSO1UnQSj21npYBviidswVeDiUhV3ANkzpGIceNvFIuGMGIfCM+FCh8xhjjpQwwMHTO3cq+xJdNasEITT4Ks4c+iV1YyJ/RDgjn3V4eDRi/W/A46IXxrz7Ifb/eRhWBSzRyK0RkqNikFzJCclmpjCX5EAoegqvq0v9157wrLKfoYeIfSRn+czvwuUhTjTYxzHXC13/nL3TOBniz7p16+Q+E05S2NdxQGffpREEEgP2pzx2+vTpclLCv5mUjtlt9Rn7P3pS2WeSHGgEgfXnxGXOnDlyKUt5EIzzBcp1gsDBjY1D8yCw4fCzLkFgCmQuRWguUjZ4Nv4tW7age/fuEtn58+enDnz/EgQSCg6Y/M0ZuTZgenh4yLLJnLlswT0ELCs9QWCDJ9EgqRgyZIh0t+kjCBpbJ0mgh4MbuGhk6LwPDuL0OKQnCCQlmhuPdeTLxhTTJBn0RJAIkQiQFDF1M19CundJeugpoNuQ55Bs8Di6AekO5PIIszyOGDHiiRZ3/V4san16GqbCTXl3aVMUGXoU9mKTG70KXcSygkYQgu7NoxY6AAAgAElEQVTHYt/lB/AKjkbrKoUwt28FDFjtg/PXoyTBKPTxETxY1uypBOH6fDdJHu6LGVHwoiawNM9nnG+AEdeK7adFpTcQUcYFVpYnsbx/AJyjo2DubwlTsbs98VYKYq+awuyWBUysE5HiKgjmt9eN+I5ejKpllSAc3bNa5Ky4LfuHJA723FWQDOEtMIXn3x447xuIj7v3FG78MPhc9UWvnp1hVcwRcTbiuYtIBhMTQQsFOWBfWbZWG5iaZV54zlifgCIIxvlkcp0g5AQs2qw/u6/F5QsuayhTCBgCAXaarkPm4sCEVbC7+QDxZ4rC1EkQyzsFYOodi5jDZjCrmwSLUgmIDAQs85ui8PIAQ1xalfEUBLJKEA5uX4Jw4XnkxsREXic5HhZmVrCytcPV4+ew+aedGDdogFgyskBCZDjyVy2PEs6lBRGwFpEL8SKawTyVIIifUjVaiP8/vgcoLz48RRCM86m9FATBOKFXtVIIKATyIgJZJQjH9nyLO8FBSBR7ERjKKj0JYuNhQfsSuOYVgDA/HzimWKJdo/bYcV4sEXTtBQsHc5iZ5hMeBLGsJIgBPYbChQCnas0EaVAehLzYjvJCnRVByAtPSdVRIaAQMBoEskoQAn1OwOvc3wgLfyBIAlDWpRrsHIojSngLVixbhwJxEQjwCYRLZRfUr1kXDV7rgyt+58TyowssTJNhZmKR6kEQhKFY5cbSk5DXzdg8CF5iz9kQEd2RksvA1hF76Ra8806u1UIRhFyDXl1YIaAQyIsIZJUgxAmthc2rP0OCiF+wL1YJlavURKxIiLTlt59RwakyYq6dhZ1YNjjr54++H02DdQEhVy/CHArYWooognuwMEkS5EBsbsxnjjLVWzwBobYZ+lnYcrOiFqqa0Tm6sfEUphswYECmwsCfleslfd2MjSC0FqGXxmKDxEbRfk1TN5fntCmCkNOIq+spBBQCeRqBrBIE3vyaxaMRJ7wHFas0QkFbWxm9FBIajBNHz8K5WGF4njmNUyKUefrsZbC3LYKk5Fh4XjwnvAqVEBV+F0Xt7QRxsEMxl/p6CQKjBrgxmpu7KXfPjdAMZ2RUw/jx42VegkOHDqURBG7kZjg4Ze8ZxcDN2VS85YZoRpHRNILAzeKMxmK4OMPAmaOFERHceM18C4wE48Zpls8N08yVwN8rV67EZ599JkPUGdrOEGzmRaApgpDxK0FyQJKQG6YIQm6grq6pEFAI5FkEDEEQHsZE4ue1C0R4cwkUK15M5lFhNEJ4RCgiwuJEWPU1tG7bAQf+/hM1qtYWWRZvobFbE0Q9jBa45YNDYVs4Va6nF8P03gBNa4ORVYzeYsIjbqhmOHR6DwJJQfv27eUAzggvRlpp2fU0gsAkWSQODB8nEdm2bZuMuuKAz5wvzA3DfAmMIuN9cfBnWcyHwARLTMRFcsEQcYaZK4Lw9FdBEYQ821WoiisEFAIvGwKGIAjEbOumb3AtkAN/Y9hY28jB+PLliyJvQF1cFboYcXGxsHcohMCAILiJXAgc1CMiwkSSIpFdUZAGq/y2eqHnTJ6J13SNs3kO3gzxZhI1LcS6evXq8jB+z0GcAza9A8zJwrBt5oyh94F26tQp+X+WI1NFC28EM3RyGYKh4vQa0GPB70kKGDpOcsFwcpbF65I08FokFMypoGWzVR4E5UHQi8Bckc1vmki8E7yoMUb+eAV/XgpD4Dw3vDLvPALvxuKqu5tB+5+A0IcoJlIDewZFo1EF/S+YQS+oClMIKAReKAQMRRAIytnj+xBy57bIgWDGoASZ88Te3kG67f39U0mCm5ubyDJ7Qwy0xcQgnIwKYs9C0ZKpmQvzgtGLoJsiXl+d8zpB2DtpEhJERMprs+c8dnvNxEbTIz6PZzdd1aclBm46mOlH99J7EAoOPozIb5pLwJjH/9CkOiIu2ASbToVilEj/S7t4Iwr/+8YLK/tXFr8viTSk5lj4hgvcdwYh+EGcTMizZ2wtDFrjgwti8L8nEgGVG3tCnGkiCYf90CMoY28lEwNZWeTDKzWKyCyBDiK7oFMhC2wZVgPNvzyH8o5WKO9gDWfx+9y1SPwxyjXTD1IdqBBQCLz4CBiSIBCt86ePwlxsWLx584acYQcGUtcgRcyurYSrP0wkaKskZ/fR0Q/RvMPrgjwI1ccXzPI6QZhXpTzGel9HP7Gb1L9VP3zeuDw6f7kFf07tjT9/n4GwKh+ic2lzdJ73NRZ3ccUIocyaWVME4V+CwHz/njPrw1yE79yLSsAvHqEY3NpJ4ugoBvLQf9MEj/v5qszu5zTyGOqULSiFhWxFGR7T6qGgyDC3/tgdvN2kGD7dEgArc1MMbVtShAeZwLmoNU5cjYBr6fxYdTAYH7YsgVMBkWhZuRBeXXAB50SmQGb9s/voCPaNr4VuSy7ixkIlOpTZhqyOUwi8DAgYmiAQM7rsvc4dR3RkhCQHXl6XZMbEJKH5nChiITt06YXS5V1eWHjzOkHYJ3SA7t++jN6rfgUKlcEP7/TC+j8WYGyPwWi/cA22jR6KRJHrYuk8d7yuCILQMU9IFOtSDplq0PQg/D6iBhbvFQxaDOg/Dq4qvASXER6TKL0CtM0eIZIwjOlYGj2WXhIpaO0wqJUT3MUShT6CMFYcV1Z4EJgqeO3AqkKM6Bgau9gK/YEKmLDJH03F+fQgOA4/iuYV7TCnjzNazv4njSD8z60oQiLi8cuQ6jI1sTKFgEJAIUAEsoMgvOzI5nWCQA/CtBATtM/vj+E9+6Drb35oai5k03t8jFfnrsDqTq54f9dl8ZjjnvtRv/QehOdGTJ2gEFAIKARyCYG8ShDopaB+gzFaXicI2YmpIgjZia4qWyGgEFAIGBCBvEQQGDFAmXlKNRuDbdy4UUY8dOjQ4bHqKIKQ8dNRBMEYWq6qg0JAIaAQyAQCeYUgTBI767/88stM3FHOH/K5yFTIpEmaKYKgCELOt0J1RYWAQkAhYGAE8gJBcHd3lxkTjdl0SYIiCBk/qcEicVXfJk1y5VEaXSbFh7ExSIgXWcVMzdKSaBCZq/5XsX79D8hnkk+4y/qjTJkyuQKYuqhCQCHwciNg7ASB6Y8ZLqkv9wD1FwIDA/H+++/n+kNkYiUmdbKzszO6VMtXbt/GhytW5LpYU4MKFeD+1lu59qyMhiA8eBAm4nyjcO2aP0aNHo2I8Ch0e/119O7TB24NG2Bun9JwdrJFwsMozN1yByeCY8GUolqqzlxDUF1YIaAQeKkQMHaCkN59r/twBg0aJD9y6YF7AXSNmxjXr1+PY8eOYeHChZJkGMJui8GW+gz67OOPP8ayZcuMjiAY4r5fhDKMgiAE376FFJGa09v7MvoL74CttTmsRWKQhzEPcSngBi593xHlhChJcnIcwm5cwcHtBzF+WxiCo1Nw/fp1KTKiTCGgEFAI5AQCxk4Qli9fjo8++kgvFByMr4g0zgsWLMDvv/+O18UkTLNx48Zh7ty5aZ9JGOiNYNpmRj8wNTKXApgemd/RqO1QsGBB+ZneAH5HKWqmcuYP//5WyCaTCJiZmT1Rp9WrV0tvhrEtMeREO8oL18h1gkA30507wamsdvaXKHjHC20b1ICdY0k06D8R5kLq3GdDOzhW7IqkhPuIjQ7HkU2bsXJ3MPZeT5TnaY01LwCu6qgQUAjkbQSMnSB8//33eO+99/SCPGTIEKnkSKIwZ84cKZz02muvyWOnTZsmfzQbNmwYFi9ejOnTp8sNhWPGjJEEYubMmRg8eLDUdXB2dpaiS7/++is+FcmCJk+ejJEjR0rtBeotkFh88803krDoC7GkgFTv3r0VQTDSVyLXCcLNm0FCnMwEyWJvwcY1qxBy5jBgWxjO9oUwZO63sBSk0+fnvrgQYImWTZxxSxy/Z7cXTv9zCevPhEtYuaZWtuyj3OQUNWFDZWNmY6XVqFEDbPCZsZMnT6JRo0YZHsqXg43ekEZhE9Yx/Uua2WtwbbF169bPFefMl57uSBrxmjVrVoaX+/rrr8HOJb3plsHvDhw4AF9fXynM0rJly7TDSQRJ5PTNIrSDNAz0VYJKciyjR48euHTp0mNlZxYj7TjOijjr0YwznHLlykmRmTVr1oACNk316K8HBQVJbxU71gkTJjzvZdXxLwgCxk4QPvnkE3zxxRd60daWGPiuc48C1/8109z92ud58+Zh7Nix2LRpkxzEV4g1efZ9U6ZMkX0plyCYAvrChQvyvXn77bflqXzPqfRIPQna0zwaQ4cOxdKlSxVBMNJ3I9cJQtDN60K8VCTvyJeEw6u+wrXgADgIHfM/zl/H1v1HsGZST3Tv5grTRBOYW9ng7jU/RMdEYO6s37HaOwZJwtNFFxUHEM3IeKdOnZr2mQN+w4YN0wbPXbt2SSWy2rVrS/bbtWtX6Ro7d+4c6tWrB7raeD6lT6mNHhoaitOnT+PIkSOYPXu2ZMMaQeBgxWvPnz9fEhJTU1PJtPlycY8EjyfjpiwqpVWrVasmP3Ogc3V1lQMzNdGplc772LBhAxYtWiRZO5XU+EL/8MMPOHv2rHQL8lpc02M9O3XqlHaP1Hqn0EuXLl1kPVnf4cOHS512f39/8EVcu3atHOA0iVdi0OTf3bHUeCceHDz5gtsKjfodO3ZIfKpWrSq15Pm/Vq1aycGVa5UDBw6UHZFGMjSCwGN4H9SRpwuRam6dO3cGr8G6kWjw2l5eXvL++H+6LzkL4X1Tk56uS81NSpdoBbFZR5uB8PlxhsL7o3ocOyjen64RJ9bbwcEBfn6izYjy+oj9LJS+JZl85ZVX5OE8XyMDMTExstOjW1Qzfn/+/HkMGDBAEqi6devKmRPL7d69uzyWWHzwwQfYvHmzJKuVKlWSz4IdrrIXDwFjJwjskzSVxvTo6xIEtmFdo6jSjBkz5FIB9yhQDnrdunVyGaJjx45PJQjsV3guiTajJ9jHsS/RyDTfeX0byz08PNCgQQNFEIz0Ncl1gnAtKFB2/KaCJESH3cGGxTMRGxELj6Aw/H3CA87F7XBk1dtISsyPh7FJOLJjG1p1aoaFi7bgK48wCeubb74pO2nNRotNjhyYOZvlQJCeMHBg4voY3Wt8EeiO0wgC5UvZqCdOnCgHZo0gcIDZsmWLHMQ5qGsEgQP7hx9+KMkFB3wOMlxP4wDFelA7fd++ffKFIet2cXGRxIFEgqSBZIQ2YsQI6c7joMcBvFu3blJG1VqQJQ7Ur776qiQqJB4ckDWNdp5L7fWQkBCcOHFCMn2+2CQQHKxoPJ+DOV923iuvTSPpIBY2NjaSOJD1awSBJIDX4+DO40gQ+JJzwH/jjTewfft2OZiSiKQnCLxnEixel+SLHh2uY9IDwFkL68pNUKwHZyMcwIkdB2/Wn7MatgkmeClfvjz++OMPSTA043MlCeH+Ew7QXEvV9W6Q4Pz1119Sp56Yc8BmfRs3biwHdl0PguaO5exI6zx1/+YzINYkPMSE98O2xfZBzwPJA4kT8b5//74kCmxvfK58dspePASMnSAQcb5LfOeN2eiZIGmnqT0Ixvmkcp0g+Af6wUSENIqeXpCEFEwd+D84i5lztIk53L/bRDFGRB+ZgjMeAajb5R1sWTALDZvVQPdRq3H5dqxElYMUO2jNOGDRBcxZJgceDoK6jFqXIHDA5Uz16tWr2Lp1q1xHIwOmN4Ducw6GHABIQOjC54ClSxA4AC1ZskQSAw50HPy5pscBUB9B4EBHEsI68BwuK5Cx0wNBzwEJAsskYSEh4Sz0t99+SyMI1Grn/bEcMm8aPQu8FtcWOQhzBsGZLgnCnTt3JBEhe6fLj+48bbbNgZ+DHwdqDtokCJwds170Juzduxdt27aVM3RdgsDj6U4kAdBHEDh4k0DRw8Hr0otBokZPAZceeD7XHoktiQA9HFzL5DkcYEnGSCS4HME6855YL3pfOAizHC5fkCBoz5a4aHbz5k0Z3UIsea8aQeBzIZnirIXLCbTg4GC5w5pEQQv94rN+69/QIpIA1olYsV4agWT74ncsj+QkIiJCkhCSVZpu52ecr76q1X9FIC8QBA649NLpLvP91/vNjvPYp7BP1iYriiBkB8pZLzPXCQL1zm/duin4gQm6de+DN9u44fR5D1Qs7YSZ32+Vd7iwvwveGfIBUqItcOPKSfzw8yHM/0tsbEzdSKs2KWa9HTy1BG0mn9FB9JCQSOSm0WtArxDXRJUpBLITgbxAEHj/XDKgt4t7ErSBODtxyWzZXJbkMqzuu6oIQmbRy9njdAlCUlIi7t0NFR7nxz2jJpERYf8OxZmv3POoOXbq1BneXr7SW/Du+x+iSRmxDhwdig2nbuH8mW1YPbw2gkMicCM4Cb/vvoCyBcyx0jMKQgVVrmnr21CW+ZqqIzNCgF4DLiPUqVNHgaQQUAj8i0BeIQi6D4yePnrLcjPii546eil19/hodVQEwThfL12CwBqGiIjDHCcIvPDrXXvisnC7W1haYc+uHfC+fA7rfvoDJ48dwpIR5VGzYkkc2XtMeBBCcCk4HqvF/oODBw6iRfNUV7EyhYBCQCGQEwjkRYKQE7hk5RqKIGQFvew712gIgnaLs2fPRb83+uPbr+Zg5tx5aXd+zuMYbp74Dhu2ncboL75NW3/PPmhUyQoBhYBC4EkEFEEwfKvISwQhNiEJVuapG701ixf/s0j3P8OjlHGJ3KeFfKYwNbCat9ERhJwEVV1LIaAQUAg8LwKKIDwvYs8+PrsJwpr5u7H0fmo9enZwxaQWTk9Uqv7k3an/Ezl5Ts9MDYPWZzzu9KyOj331lvs2rB/fVf6P35sXccTxMfXQSPydv4Aj9k96tIleO5HHfT1MhL6nRGCGnwncW9inlRl8/iweVnSFs82T2Sf11enQn8eQXL8JWhV+NtbPc4QiCM+DljpWIaAQeOkRUATB8E0guwkCa3x5y98Irt8AJpfOY9WlaCwZ7YyFB+3RKdYXFo0bYYj7bvRpVBKbL9zHqSl1sPFoGBbu9MKpcRXRdUUAbkUk4oggBs3EwD68ug0s69dG30q2Eoz0BMFepFLZM705RvzkA8/AFJjHhWLntI5oNOUvQT7apREJbvfbObS+JAht7nvjhn0J/HYxDF0LRSC5ZDn4nr8C92Ht0GTyHnhMq4hDd4tj6tLDiBbndWhZExdOX8LDpGRMdbNFUq26GLf4oCAvHQz2gBRBMBiUqiCFgELgZUAgOwmC/4WT8Nj7K/x9vcSGQqBqg2ao26YLyrpUe6GhzWmCYNaoKVoUvopPDhRB+xhv2DRtLAnCbz2KY8FtW0ypAkw/FQmPS8E4PrYiRh/Kh775b8CmbXO896+nQdeLkJ4grG9ZCFtvJmFiz6po83UA9g8oiJ+ux+FmfFGMaVIsjSCcHFsHXb7zRY2G1eD5lwfqVi8hvjPBoLKRiHNthFI3ffHbdcDVJhwRvuFo+G5H9PzOE9sGVEPjzw/AwTwJ6z4RIeTCg7Dkn2jMHNgGVQo9vvyRlYajCEJW0FPnKgQUAi8dAoYmCMnJSdi2cCIKipwfKUlC6l7k/4iNjYOZyAXyMDEW90SyrrM+vqjfrjfeHTT6hcQ7dwgC0EAM9u/VsEO9V1MJAgf9rp/uxioxAHdedRlmwhNwfMyTBOGPfmUw5nQSNrxXU68HgeXUF7P+0xMapBIEscSQfmlC+7xs8V4E1qmHYWaB6L4jFE3rOOOLdjZoOfeirA+POzWpCRp+eUx+fmPWn/CNScLGqR0xev7eNILAJYax88SxMztSvcAgpgiCQWBUhSgEFAIvCwKGJAhX/bzhs+tbkT20BKzFDrMUE1MkJSci7mEMzKytEBMbLf6ORWhEGDwuemPPOU/4+fy7mP4CAZ4TBCE74dL1IOi7Tq85fyPI1AYnx2as8ZOd9fuvZRsVQThxNQLdllxEpEipbCxGIjavrzMGtyn5zCoxpTBFjZixz9HR8ZnHP+0AZkW8fPkyrl27lpYCOEsFqpMVAgoBgyBgKIJwxc8Xm5Z9htp13ZCcmILStgVE7rdEJFNgRmSXvRUWgQSxMz0pPgYFLU3g4+uHldt3ITo+DgG+LxZJyOsEwSANywgLMRqC4DL+JILD440QokdVil7RPMP6UWCIxICaA4a2gwcPyrSk6cVVDH0dVZ5CQCHwbAQMQRCYsMjRyQL9u/YRejNFYW1jBfvCdijnUBSRMdG4KHRIhMYtouMSERGXhKgHoWjj1hCfLVqIB0nxKOnohL8PeuqtLNO9U5yOac6pz5KRMSU7j6HGSM2aNXHv3j156K1bt54NQgZHMF09EzJpQmvpD8tICVURhP8MebaeaBQEwXHoUcQkiLSIecD0kYRDhw6l5fbPrlugVgRVCJ8ml5xd11blKgQUAo8QMARB6DukMo5v98fOr5aI9LXhYs04EWaCElhaFEB8QhxMhbptdEI8kkXIXUGbAkgwN4Op8Cxs3b8Xmw8cFZF4yUIIzhMli5d54tGQIHCiUqhQIanzQl0Wao0wkyH7EYrBUculV69e6Nu3b5r0+bvvvisVX6nXQmE3quBSk4S6CRQl48BPBVPqjlDnJiMj+aEgGoXYqJFCrRJqrlDfhhorTP2c3hRBMM43LNcJwm3hNaggvAd5xWZ0L4fRHUs/Vl3KL/Ply24bNWqUFIFSphBQCOQeAoYgCO37FUfz8vVhcv0hqlarhwP79gsl0y4oUswJUWIADvILQIKQtz986jicbK3Qum0bWBW2x/F/zuHrn39HlPk9lHW1wrEN4XoJAj0IlHKnyixJAYkANRBIGijhTil5SpJTrI0eBJpGEEgwqFBLRdpJkyZJZUgqqlLBlKJpJBj79++X53ByRO8pl1Y10wThKJZGITuq4lInhZLpyoOQe+32v1w51wmC4zDhPYh/uvdgVf9K6OdWFAUHH0m7x91jauKD1b64ERYHW2tTbPqoGjou0O9y+y/AZHQOd4dGfvNoqYEuPDc3N72H88WgyiRVCGlUbKRIyX81snKqPOrLZf5fy1TnKQQUAs+HQFYJwiX/M/jAvRE+6TARLvnKCHn7mFTdOQtzpAil05gooWYqIhuiY2KRzxxCD8USKeZWsBAiOTdvB+PHrZthWiwavgm3cPrHVEVbXdP1IHDGv3nzZpl5lgqq3BvF/oOS8NSx4SCeniDQa9CjRw8pj65LEChjzvPYn2XkQdi5c6dUnqVpEvbsB5npr3///lKddtmyZU/UOb0HobdQqL0r+jtluY9AP0E0B7VvLyuS41oM+Qcd1ovA7F7lMax9qoTv6sPB6FzLHuXHPfI0RH3TDIF3Y1FjymlsGFQFr9dxQAEdApGdsOouM1AueuzYsXovN2vWLHDjoru7u1RWI8seOXJklqpGKWYbG5sslaFOVggoBP47AlklCIMndoF/whms7LMciDVDkthzkCgIQT6hRBodEY34uGgZ7mhtIyYDpoI0iMgGmJnAJCUO5z3Py+P9En2w+ZwHTv96B/ltUj0AOWX0Tpw6dcqgl0tPEAxauCrMYAgYDUHgHfkLlu0slh84IJcadRxhMYlpN0qCcC8qEWXHnsCthY2lF4EE4fbixvjfci9MeLU0mlayg7MgFdYW+XBgQm289503DvqE43/CG/FGo6IYtNYX3l82RM+ll/Db0OqwF96MoPmN8fEPfmhdtRCGit/6TJcgTJ06FWTW+owEob1gXvQi8BgnJycZkUBmTRlWEguNNCxatEj+f4FgzjNmzMC0adP0lsk1xezYCGmwFqQKUgi84AhklSDUaGeHso0KYmm7+UgU+7KjQkLgWNYJMdGJiI9NRIKIYIq4exuFC9nBrEBhmJhZyD0HUZHBuOzjiRLWhfH5vqXwvx8Dz50hYnOjQ44gTnXXDRs2yGUDQ3sxSRBCBA45sVSbI2C9oBcJDQmGtXUOyj1n5EHQ8PWcWR/OjtZIfxwJQiexpPBe8+LY43kf371fWRKEsK+bIkrs+g0XZIIEYOcoVzScfgbjOpVBv0aOaDv3Auid2O0Zhsu3orFuYFUUHnIEAXMbifIu4NjkuiKMKEl6J5p/8c8zCcLKlSvlel1GBGHy5Mly4w8jEOj6I0HQvA6rV6+WbrfFixeD+wv4neYd0LfXgJt/uJanq6P+grZDdVsKAaNFIKsEoUX3GjB3iMeSDuOQkvwQ8THxIt9BIlIS4xAs+oio8Ag4FHMQ+xGKoWCRYjAXHoJEcVxM9H2xofE2LEVI5EiP7xFxLQ4Xdt1AIbsiRotVZivGvo2Tn9DQUMQJbysEYcjrFhn5AKZiyehFsHziPjg2Odrbw0Ik9NI1k8iIMLlE9jwWn5CIIkWezWxH/ngFqw4GZ1i0uUgecvmLBqg44XGXFgkCCQFn8yQP2ufwZU1x60E8/rochm51HcRuYBO0n3sem4dUR6kilmg84xz2jXeV3ohxP/tLYhEl8i6YCxdemdEnxP6CZgi6H4dZ269j/fE7T9SrqK25IBOP9hyQ9RYtWvSpBEHbmLNixQpJArgGxx3B9gJsLjmQDJAg8HuSCG4g4lpdemNYEsMdlSkEFAK5h0BWCcKCrz7HrqNrMb3Tx7BIScT9eBMRqVAECXFx8icsOhK2hW1gZRIvVAPFJgRzS0EQ4pGYmAArU2skW5mi+5oJwpNohfNrxIzO6vEZXe4hk7UrM/dLnLj/RLFfwUCJALNWoSye/eDBPTGuZE5sKYuXyoHTTUQEnamcnKb3HmUrQUhOTkHBjx5tPtR3pzZiieBZGxmzilDE8mawfUY9eI3Qr5rAxuJxVsjlgIyWBLJaL93zN23ahD59+hiySFWWQkAh8JwIZJUg3Am5gaFTWuPNej1Q1LIgfP3EcgJs4FSpLEIDgsRMOhKFxZJDbHIMihQqIGah+ZAiEibFi+yKq3f9ilOx3ohnSiWx7HBt26NlV+02wkRqZk4matSoIaMWNPPy8pKfOQF5HqMHtEKFCnIzY61atZ566s2bN1Gy5LOTyqUvhEpfjQwAAAA8SURBVOSAIdz0JDDyghshORhx6YEhkvzRtR07dsi8M5otX748w9wLz3Ovhjw2LOzuC0QQUpFJ/xz4v/8D/oufKRvmYnMAAAAASUVORK5CYII=;" vertex="1" parent="WIyWlLk6GJQsqaUBKTNV-1">
          <mxGeometry x="50" y="-200" width="660" height="261.46" as="geometry" />
        </mxCell>
        <mxCell id="OAiTxJ_8k9dRIG4-UQdj-4" value="" style="shape=image;verticalLabelPosition=bottom;labelBackgroundColor=default;verticalAlign=top;aspect=fixed;imageAspect=0;image=data:image/png,iVBORw0KGgoAAAANSUhEUgAAAZMAAANACAYAAADuKYDJAAAgAElEQVR4Xuy9CXwUVdb+/ySEEGMCYR2DLIksYREEBFGiOOCC4Ai4EBURFdwQNQz+QOcV8BXwHYS/DkERN9BB3IILoIOgCCMYEImCILsaECQIBAMJMYSQ/E/1WtXpTncnvVRVP/358JkxXXXvuc+5db917rn3dlR+fn5lnTp10LRpU/BDBagAFaACVECtwPbt25HWoQOi5I/R0dGIilL+X9VP1IEDByrr1q2Lv/zlL1SQClABKkAFqIBGgR9++AEdBCZ1YmIQLSBRYOIOKFH79++vrBsbi+TzzqOEVIAKUAEqQAU0CmzevNkKE5nBUiIT5X/dwuTnvLzKOIFJ8+bNKSEVoAJUgApQAY0C327ahI4CkxiJTJTAo44ARfm4AiXqp59+qoyVC1q2bEkJqQAVoAJUgApoFPhm40YLTBROKECxRyZVYLJ7z57KenJR69atKSEVoAJUgApQAY0COTk56NixI+rVqwclv26f7qoCk127dlXWi4tDCmHCLkQFqAAVoAIuCnwtMOkgMFHSIUp0Ui1M4gQmjEzYh6gAFaACVMBVgXVff22JTOIkMqkWJjslMlEuSklJ8ari7OXL8cXWrSg5fdrrtbyAClABKkAF9KlAvIz513TtinGDBnk1cK3ApJMyzWWLTJS8ibv9JlG+wkQByVLJ6vNDBagAFaAC5lBgSK9eXoGiwKSzwESJSuxJ+FrB5PoZMxiRmKP/sBVUgApQAYsCSoTynyeeqFaNdZIz6WRbzRUQmPR7+mnKTwWoABWgAiZTYM1TT4UXJt4MMJnepm8OXxZM7+IaNZDPeY1k0/VNrs+6Nx8HPTLxZoCu1aRxVRQgTNgp3CnA59x8/YIwMZ9PddOisxUVuO7//g/lZ8/qxiYaEn4FYuQMpi8mTQq/IbQgoAoQJgGVk4W5KjB45kwU/fknhaECDgUSzzkHyyZOpCImU4AwMZlD9dackS++iAMFBXozi/aEUYGWjRtj4cMPh9ECVh0MBQiTYKjKMh0KjHvzTfywfz8VoQIOBS6SI5Zm3303FTGZAoSJyRyqt+bMWLIEK+VHcPihAnYFBlx0EZ4YOpSCmEwBwsRkDtVbcxauXYs31qzRm1m0J4wK3NOvH0b27RtGC1h1MBQgTIKhKst0KPDfHTvw9OLFVEQHCkwY8xQGNbMZcmQz+s1bFharnho2DH/t1CksdbPS4ClAmARPW5YsCijJ99Evv4wz5eUh0SPjrscxJiXOx7pKsfmLZzF+vY+X+3TZYLz5VHe4/RWfinIUHz+AVRuXISu30KfSAnfRZXj+8WvR3SbN8T0f4eZ3twWueB9LqiuH+c1/8EEoSXh+zKUAYWIuf+qyNaFLwidh0iOZuKqRrzIcw/Kn52KWr5f7cl2fkfjkmlQkVHutArFXBGIhBMoFGXjnzo5ItthVju1rn8HDYZh9ZPLdl05kzGsIE2P6zVBWv/LFF3hvfUBf/z20vz9e/McV6BzrozwleciatRBLfLzcl8u6D8vE852SvF96fBvGv/ARNnu/MjBXDHgAay49z1ZWIb58IQvTjwemaH9Kua1PHzxwzTX+3MJrDaIAYWIQRxnZzJzduzHpvffC0AQtXEIxtTPmgaeQYR+zi/di1nPvYLm0vF23m/Dk9V3QOsYmQ2ke5j27ENkhUmXonY8j8wLbHJfYNV3s+jJEdaurmX7bbUhPSwtDzawy2AoQJsFWmOXjVGkpHnvrLew+dCi0anQdjg9vbAfrrJfL1M6QsVjTrYnVnrKDyP4kH90H9kK7ePnPQxsw4LUiTY4hf8dCDF+cZ71eU64679ILz08YhO5ShvIp3vc5bvj3BlubXabgqgzo52HoDddiaIeWSI6LQWy07TbJs5SVlSJfybV8lo1FB4EqYHj3AK4Z1ge9k2ywKCvE5tzlGP/FXofe6uR72cF1GDB/tXyXhIy7HlDlmMqxf0s27l7qvC+QDktr3hzP3XknzpVfYOXHfAoQJubzqS5bpCwPVpYJh/RzgwCjhw0Y0E7taAbk0kLkRych2TY9ZgHHd71UOQaXRL2mXFXepdFNeOeRLlXyEskp3TEovS8y2ibBPgOXv+MdgZNt0G4/CK/eKCCrboytOIzsaa9gngioiX5OHsP++CbOiMcucLlc/4z1ekCbfM/fmoXhHwNX3XgHJnZtYrMpuCBRrFCWAyvLgvkxpwKEiTn9qrtW7fztN/zjnXdwoqQkZLZpVna55Ec0y2Q1FtnAkajOMWgT9Zpy1RFGv9FY2beFAxieGlp8eBOmv7IcG5ULGl2LV8dchnb26S9PNxXuxPisbMmxdMGMx25C7+oz/FKKtOMzWan2rfxfTfLd+vf3k8diqkRmVrgJSLYuwz8+3ob8IHmnQXw8/jl8ODqef36QamCx4VaAMAm3ByKo/uc+/RSffvddiFqciqmZI3GFPRd+eAP6vfK5rW7tdJQymB7/aQOmf7Yah+vLSqx9eeiszjE4BnLldu1g7pwykjf92x/DpPYeRnllWfDJw9i89VvMW+MctEfc8yRGt7KTROzYtxnzv1qP5fsKNRGIc8rMdemxcs8mvPTJ5yi+5jHM6GCvvxDr3srClF/EZHXyXSKcJV/+iasdK87k/j2r8fC7G4IGEkW1v118MR77299C5HtWEw4FCJNwqB6hdW766Sf87wcfhOhnmuWNf7K88dtyD5qch2Y6SkmZrMPdkkNwvpVr8xva3Id2MLdOGVmX+HqOdqwOP/7L53j4LfWgrbVRqed+ybFY7dAuHtj//dO4+xP58yWy9Higc+mxxnb19JvkgRb9cz7myy2aKb0SmdKLlSk9G7+0dQanYyo/4fq/t9yCXm3bBqcClqoLBQgTXbghcoyY/Z//YGlubvAbrBl0XXIemumoYmxc+hye2KI2ycNALpckX/MA3uxznm16SDWV5JKXsKwcWwlMun0wrmpijzwkbyPRwnQlWlA+GjtUkYTyXV+ZMutnnzITGz8WG7dK/Tdm4p2u9nBLW55m+k2WHg+Xpcf5kmRX770pLi5GQoItelGilLmvICvIS4SH9OyJcddfH3yfs4awKkCYhFX+yKt8+4ED+Kcc/vjb8eCOYNpBV5vz0OwFcbdEV7NayzmQA90lXzHYma9QJcW1eQnVyjFNWYA6koF6RZnGjiRkPpCJofYlxqooY/ToJzGihT2sUC/x1U7rFf+yHDe8talqhLNlNYo79XfsxTn+0zLc/Hbwdruc36gR/nHjjejcokXkdfYIazFhEmEO10Nz3/76a7z+ZXB3OWhWPGlyHi6roY7JGVVzXc6o0mzws+1W39cOU2++Flc0UmXK1cl3l02BjnyFy3QV1LkbNUwkYb59zb/x8I/nYPTAm2TlV4Izke+IMjznawDtlNneb57G/RIZVVnGLMn3Ve0ewwQp3/JRQPWKTIcFie33XnUV7rj8cj10O9oQZAUIkyALzOKrKlAoK7r+Jcn4tTt3Bkme6vZ7uHzneINXmaIZ5D2bqE6+a5caqzckuuwvUa8qu1TyHwO8Hb2i3q/iOV+jzaWopszUeRR7JHWBLGG+076EWaKlH2Up9Ie2PTQB9Ejfjh3xd0m6J8lKLn7MrwBhYn4f67KF3+flYc5nn2H/0aOBt88lwe5IXis1uXzneINXW+EyNeX4qlj2dMTIno4qhyW6AMPlRF4NaDT7XVymzWwVlR3Lw/6EVMe+E8fiAc25X+rpN5dcimrKTJNHcURoSZgwNhOD7FtwJDqZL8n6RQH0ROumTfHowIHokZoawFJZlJ4VIEz07B2T2/aJLBNWgFJ+9mxgW+qaYLclry2VVJf0dliRhKGyoW/0hU2QYFsNVnxkG+a/X4xBY50rxPZvkRVWS5WbvBzbopkCc9mJLxsWX7y+OzrXl+kzZfnwsZ1STzmGPuI8edhejybXo8qjKBZopvUcMHPJo6h25CcPfADvXGJPygB7v83C/Z8F5uDJmDp1LCC5QZYD8xM5ChAmkeNrXbY0LDvjdamEeYziTnfz+NKflhAm/qjFawOuwOkzZ/DqqlX46FtlqzY/Rlfgpksuwf1XX416desavSm0308FCBM/BePlgVfgWFER/v3VVyHcHR/4NrBE6y73u668Ek0SEylHBCpAmESg0/XY5OOymW6hACUkGxr1KIDBbVI2Jo4UkDSyb4g0eHtovv8KECb+a8Y7gqSAcgik8iNa2fKvorIySLWw2EAqEB0VhQz5wSvlR6+Uwxz5iVwFCJPI9b1uW754wwa8L0ApkGiFH/0q0FiikFsFIsMuu0y/RtKykClAmIRMalbkjwLrZEPjx5s2YbPsR+FHfwp0l/0jN/bqhStkYyI/VEBRgDBhP9CtAsqGxk+//97yr7SsTLd2RpJhcbGx+FuPHpZ/ysZEfqiAXQHChH1B9wqs2b4dK3/4ARv3BufnZHUvgE4M7N2uHQZcdBH6de6sE4tohp4UIEz05A3a4lGBIvkd+VVbt2L1jz/iRzl5mJ/QKXBhy5YWgFwjIEnk77eHTniD1USYGMxhkW5ugexJWbdrF3LkX+4v9h8GiXRVgtP+nhdcgPQOHXCF/GvMvSPBEdlEpRImJnJmJDXljJznpUx7bfr5Z3wvUDkY5N9HiRRtW8jvj/QQiPRq0wbKtFZdOWeLHyrgiwKEiS8q8RpdK3DkxAnsOHgQ2+Xfrt9+w978fJwuL9e1zXoxrl5MDNolJ6PD+edbfsCqk/xr1qCBXsyjHQZSgDAxkLNoqm8KHCgosBxtr/zvIYlYjpw8iaPy7+Sff6JI/p0R0ETKlsgokayuACPxnHNQX/41rV8fzeRfc4lAWjZubFmRpfwvP1SgtgoQJrVVkPdTASpABagA95mwD1ABKkAFqEDtFWBkUnsNWQIVoAJUIOIVCBpMVn6xqrJZ0yboJmvTq/v4a0DEe4wCUAEqQAV0qIC/Y/l7iz9AW1k5WFd++0b5V0dWDkZHRyNKDg9Vf6J27tpVGVevHlJSUggTHTqeJlEBKkAFAqmAvzBZl5ODTrKHKVaO6FH+xchCEcIkkB5hWVSAClABAypAmBjQaTSZClABKqA3BQgTvXmE9lABKkAFDKgAYWJAp9FkKkAFqIDeFCBM9OYR2kMFqAAVMKAChIkBnUaTqQAVoAJ6U4Aw0ZtHaA8VoAJUwIAKECYGdBpNpgJUgAroTQHCRG8eoT1UgApQAQMqQJgY0Gk0mQpQASqgNwUIE715hPZQASpABQyoAGFiQKfRZCpABaiA3hQgTPTmEdpDBagAFTCgAoSJAZ1Gk6kAFaACelOAMNGbRyLJnpI8rHh9Ht5a8TV2HymztHzE67l4CAvw4P97CVvL0jBkyixMvrq55butc3pi1EKbQCMXIPfRrvpTa8ts9Lx3kc2uEViQOw7erDy0fBLumbECBbG9MG5OFkZ0itVfu6qz6MhSZA6ahhzLNemYvDwLQ5oZqwm0tvYKECa119BAJWzF7J6jYB/qNIYnpSKtey8MuWU0Mno3Dn6bSsSWkWLLPm1VI15fidQFAzBtve3vfSZj5ZwhUCwKLUwKsPRRlR3eFLHb6TdMXHwSdkhW0+74xkjr0gvpg+/EnVenIbGOTRTCxFvviIjvCZOIcLO9kdXARKVDqgxob8tbfzDfjw99MAqDZ2yton6VyOTpOZjczwo3c8IE0EQmL0lk0j6Yynvr8L5BNLbvZHwwawiaK0AhTLyJGhHfEyYR4Wb/YALBSMbc/2Ji7+ANapue74kx71jtir1lJlZO6O980/XgE7PCRF9d0DeYKDZ3fWIZFtwiU5CEib5cGCZrCJMwCR+earWRiRIFjOsmlpwtw6Gc2cgcn408u2HD5yF3fK8gmakdsNKnrETWYO9Ta6GFSdWm+1S/39NcQZK4xsV68I30kYLdSzD1wZnIKbEV3nMylr0s0QlhUmO1zXQjYWImb3ptiweYWO4rQ86MPsj8wFaIpxzAxgwcmzUJ0z7YitP3LsD6B23p5aI85Hw8H4uW5WDTviJLIYkpyvz6KPz9jl5obJtfL1iWiQFTranaKh9bnb95SLR7G8wLNi7Cv157C6u3FEhrYtG4/eUYeNdojFbN75ftWIQJktzPOVIPvR59GVkj03yezvNWv6U9VWDyEBKXzca0OdnYWig2dRuKh/4xDkPa2KM+L2A9W4Tdq+Zj/mtLsdqiayJSe6djyMi/Y4Qqt1XFtrFNkDP3WUz9IAcFJXJPv9GYPGUEuiZ66yTV25P3/h0YNmu3rRDbAgM3MLn81wWYOuV10blM+kF/3PnE4xjVU/3CIC8wGz/Dkv+sQM6OXdhtaZvdZ2Pw0IBUp1/clD+waClmT5+N7G1FSOySgXGTbJrKoo6lc6bhpeVbLe3uess4TH50CFLjvbWb39dWAcKktgoa6n4/YNJ3OlY+fx0auwyOD43NwUtzbfGLLVlc9nM2JtyjemN11SRlCGbOmYz+MiMSHJiUST7lDlnp5YirNBakDp6Jl6f0r5rERway1k9Euo+zeTWByeQpeXhW4Gldq2b7xKdj+gdZuM6y4qmawfvsISydcAumrdXcbSskFl0ffQMv22CotW0ypu97FpNc7+syEYtfz0CqPXHutu/6AZP4UViw9iF0dRnsx01JxdKpi5xRrqWeVIx642081MUudvX5u1R5UXlbXlQsV7uUP3FqGhZPWaAtP/46zPz4IRQ9U1Wv2AEyjfqMTKMa6lk1nrGEifF8VguLfZ/maj72bSy7J83lTTsWsfFlKLNPcygweRCYfYusyjrkxSwZyJa9kQHrIt/qByxPg7anvxcsz8QNU6wDduqtWXh5fLqAowib5o7CGAtgnDkgR2RSnIj0e+dgVlAjExe9VBKlTViMt29NrUYLAeTLAsjXrfanT3gD02+RFVRn5c37iTtsgOmKiR8vQEZLl8UJ8VJvifipikua46F3lmFU++p85cc0lwzSa5RBWjPYe24zbsnC+ifSbRHHVix6citS7xuIXi0bI1YBXOEmzL53jG2FX39MXzUT1yW5wsRz+akpqcjb5+6FgsuVazFo+HwrYeKzVGa40LfVXFDe8pZNR3/lQdZEJjKsySqet2fItIG8MhYVynCVOxX9nlhhEycVGc9nYVx6cxkwXPMw6oEskDDZjQWD78BLFpipBiDlP/dl4w5J7lsmZQKQA/I/MhG4jZyHBWN7IbFEBsp77AOl2h4PWhStxqR+E2FRtvlDePvjUUizRRRl62eiz6PZFs17PbkM825srl3pJlHAiJcXYFzPRBTlzsaoB51RQvpUyU8Nqi4/5WsCPlXAtNgKJg1MrH3EstILLpGVPcfi7lEqKUJR8THkvPYgJn1cYLlixMuS0+tZtfzm4tM3ZMFGY1dNlXbPlXb3lnZvnI07xi4SC6wfR37QDI+xTttAmOjUMcExyweYxHfFQy+/jFH2jXMamDjfhO32qQfYWIlU1ms2EnqCRgBh4jKQedRNtV+lptr6DxPtNNqhj8dg8DObrNU77PGghQvEPdpsm2rU2KaJAGRAf3AwpuVaS/C+2MEXmKRiyIwsx2ZSLUzSMPGDt5GRYrNYYNZTYGYb0jWbOAu2LcVbCxdh6Zo8iSOrfhy2anysLV+jqQZW6pcMwqSmfd6f+wgTf9Qy/LWeYKIkPi9Cr+tGYPSN6UhVTy57WZ2kHsTcDVTuv48UmGh3wGvyRcGEiWbjo78r5zzDJDElDb36ZmDEbUPQVb3DvbrVXB76j3pq0rKooFNzNJEFG6nFq5G91hpPuIeJdsrKvabK3dp2MDIJ/uBFmARfYx3VUF0C3oOZfsCk+YOSZ7lX8iyOj8tA5phiCRZMXKa5Aqy8/5FJgGDiMs3lrlmebasdTLxHMmKN3zBRRQ3xEr39RxZB2F5gdr8xGHfMJUwC3HVDUhxhEhKZ9VJJ4GFStHIi+j252tpAZYpMzpYa1U1GBtmXkLfqWUx8cqlt1Y16eiKAMDkrbeonCwBsiwJSB8tKprEDkdZYkjpiQ9GhH7D0P0UY+KB1NVdtPiGFiUtSu+u9WZg+sheaK0tcLXs+VuOtHc0x7hbr0mxDwaRgBTIHTLKe5SX5uekfTLesbCvak41J9zpXBTIyqU1vDf29hEnoNQ9jjYGHCUpyMPO6TGTbV3h5aJ12eWYAYSL17X5jmLzNul8WbDFHlS8J/T4T50GPfk1zSRZh9ZMDMHGlu2XBNpFV01mGgslZWYzQWxYjVOkr2pVahEkYh4oaVE2Y1EA0494SBJiIGGU75JTfB+WUXw9AiW0/Ci+/LvsRHBvHAgsTlMi0yaP34KUtHgZeT4dFwrdTfe3+DmlkolR6aDWmPToRS/d56HFGhYms9HMue3a2LVb2Nj2eIhtibSdDEybGGmkIE2P5q5bWBgcmFqOKdmPFG/NVx8nbdjPfNgJ3Xt/VsQPe2oAAw0Qp8mwBtv7nLSx67zN8vUfZAS9LVJul4fK+QzBsVAZ62RLGZXtkB/w42QEfkn0mtciZ2D1dcgg5H7xU9WSBq4fgzjuuQ5ot12CoyMTmr01vPIuZ761GXqFzp3rR686fGSBMavm4h/h2wiTEgrM6KkAFqIAZFSBMzOhVtokKUAEqEGIFCJMQC87qqAAVoAJmVIAwMaNX2SYqQAWoQIgVIExCLDirowJUgAqYUQHCxIxeZZuoABWgAiFWgDAJseCsjgpQASpgRgUIEzN6lW2iAlSACoRYAcIkxIKzOipABaiAGRUgTMzoVbaJClABKhBiBQiTEAvO6qgAFaACZlSAMDGjV9kmKkAFqECIFSBMQiw4q6MCVIAKmFEBwsSMXmWbqAAVoAIhVoAwCbHgrI4KUAEqYEYFCBMzepVtogJUgAqEWAHCJMSCszoqQAWogBkVIEzM6FW2iQpQASoQYgVMBRPXxoRYS1ZHBaoosOapp9yq8vXXX1MtKqArBS6//PJa2UOY1Eo+3kwFqleAMGEPMYoCOodJKVJSLqpWS39pVl1hjEyM0m0jx07CJHJ8bfSW6hsmKERKWm/CxOi9jPbXWAHCpMbS8cYQK6BrmEQX7kH73jcQJiHuFKxOPwoQJvrxBS2pXgEdwyS38sTeH9D7b6MIE/biiFWAMIlY1xuu4TqGyarKwzn78ddRhInhehUNDpgChEnApGRBQVZAvzBZ9Vrl+v1tMWrUXxmZBLkTsHj9KkCY6Nc3tEyrgG5h8sWrt1f+mpyJUX9jAp6dNnIVIEwi1/dGa7luYZI9/fbKuKv/Fzf0bs/IxGi9ivYGTAHCJGBSsqAgK6BbmDx9+9TKAU/did5pKYRJkDsBi9evAoSJfn1DywwyzXXb7a9VPvF/V+OiFMKEnTZyFSBMItf3Rmu5biOT215dVfnPa9rIDnjCxGidivYGTgHCJHBasqTgKqBbmLy6alflNW3qESbB9T9L17kChInOHUTzHAroFibZ3+6q7NWUMGFfjWwFCJPI9r+RWq9bmOzctasyrh5hYqTORFsDrwBhEnhNWWJwFCBMVLry1ODgdDKWWnMFCJOaa8c7Q6sAYUKYhLbHsTa/FCBM/JKLF4dRAcKEMAlj92PV3hQgTLwpxO/1ogBhQpjopS/SDjcKECbsFkZRgDAhTIzSVyPSTsIkIt1uyEYTJoSJITtupBhNmESKp43fTsKEMDF+LzZxCwgTEzvXZE0jTAgTk3XpYDZnMN58qjta26oo3vc5bvj3hmBWCMKklvKe3I3XNh3Er7Ziene8Cn9rXssyebtbBQiTIMBkwtinMKiJi96leZj37EJku3VDEjIfyMTQ8/y5p6Y9+jI8//i16B7nvL/4FxkU33I/KGracmwz+s1dVtOKLfclp1yGjPRO6N08CYfXPYfx39SquBDfTJgETfCSY9i6fx9yjxbhwJkKlCsVRUWjYWw8urZog0tbNkFCHQ+1ny1Ffv5+/HDoCNDiClynhgVhEjSXuRZMmIQKJvJ4bF/zDB5e68a3jWSQesT5xuu4oloA1bSPVIUJUIyNS5/DE1uqlhlQmNwwFmt62Clbis0rnyVMvLjR9JFJZSnytn+Hhb+XWgHi6RMVj+u6Xoz0JrHaK4r34rWNv3qOPAiTmg4Uft9HmIQMJkDZr6sx4I11VZyUPGQs3unmGsrIZSGDidQlD+Ws597BchfrAgoTaecaRzsJE1+eVnPDpAx5mzdgwfFqMeKUKSoGvTtcJtNUKqB4g4W3731xAq/xSQHCJMgwKS4pRUK8bU6p7CDm/3M+Fmlck4pJj4zEVY2UP5ajrCwGsfZnJZQwkdqP71mGm9/drLGOMFHLwWkun0YVHy8q/mUDnssrcUYkUXFIb38hrk5ugBhlSkuZ+tq7Ex8fK3NeU6chRl3eA6kxtkq8wcLb9z7aysu8K0CYBBsmhw+j7LzzYGGFMtW1Vqa61qgqveAmvHNnFyQrfyo9hv1ogtb2fIYFJnno+4/+6Ox4GSvEl29lYfovasNHY2XfFrBfsvebp3H/Sk/Od5nmqpDrou3XFmLdu1mYssd5rzeYJF94LTKv7I7ujeIQayunTAaBzVvXImvlNuQrRV06Ep8MSEWCJ5NKD2BncUt0tAdnAt1FAt35tutdI7f93z+Nuz+xfdlHyr7GXrbYL9pMsWnT7pKbkHlZO7Sr77QN5aU4fiQPyzd8jvk/FqosqgqK+/em4rkr2iFZ/GFNtjf1mIBPHvAA3rz0PIcPLFHla5IjO+79IazuCtNGJpWHseKr7cg5a2u9gORvF6ejdwNXNapGL02b98CjHf/Ep1/uxEaP4gl0rhLouINJoyPYuH03Vp0oQ2klkHBuQwxM64auDR0PgrPUooNYtTMP3xWXoViuVfI4yQnNcHXHjmif6Lz+j905eP5gqe0+pe4LUefH7/DukRK5z2aL8oj/sQ9f7z2ArafK8Ify7Mknpk4MWjZqh+Fdm0OVyqxdxwnD3bqFyeYtWyoTzj0Xbdu2rVYW18MZPT18vmgbqIMetQPwXmyMa4fe9lsMlqcAACAASURBVJH08Ab0e+Vzhzndb87E8xcmWf677Ndt2N6sizM5botMiu94DBPaOofi/VuycPdS50A4evSTGNHC9qrmNvpRt94FJscPYntCCyesCnfiiaxsx0NaHUx6y7TVVJm2cpnFdlSmDMD3y2qnfK8wycOyXxpicCerDpYczseSw9lq/S9N+xSdDq7DgPmrLd91Hyb62e+TqbrpMlX3JdphzD2DkdHKI76Uxxp7v/0I93+211anC0wO5qHgvFS0tslaLUwaXYtXx1yGdva3ZSl78xevYPx6Nax86YFVrzEtTA59j6d3/uGIOBr+5SKMv9DNVK8iyamfseCbfcizyxPXAuPTE5FTE5i06QjsFwi5zqwpMOspMKvv9MEfezdgzq+qyEnjHply6+iccnOFyd9a/YkVv9rzQFaYJFVXnqVNaWhYs26ii7tCDZNVq1ejQ/v2MpMTi7p16yImJgbR0dGIiorS6BG1fsOGyqQGDdBR3gCq++gfJpsxq7CdEwYVh5E97RXMszQqFVMzR+IKyxiqJOhXo+wy1Uor+zSXOnpRLpVVVcNlVZXlrR9X4EVV5OJ9uaoLTJSydsgbtyqyyd/xDoYvtg6ynmCSLBHBq46IoBz5uz7HU+/vRUK/wZja1x4p2BYdlHmLTOQt/rNy3HpjO1sEJ8+7I/pws2DAAQ1gzANPIcO2Cs7e9t4CmBkOMFXXe9R5Gy1MXO/yDJOdAruxTpjLje6mC2v6tJsVJkd3fIU5+fYRPRrpXfrhumaeVJKXi5yN+NT+4i9D7qirzsP2GsAkRsaZciXCcPOJkxe5J7tYjSgV2GUJ7IqV/xDQXN3lYlzZNBbFB7dg7m773xvg9r490UleIrQwkWhDU4/Ye2UT5K7di622uhMapWFs1xZIiC5H6YnD+Hp/OS6+KIUwUfnFW2Dw6fLlSGvXzgISBSh16tRxD5PvvttUmZiQiHbt0wwPk37rEvChaqDc+22WvBHLW+sFGTLF1dE2xaVMae3Fpeplu46cicvSYQHSkrmvIEuZQtG89XteleUUsSpM+s1dqx0QK2Qq7X2ZSpPpLvcwUed5pGSXaEY9wEMdiVWbgO8vULzCESE5oOjQSJ1POoblL8zFrONdMOOxm2xRn30KUaKEyRIlOGYgSrH928+R9dlm7G3eDqMFdhkS5TmiqcObMPyV5QLmqjApPrhJILccyw+dh+4pAp59fatMc93/aycNiMsEzlME9J6nX/zDillhkrf5S0m827WQqKCXNipwVcnj9d5yIi7fO8EQh9Kj2/HW1sOOlWCIb4XHZVo0AX8gZ933WFFmtaJpskyrdbLHDKXYujEHiy2UAdqnpuPOC+KqwAQxDTCsm0ydNRDSlAs0S37W7He5uMNVGHq+f31B71eHOjL5/IuVtsikrgAlViKTSIDJ3G2qCES6hG0A63T7Y5jU3joVYx08od0Dok7A95W8SL+qeZGMux7HmBTbTKvqjd1zx3MHE9k70kgG8wecgzmOb8MTL3yEvuo9M/Z9Jo0kz/OILc8jFR3f85Ek7rc5qtTYpG6Dl9VcGggJoMbLdNthx0q3Quw/loTWlpkQOzhUALBHfJocitj2kywqeFu9qKAdpv59OK6wT2c48jMuMHE7XeiaV9mGveeppiXLBXKLBXKqnFNtBwDCxKpgFZj0Fvgoj46fMGkoYBjvAQywTzWd2I2Xcg/aIv+qUZPGlkYdMa178yow6dr+Sgxr6Zj3tKyWVC9hVqB28fmt0btlcyTHu8nV1LbjhOF+wkQlenByJtaNfurcCCyRxXok32N/q7ZHFC4DvWY1V3d5Cx/sknsp0sAn/8eFGP6hY2bZQ3fyABO5OrnfaO1019Z3sLn5cOcGTDtMvOVA1DX7ARNNot0GB9insUrykH2wKTJs8LUALK+7M7Fvn/rTAMvNggexTQM7CACeFgC4RiZHxG/zXDdougBHs3ihHHu/mSsLH2qfJ1HLZ1aY/LptDV47YstAywqQ6qe5SrBxwwZ8WmJXxpnQ9hcmrjvgNWCww0SmuCbLFJdPH7cwkUjLDjtHIZ6XQcfFN8GwLhfB1rV9qlaPFxEmIYIJXPIee7fsREI32xSXY49HdTCRZLMqWS9ZaCz67E8MGmLPM9infrx1M88wAZIkBzFWchC2Nyp5095fLKvL7HnxIMNEM+1nScKvR+xAaw7JknTf2cK5cksip/sPtsSrXa3G5e8QkC4WkLpGP1/Ixsj1Wk20CX33MHGfe3KJTIqLEZugmjJzme7z5glfvjcrTMp/zcXTe084JLCu0PKQfnZNwCek4Mnebawrn/yMTEIDExXs1E6WDZr5e37E4t9O4Khr3kY2ZQ7rfRm6nutLr9DnNYRJqGAiA/WEsZmOt3z1/hPnVEz1MEGjQXh1bC9bPkBWIx0uR7vzbCuWHHP/3jpadTCRe6usTFKVZ4dJ1+GaHJD3pL+tDK8DvToHIkn4XXuR2MEKS+tyZ1U+RGC68ch56G1ZxaZa/SXRlXqZdNVpLpcIzxE5+bKHpOo1y+P6O+ErlgQy+a6oZlaYoPxXLFYlpJVpH1+XBqfKkTyj2sRbO5ULTKrkIrzAxm1kcmQbntl2RNbkWT++nOdVdWmwLEv29ChWlqNYVlF+89N+5BSXO1a0tWp1Ge5rZ2uXt8dYh98TJiGDiUwjDXwA71ziegCXehmsF5iIrSPueRKjW6nmYm32V7+3RN3zvMBELq2yZ8J+u+NsLtcVVqXYv3U95m1ch42H5GJJdA/t2B1DO8Rg+dx3nOeRaWAiCJATAcbLiQD2xblKNeopKCdwZUHAC7Ig4Lh69Vsxjp9MQCMl96GZDqwuAd8dmdf0x6AUZzThPJWgZjC5YZ2shLtdjsJRLwsO4DExpoWJuO3ojnWyosuW5VacL2/nV3bshL82s25aLD91BN/t2IkVJ50DLmKa4b6+XdDKvvrTBRZxDdPwWPcWiPPwvU+RSeUhfLpGlg/bo4eYBPytYxdc3DTeskoL5WU4evRnrDreELd3tj7PfsHE8TieQM7XuVhx2vqHVi1647606paz65AgKpMIkxDCRBtZ2CrWJM29wwTdJCpwTG3ZyvC6t8Q/mFSZ7qoCE3lb82X5resOfpeowWGV+jp316g0ukq1aMF+v3rfifK3QXLNBF8moDUJ8xrCRPbRdJczx2bImWOOFWKS35k3v/YbFpW2mBkmqDyBjd/kqnIhXgZLd9GLEuF8JUtuq9xazaZF1UGQbiMTd6BzZ5otX+ITTA79gJd+j8PA1FS0bCArj6IqUHxkN9798RB+tUHLlwhIzzghTEIJE6lLs2JJ/tsx12+xwweYSPDsPH7FarzP00zu6vB0EvAFMrhq3rjlZs217eSk45vkpONq9uxWOQ5G2jdBciCukXy1kYVL+9zApmpU5oNtFcXY/OV81cbCmsMEsklywtgMmcJ0RoyODZu1fPpNDRNFm8oS7Ni8CYv/UEUfbjSLqdsQw3r0QKcqL+7lyPshBwuOue5CrB1MFNBtzd2CxRIVefz4BZPqk/oJUlamrArjDnin2t72mUTo0mDVqiDNYKg9/sM3mABD73wcmbK23YYSjyf+un8IvE9z2e+r8sZdBTxJuKrftbi1m+wUT3A5suR4Pr757nPM+vaw1oz212LGNdrjV7TTVOqpLOutWli47gfxtPDAs235h/Yie+VHWKJMyTk+tYGJFNJelkvfKsulVftbArEL3vQwselffuIQvvtFcggnSvCH44gV5eiSRri4ZQouPk+mvrQbm52uEyDt2b4NK44W46h9gZhlY6OH41R8iEyshVfgj/y9+Gr/YWwvkc2F9g2HdeNxQdNk/DU1BU1tj6HXaS45RmWJHKPyS4kco6JqX8P4Bkhv3R69k407vWV3BCMT1XASqKXBtXwZ9XK7dse7sn7deoQIP2ZUIFJgYkbfRVqbCBMjwaRRF4y5cRAyWjiD4f1bFso5Xd72lkRatzZPewkT8/jS7C0hTAwAE+0mO5XBHn6DxOydNpLaR5hEkreN3VbCxKgwCcLRHcbuyua0njAxp1/N2CrCxGgwqZANT8f24v0vs7EogGdAmbFzm6FNhIkZvBgZbSBMDACTyOiKbKU7BQgT9gujKECYECZG6asRaSdhEpFuN2SjCRPCxJAdN1KMJkwixdPGbydhQpgYvxebuAWEiYmda7KmESaEicm6tLmaQ5iYy59mbg1hQpiYuX8bvm2EieFdGDENIEwIk4jp7EZsKGFiRK9Fps2ECWESmT3fIK0mTAziKJoJwoQw4WOgYwUIEx07h6ZpFCBMCBM+EjpWgDDRsXNoGmHiqQ8Y4wh69uBIUoAwiSRvG7utjEwYmRi7B5vcesLE5A42UfMIE8LERN3ZfE0hTMznU7O2iDAhTMzat03RLsLEFG6MiEYQJoRJRHR0ozaSMDGq5yLPbsKEMIm8Xm+gFhMmBnJWhJtKmBAmEf4I6Lv5hIm+/UPrnAoQJoQJnwcdK0CY6Ng5NE2jgG5hkrN+XWXDpIbo2LFztS5z3Rvi6eHzxe/cZ+KLSrwmlAoQJqFUm3XVRgHdwuTL1V9UNm3cFF26XkSY1MbDvNfQChAmhnZfRBmvW5js3LWrMq5ePaSkpBAmEdUl2Vi1AoQJ+4NRFCBMmDMxSl+NSDsJk4h0uyEbTZgQJobsuJFiNGESKZ42fjsJE8LE+L3YxC0gTEzsXJM1jTAhTEzWpc3VHMLEXP40c2sIE8LEzP3b8G0jTAzvwohpAGFCmERMZzdiQwkTI3otMm0mTAiTyOz5Bmk1YWIQR9FM/f4GPPeZsHdSAYAwYS8wigKMTBiZGKWvRqSdhElEut2QjSZMCBNDdtxIMZowiRRPG7+dhAlhYvxebOIWECYmdq7JmkaYECYm69Lmag5hYi5/mrk1hAlhYub+bfi2ESaGd2HENIAwIUwiprMbsaGEiRG9Fpk2EyaESWT2fIO0mjAxiKNoJveZqPsAf2mRT4TeFCBM9OYR2uNJAUYmjEz4dOhYAcJEx86haRoFCBPChI+EjhUgTHTsHJpGmHjqA5zm4tOhNwUIE715hPZwmsuHPkCY+CASLwmpAoRJSOVmZbVQgNNcnOaq0n0mjH0Kg5r406tKsXnlsxj/jZt7hozFmm5+FYbifZ/jhn9v8McA015LmHhx7aHvMXnnH375v1WL3rgvLcHNPcXYmLMRn5b6U1xDjLqqB1L9ucWk1xImhAlhouOHmzAhTHTcPZkzYc6k+u7JyEQ/jy9hQpjopzdWbwkjE0YmjEx0/LQSJoSJjrsnIxNGJoxMjPKAEiaEiVH6KiMTRiZG6asRaSdhEpFuN2SjCRPCxJAdN1KMJkwixdPGbydhQpgYvxebuAWEiYmda7KmESaEicm6tLmaQ5iYy59mbg1hQpiYuX8bvm2EieFdGDENIEwIk4jp7EZsKGFiRK9Fps2ECWESmT3fIK0mTAziKJrJH8dS9wEe9MgnQm8KECZ68wjt8aQAIxNGJnw6dKwAYaJj59A0jQKECWHCR0LHChAmOnYOTSNMPPUBTnPx6dCbAoSJ3jxCezjN5UMfIEx8EImXhFQBwiSkcrOyWijAaS5Oc9Wi+/DWYCtAmARbYZYfKAUIE8IkUH2J5QRBAcIkCKKyyKAoQJgQJkHpWCw0MAoQJoHRkaUEXwHChDAJfi9jDTVWgDCpsXS8McQKECaESYi7HKvzRwHCxB+1eG04FSBMCJNw9j/W7UUBwoRdxCgKECaEiVH6akTaSZhEpNsN2WjChDAxZMeNFKMJk0jxtPHbSZgQJsbvxSZuAWFiYuearGmECWFisi5truYQJubyp5lbQ5gQJmbu34ZvG2FieBdGTAMIE8IkYjq7ERtKmBjRa5FpM2FCmERmzzdIqwkTgziKZvKXFtV9gKcG84nQmwKEid48Qns8KcDIhJEJnw4dK0CY6Ng5NE2jAGFCmPCR0LEChImOnUPTCBNPfUCf01zdkTkwDlmfbQhw12W5VkGDpUNg3GUsmMQh9YJk5P+Sh9LANN9RSlxqGyTn/4y8ABfMcgPnKEYmeo9Mug3HhwNi8P6zC5EdOL8DLNeqZrB0CJCvDAWTuDbo1qMBTn3/PfYGdNCPQ5vuPdCg+Ht8H9CCWW6AuqmlGMJE5zAZdMdjmHBBDDZ/8SzGfxM417Ncq5bB0iFQnjISTOIu6IYeyQkoPZIb2EHfAqlkJJz+Hbnf7Q1c1MNyA9VNCRNXJfU3zXUZnp9wCYr3laN7wlbc8Ma6ADmf5VqFDJYOAXKTFGMcmMSh3cXdEF9cjHMSz2BX7m4UBkiGuHY90O2cUyg+JxFndudid4AKZrkBcpCtGEYmeo5MLh2JT3oVY8rb5ci8rylWPTsfiwLhf5ZrVTFYOgTCR7YyDAOTuHbo0S0eR785hga9kwM46NsgdeQbHEu6FMllu5AbEJqw3AB2U0Ymeo9MMu56HEOL1+LLwnI06tAfrbc9i4fX1r4LsFyrhsHSofYecpZgFJhY3/KP4reT0ahITA7coG+H1G+FiK5MRPJ5AYp6WG4guylhom+YXIEXH++K/Sv/wKVXAW/tSMTo83YEYKqL5Vr9HiwdAvuMGgMmSUjr2QF1839HTKsGKNp3Bo3PL8eeAEx1JaX1RIfYfPwe0xoNTuThTJPzUb6n9lNdLDew/VQpjdNcYZzm6nxpBp68sh0aR7t3bOzJbZh1vB0mtAc2/mcnGg3ohdYV5W4vLivei7c+zkb2QYDlBleHwD+GnkvUDUwaSxK8zV8QX8e9rdEVJ5F3JAap5yeg+NDPMui3QYM6Fe4vPluC33/egp8LlK8bo023NvjLOTGeCsbJfQKplPORUJKPn8vk+gYxqKh0d3k5So78jC2WglmuVYfQfQiTMMJEqTr5wkF4+vruaHxwLZ54WxLs7bugVZzdqCRcf01/Sb4Dx39ZjZd+cGYei49tw0Z5u54xrC86l27G7MXL8eVxZ2NYrlWLYOkQqkdUNzBRGpzQEp07tkRi+e/4eefPKKrXGIn1nG9CSS3S8Jd4ua7kd+w+6OyrFaeLUHA6EW06CDTqFuHAzu04UKxWMAEtO3dCy8Qygcwu/FwUh8b168JRcoOWSFMKrhQI7T3gTOxXnEHRsVIktumANs1iUXRwB7ZrCma5oeqnSj2ESZhhYqm+US9MurU/rojJw/ycQvTtdxk6C0A8fYoPbcK8HxIw4qp2wE+f47HFm5Dv7mKWa1UlWDqE4EnVFUws7W2I1C7tkHzOaeT/egxxLVqjcZyH0Fqurij9AwcOlKBR62TUK83H3q15+MODbg1TLkS75HicPrwfx+JaonXjOCdQXO+pKMUfBw6gpGFrJMeJLT/9gDzVy5T6cpYbgo5KmGhFDu/S4CQMHXYXxrSVKa0v1yK/c39ktHIhijxAe7//HMtj+2B0hxhsz3kfT6w97KWnsFyrQMHSIbgPqv5gYm1vw5SL0K55PZw+tB9HzmmJ1CoDfwVK/ziAA6caoLXsPSmT6addPx/1vkekUSouamsFz/5jcWiZ0hiurLIDqkEr2XtyRqKkXT/jqLdNkiw3uB2VMNETTKy2tOs7HDOuaIn8dR/h+MXDcUV9p43Hd72Dj+Nuwp2NDuCt99/BokO+9w+WG1x9ffeEf1fqFSZKK+KatkEHyaPEHN+Lgvh2OD/BGaFUFP+G3acaIq1xhXXqyutor9IlrinadJQpsTp/YO+xc9CuRYIzQqkoxm+7T6FhWmNU/O4joOxFs1z/Op+fV3OaSyVYeCMTuyGyke5x2ai48gDaDumCZOXPSh5TeU4Ld2LWwWSMSfgWN/zb37O6WK5V4WDp4OeT5+PleoaJ4EQ2KvZA/LEDQPPWSFSS80piPEr+nZXciCwGSW5Wgi012LWuLDXuEV+AA5Xno3V96fz2cuVhKJLpLSQ3RckW/49tYbk+drwaXEaY6A0myllRV5ZjvkBjQieZyvp2Nebvlv11V/bH0JRybFyaj7YD4rDE37O6WK7V08HSoQYPny+36BomynEk3RLwx2/A+a3PRVlBHn4+UIq45qlo3SwOfx6QL5o3Rslmfwd95cysbkg4rtzfGueeKUDeLwdQGnc+Uls1RdyfB/AbzkfjEn/P6mK5vvS5ml5DmOgMJspZUaMr1mIt2qFA3uhSruqPq5rEIH/P58jKS8X1TXcCbQchYaN/Z3WxXKujg6VDTR9Ab/fpGSaWs7ganMD+knjEFR5DRTNJhtePQXmR5Dt+B5o0KJcjUFr6P+grkOqeiBO//on4uEIcq2iK1uclIUainfz9kiNsnITyU5JPaVKC7/2Jeliut+5Wq+8JE13BpDtmPNYf+GI+vkgejIfkcLuiXavxj69KkXHzIAyqfwxLVn6Ibzrehanx/kx1sVyrm4OlQ62ewWpv1i9MrCfuJhaux0+n09C+VWNEn5J9INuOIqFzB7SUXN8f+3dhZ9026OPnoG+H1Ho5ITitvawWiy6WY+1/xNFzO6NDiwYy3ZuHXTtj0eYy/6Ielhu8fqqUTJjoCSbKFMw1idhfnITOsut3yWcLMW+P00Alif50ekuUyRr+xs3/xFu+TnWxXOcUVzD0DeIzqluYWN7yG6KyOBrnnluOgv07sDvfuaTKnpyPPXUKFfXr4MR3vk51WSHV8OxJRJ+bgPKC/dixJ9+5CkxJolv2qxTjVGUS6pzw9YRilhvEbmopmjDREUzsx6Hv/1GikY897R3pgkyJUoY2Bzav9G2qi+U6p7iU4/wDrW8wH1K9wkR5y+/ZPB6lJ5RoxNPeEWXToEQpDeNQ+ruPg74CqYuTEX+60BKNeNo7ktBSopSWDRHn67H0LDeY3ZQwcVU3vKu5umDSPd1RkKONRjz1ACVKyWy8DQ9/vM1LJ2G5VoGCpUNwn1F9wkR+UbFzGmKP79ZEI56UUKKUtGYV2L3d+y8wxqV0RlrscexWRyOeC0ab9s1QsWe7119gZLnB7aeMTFz0DS9Mgu9s1mA8BfQJE+PpSIuDrwCnuXQ0zRV8d7MGoylAmBjNY5FrL2FCmERu7zdAywkTAziJJjJnoq+cCXskFaiqAGHCXmEUBRiZMDIxSl+NSDsJk4h0uyEbTZgQJobsuJFiNGESKZ42fjsJE8LE+L3YxC0gTEzsXJM1LZQwKS4qxPoN36BDmixRj62LunVjERNTB9HR0YiKUk4adX6idu7aVRlXrx5SUlKqldx1Oa+nh88Xv3FpsC8q8ZpQKkCYhFJt1lUbBQgTRia16T+8N8gKECZBFpjFB0wBwoQwCVhnYkGBV4AwCbymLDE4ChAmhElwehZLDYgChElAZGQhIVCAMCFMQtDNWEVNFSBMaqoc7wu1AoRJqBVnfVSAClABKlBFAX8WU+l+NRf9SwWoABWgAuFRgDAJj+6slQpQASpgKgUIE1O5k42hAlSACoRHAcIkPLqzVipABaiAqRQgTEzlTjaGClABKhAeBQiT8OjOWqkAFaACplKAMDGVO9kYKkAFqEB4FCBMwqM7a6UCVIAKmEoBwsRU7mRjqAAVoALhUYAwCY/urJUKUAEqYCoFCBNTuZONoQJUgAqERwHCJDy6s1YqQAWogKkUIExM5E7FmbX5pUoTScGmUAEqEGIFCJMQCx7M6giTYKrLsqkAFahOAcLERP2DMDGRM9kUKmAwBQgTgznM25sBp7lM5FA2hQoYSAHCxEDO8mYqIxNvCvF7KkAFgqUAYRIsZcNQru8w2YrZPUdhkc3GEa/nYly3MBjMKqkAFTCNAoSJaVwJ+AaTAix9dABWX70SWYMbA0eWInPQavRfnoUhzUwkBptCBahASBUgTEIqd3Ar8wkmFnjkYXTuOHS1mbN1Tk/MT7HBJbgmsnQqQAVMqgBhYiLH+gKTgmWZGLBvNHIftaNEBNgyGz0XpGLlnCGQWIUfKkAFqIDfChAmfkum3xsIE/36hpZRAbMrQJiYyMOEiYmcyaZQAYMpEKEwsSahp63Xesvoq5pqBZO1/bVTXwbryDSXClCB8CoQeTBR8gP32hfF6gEmdrClY3ItV1T5AhN3+REm4MP7ELJ2KmAGBSILJpaVTNOQY/HcCCxQrWhSBtnZGBf6/RYOm0IEE3BpsBkeXLaBCuhNgYiCiWUl01QFJS4gceMV5W191ELVFyMXOKeB3AGgyt+cGwNHvL4SqQuc02qO6TR3UVKfydZVVVW+826zT5GJpUnqTYu1h5jeOjXtoQJUIPQKRBBMVHkSNRiqaO4+n2K5zD7Q+wmTqm61gcETTEblYUCVqbhAwiT0HY01UgEqYG4FIggmzrfx9CnVbNBzDPCqN3bVoG+JKprbp8tU11QTmcAOL3dluwGTI4Kyw8vHPuh7ZOJjgbyMClABKuCjAhEEE98iE8dArolenPdaQHTp17bci28wca4SU0992c7Dchfl1GCKS/E3YeJjr+dlVIAKBFyBCIKJZAoceRDPU0aOa8IJkyp5DeUP3nMbhEnAnw8WSAWogI8KRBRMLMtiHbkILVCUiOStVlmynst+jbtpLvvfqk6ZOZP7Va/xOzLROM9NNOPBuV9//TUuv/xyH13Py6gAFaACgVMgsmAiulVZpaXS0jroV5OAd0Qr1VzjiCDcQaD6v1lMkTzJe1evxm2WVWfqj/fIhDAJ3IPBkqgAFfBPgYiDiUUezX4Tu2DqSKUqLKok7V33rCxPxXzLHhY/IxOlenXE5BYm3kGiFEOY+Nf5eTUVoAKBUyAyYRI4/XRVEmGiK3fQGCoQUQoQJiZyN2FiImeyKVTAYAoQJgZzWHXm+g4T/myvidzOplABXShAmOjCDYExwjeY8GyuwKjNUqgAFVArQJiYqD/4BBP+bK+JPM6mUAH9KECY6McXtbbEF5jwZ3trLTMLoAJUwI0ChImJugVhYiJnsilUwGAKECYGc1htE/CMTEzkcDaFCuhIAcJER86orSm1ikz4s721lZ/3U4GIVoAwMZH7D59joQAAIABJREFUfYEJf7bXRA5nU6iAjhQgTHTkjNqa4hNM+LO9tZWZ91MBKsAEvLn7gG8wUTTgz/aauyewdVQg9AowMgm95kGr0XeYBM0EFkwFqECEKkCYmMjxhImJnMmmUAGDKUCYGMxh1ZlLmJjImWwKFTCYAoSJwRxGmJjIYWwKFTCRAoSJiZzJyMREzmRTqIDBFCBMDOYwmksFqAAV0KMChIkevUKbqAAVoAIGU4AwMZjDaC4VoAJUQI8KECZ69AptogJUgAoYTAHCxGAOo7lUgApQAT0qQJjo0Su0iQpQASpgMAUIE4M5jOZSASpABfSoAGGiR6/QJipABaiAwRQgTAzmMJpLBagAFdCjAoSJHr1Cm6gAFaACBlOAMDGYw2guFaACVECPChAmevQKbaICVIAKGEwBwsRgDqO5VIAKUAE9KkCY6NErtIkKUAEqYDAFCBODOYzmUgEqQAX0qABhokev0CYqQAWogMEUIEwM5jCaSwWoABXQowKEiR69QpuoABWgAgZTgDAxmMNoLhWgAlRAjwoQJnr0Cm2iAlSAChhMAcLEYA6juVSAClABPSpAmOjRK7SJClABKmAwBQgTgzmM5lIBKkAF9KgAYaJHr9AmKkAFqIDBFCBMDOYwmksFqAAV0KMChIkevUKbqAAVoAIGU4AwMZjDaC4VoAJUQI8KECZ69AptogJUgAoYTAHCxGAOo7lUgApQAT0qQJjo0Su0iQpQASpgMAUIE4M5jOZSASpABfSoAGGiR6/QJipABaiAwRQgTAzmMJpLBagAFdCjAoSJHr1Cm6gAFaACBlMgaDBp07Zt5Ttvv41LLrmkWkn8McBg2tJcKhBcBUq2YsHYTLy07TTSbpyOWU/0R/M6wa2SpVMBTwr4M5YXFxVi/YZv0CEtDbGxdVG3bixiYuogOjoaUVFRmiqiFJi8NHcurr32WsKE/a92CmyZjZ73LtKUEXvrPPx3Qi/Euim5aOVE9Htyteab9CkrkTW4ce3s0Ny9FbN7joLWKtsF8Y2R1qUXBt46GkPSU5EYpAG+YFkmBkzNsVWajsnLszCkWQCbyKKogB8KBBUmj40fjzFjxhAmfjiEl7pRwA1MgAxkrZ+I9Co0KcKKJ/ph0iptOSGFiarqxKun44MZ16HGGCsrQN7mr5GzJgdLm4zA4nu7Okt3iUzmPNm/5vWw41GBWioQVJgwMqmld3i7VQEVTGLjY1FWUmb5c8ac9ZjYx4UmhSsw8epJWC0xS2x8mVxrLSJcMIHYkTH3v5jY210M5d3Bmuhj5ALkPqqCiffbeQUVCJkCQYXJ24sWoXfv3oxMQuZOk1akgknzPulIXJ+D3UpTb8nC+ifSNVNdzimu/uh/9WqstkUowYbJiNdzMa6b2HS2DIdyZiNzfDbybO6oTd2EiUn7tAmbFVSYMAFvwh4Tjiapp7mGj8CIJYuwyBJxuE51qaa4+sh1ktFYtF4dmZxG9j2DMXOb9W+x8qa/Xv2mf1byIP0kD2IpuysmfrwAGS09NVibM3HAxHK59jsNTAp2Y8WapVi97Af8sG83CpS6klLRq88QjMocgV72+bAjS5E5aBrsGRGtFbb8yCF1LmkEFuSOE6vlo5kWtP69ydrZeHZGNnKOlCExpT9GPzUZI7okaos9W4BNb/8L895bja3KdV0yMG7SOFy+fYIzN8PoKBxPgCHqJEwM4aYIN1I9OI7MwrzTEzDmfTdTXY4pLkHBE/MwZO0YTNPApDE0yfl4GWjXyABsT5DvWIDBI1/CIUXuPpOxcs6QanIQHmBytgi7P5iEe2blwGphczy0cBlGdbL6UJs0d/FrfDqmf5CF65QkegBhMnlqHp6dYrfHXqfA8gOBZYrtv88ewtIJt2DaWqvVjk/8dXhoZBFeetmGNcIkwh9Gz80nTNg19K+ABiYSTfRegb+OzbYO1qqpLicolKhiFurNGlAFJijbhJlXj0G2JfrQDvS73xiMO+ZaUIL+z6zBzAEub+4apapZzaW6LlUG37cl+rFnTApWzsZbp/sjo18HNE+Uv8q0WN6yCbjjGetg3/zBt7Hs3jRHCdVOc7mJQKpGJtrckboJzcdKXfdY6zr0wSgMnrHVe18gTLxrFKFXECYR6nhDNdsFJrljoZqOsk91qaa4ukzEsjeuwqZH3cBEGr77dYHGy1ZoOAfUPGSPHIaZO5S/XoeZa6ajf3UscZnKqqJnUldkPPo4xlyf5nlpsICkqOg0iva9hWn3LsAmpZCek7Hs5SGCOeun9jABUkfOk/0ovZBYsgmz7xmDRftshfedjpXPKyvNdmPB4DvwklUSxPadiDeezkCatL9oRzYmPTgTObaFDCBMDPXohNJYwiSUarOumingChN50986pw9GLVRNdbX9zJFjsOYogKUeYIID2Rh140zBgXw6TcTihRlI3ZeNO26Z6TGxX9Xw6iOTxN7jkDVjBLq6AqnkEHI+eAnzbXmJquWqch8BgYk2r3To4zEY/IwFW86pPM2UWtX9KuqIjTCpWReOhLsIk0jwstHb6AYmUOc3ZKprcadsDLNs4LMPhgWeYQL1XpQ0yR28jctz7dM8vi7ldZMz6eKSd5AIafHrAip7TqZsK14aPgoLbJFBbLM0pDY5HxfJ8uZdr6+wwk2WDTgS6QGBSTXl2fNCGphor/caHRm9b9H+gCkQNJjs3LWrMq5ePaSkpFRrrD8GBKzVLMhYCriDyVmZmrnRNjUTn4GMQdnI/kD1to3qYAKUrZ+JPo9mW3RIn7IA/VeNsuZXXJPyHpXykIAvycHM6zJtORmZYpK8xGJbXqJo1ST0e2KFpcSu4xdjwfBUa+lFqzGp30RYv6lm8B8+D7njezkt8iln4i9M+mP6qpm4LslZjToKZGRirEcnlNb6M5b7dZwKYRJKN5q8LncwkSZrpl9sEjiX4VYPE00iXvaupMveFSWucU2Ae1bW89LgguWZuMGxekoipWVyzIkkQba+LFNzr1un5ro+uABZ93RFokAv5/kHkfm+fVdKNYN/8xGY9/Y49LJPnQUKJmUCwD4CQFtjU2/NQlZmOprL+oCCtTPxoGrPDGFi8metFs0jTGohHm8NkQIeYII9spR3uG0pr8UU9Xy/F5goMFIl4q0t0a7uqr511ewzOSvJ/HslmW/fzyKJ7k8k0X1ana9QFy67+mNlV78VM1qYqCMo5y3+7zOx75vXJPQdy5/LsGnWXx3LrV3brT51gDAJUZ83YDWEiQGdFnEme4KJ7DF3rsASVTR7Q7zDRJOIt7DkIby9bBScC3OrU7q6TYsyjSY23yKHU1oXSEkeZo4cqdJ2NTJvmeRcGWX5LhWjpg7D7imyYsoNTLRLme32BBomUu4h2SR5m2yStK/asleV8hBm3vEDJsrSZcuHq7ki7vHztcGEia9K8brwKeARJkDe+3dg2CzL4Soue0N8gIkM9dn3yo74LdamdX1iGRbcYl+U66251cNEEiFY/eQATFxp2wSoTFG9Nw4X5S/F7H++hCVbCoBm6bh36hSMavW1ard71QQ4DuRg9r+mInttAcrkROL0e+dg1kg5ujtQ01z2phZswqKseXjrv1tlZ34iut4yDo+PHQJ84Nx/Q5h46xeR+z1hErm+Z8vVS4S9Hp8SqXIpUOwnULS2P32qLLseVOMzkCNVxIhoN2ESEW5mI6soUJaHpU/c4Tw+RI6KXyNHxVe7TzESZZT9N6Nk/4112bK388oiUSC22a4AYcK+EFEKuD8bKxUPvbMYo9pHlBTaxm5bgMyNaRg3uBdSm1mPeSnY/RlemjINS/dZL3U9GiaC1WLT3ShAmLBbRJQCVWESK/tMPpAd877mSkwql9sfIHO2NXXwTGTJj2/xZ4FN6v8ANIswCYCILMI4CqhhohzFfueExzGqN3MAOJKDl15chJzcH7Bbjp+3fCxH4/fDdTfdiiHdqJFxenl4LCVMwqM7a6UCVIAKmEoBwsRU7mRjqAAVoALhUYAwCY/urJUKUAEqYCoFCBNTuZONoQJUgAqERwHCJDy6s1YqQAWogKkUIExM5U42hgpQASoQHgUIk/DozlqpABWgAqZSIKgwOVNWhi5dulQrmD8GmEp5NoYKUAEqYCIF/BnL/f5xrLxffsHAgQMJExN1GDaFClABKuBOgaDBZFNubuWunTsxYsQIwoR9jwpQASpgcgWCBpM1//1v5c8//YTRo0cTJibvRGweFaACVCBoMGFkws5FBagAFYgcBYIGkx+2brVEJjfeeCMjk8jpT2wpFaACEapA0GCyc9euylPFxbj44osJkwjtXGw2FaACkaNAUGESV68eUlJSCJPI6U9sKRWgAhGqAGESoY5ns6kAFaACgVSAMAmkmiyLClABKhChChAm4XL8n6dx+px6qBeu+v2ot0xsrSO21vHjnvBcKpr+KZqeE57a/avVQLYaqK/65wNeHUgFCJNAqulHWcWfzERZ74lo1MyPm8Jy6WkUvvEKou56FA2iw2KA75WezsHRD+PQaPjF+gffb+/i6Par0fTapr63L0xXGqevhkkgVmtRgDAJS0f4FQXT+6D8ovX4yw2twmKBz5UqA/STDwO3fYOmPfUdR5XlzsTx94C4ZyYiSd+moviTkSj+YSASJt2OBJ+dEY4LDdRXwyEP63QoQJiEozPIW+nvz01AZaNZuh9MLAP0O3OAzu+j0eh0xIZDL5/qlAhq/qUo3Q7UGa538FkH6DPH+6PuYwvR+HyfGhieiwzUV8MjEGu1K0CYhKEvFC+9FcVf5UjNeh9MZIB+rQ1Kd4qp0Y/q+41fiaD+cSvOKv7UO/j2y8tElrxMiKlR/fQdnRqnr4bhQWaVGgUIk5B3CHkrnSpvpYXWiqOulMFkiE6nutQDtNha57af0fQSfc4flX07Taa4XrF58wHE/XOybqe6nAO0mJsk0ekUvU51Gaivhvw5ZoWuChAmoe4Te17B4ZenOWvV8WBSum4SCj9+02lrR5nquk+PU10n8ccLnXA6z2mqfsH3IwqevA5n/rTbmo66me+jcetQd0Qf6jNQX/WhNbW85DCWZL2CrEaDsebO7rayNiPr6WXYe8kDeHHgebUs3/i3EyYh9mFR9nU49c2PQKP+iDq+WqY6LkTdB1egcfsQG+K1OtUALbZCbAXuRr2np6NhotebQ3tB0WoceWokKkTLqEZA5XHRN3Uhkh7pj7jQWuK9NscALf5vJP4/LrdcugLnZVzo/d4QXxGuvrr5racx/hf3je0ctoGbMPHW/QgTbwoF9HvnW2md2zYjZmN369u0HgcTxwCtvDlPBl61vk1H37gDza6oH1BValuYI4JSorzbTqLYEvnpE3yOAVqivMQOn6FIifzOmYxzn3kA+mJ0+PqqFSZNMHrgJWjn0jlim3dB9xbheEUIL0yKt3yE6V+W49bHMmCPi2r73AT6/qDB5LI+fSpvuflmjB8/vlqb/TEg0I0PdXlnd76Co68pA511Tj/+B9s8vwwm8dMeQH0d7eP486sJOLH0XcecPuyLBlq+hgZ/Hwj97AuUCOpfMsV1wJ5/giMnFT1EwHeljsBXIQP0ZCuULdNwF+XaFg1IdHqfRKcdQ90jPdcXzr5qhUkqnpdoUz8DZ3hhkv9ZFoZ/21Bnmmj7jz9jud8/28uDHrVin3zvOpR8K1Mw9tVGlj0csgKpQm+DiWqAtq82si8Rxe2oN2UWGibpZOAr/AxHpt4nU1zOlXGWPRxrZFpOZ+BzDNCOlXH25cxHgUtWoOltF+pms2U4+yphUvXZIkx4arCzVzjeSpta9kE0qFiNkoskF7FI2Ruhs8HEZYCu99NnwJWdcdqyN0KmunT0xu+IoCx7dtJx5iugYdsc6z4enYFPM0DLr1mf+qEnzo3Osu7j0VN0Gua+6h0mx/DlvLmYfqwFpv59NK5w7PosxeZ3szD+pwRMGjMWVzWxPX6FO7H8k9VY9Osx5JfL36Jj0LrZZXj6gf6wr3so3rMa877YgFXHylEmlzRqkorR19yEQe3thfsRmVQcw8aPP8S8XYexX+qLjUlA9w59MfHGXmjkmH1QJe+7H8C8Dz/HEqVuxbYWYtsdYpuyqevQcjz82ibI9int5wL1QgB9vNgxMqmhH87k5+Dkmh8tewV8+pzMQbl0WOt+jQdR+WonlPf+WY4osQ0m0f1Rp0c6onwqTC6KbYe4G/ojwYeVuqV7luBU7u++2/r7cpQf+E6eKGWA7oLTT8rU3P3vo95W2xv/ubcjpmNbXy1FVGJPxN9wsQ9TYydx8vN3UXbM16JPoGLnHFScsu3XSPsMh9+rL0tt0x3gi2r5KOr8pYGvBSKqy+1o3MWHqbHTR1G44iOUS92+fY6g4vtXUFFhfZlI/HMaCncNRKORwAlLdNoU0e0fRLQPVVvrk7PSrrgdDVt67wBG6qtKy7zDRBlkP8fD8zcgv0MGPhxmmx/8ZRnufmszzus7FjP62UhyUAbjN5TBOAmDevZA38aSbyk7irWbi3H1I9b8Q/H3C3HXJ5K8bNIFo3u1RGMU4fsN65BdGIeMYY9jTCfFKh9hUnEQS+bOR1ZhgtR3iaW+4t+/x/wth1HQ5Aq8O6Y/ZI2I0krLSrDtKamIPfgHOl/aBz0kaVbw81pk7SkGWl2LT+65DLGlB7F5az7yd6/GrF8SnHmkRu3Qu61epgesPZIw8W0kcHvV6bx3cWLeBFQobzu+fi5aiqY3nUCBsvpIWWo7Og4nJw5BeYWvBch1TSTH8ojkWPzI2JZ8OxNF2XNQ6Uc90ddtRrOUjyxLmS37YS77HkdmPCxTSr5/otq+hnPvl2NDYny8p+IkCv99H0q3KZs6ff0MROwTr6Huf5WVcg0sS23jdt+HohUSUfn8uVgirhfQ8MpWqOvrPX/uRcHLd+HMgV99vUNeJibinJl3o2KuspTZmjuLeq87/vxBolNfP/LiUfeeF5HUub7P02JG6queV3Np8yjK1M/d3wJj7svE0ObWwX5erGrArtiJebOykQ25b6zkX9ydW1Mqg/q/lmFV80F4965ezqNtBArZL8y3lPeJACDBR5hYp6PEptGZyGjhdGhx7kLc/p8DGDTsSRucrDBZEp2EzHvEfse1xVg3/zlMOdgEkzIlurLxgtNcETDNdbboRxS+cCfOHLMNBjEDUadrT0R5SKbXSX8A5/xq379hHUxivn0FpZJAdvs5mSsRjX1QbCpvzi8i8a50xNcgWX/mt8/wx8uSX7C/TVcbYdRH3UG3I/pz21Jmy36Y63H2k3dxpsiDrfaIxvJ1K0T3+zca3NCuRicjF381CaeWvumIpqJaTpQIw8NbuEQ+595QDyW2/RsW8F15FAXLcz1EY6clopnp1CHmdtQdMx2NU72/5VdpucDv5AcPo+QbZem08mknEcaNEmF4KKtlfzTsdsD6MiFXK4n4Rn/JwR85e92LWiERzVaJaOwvLIkS2WbK2WPW11u/Pkbpq55XcyWh3SXtbG/20nTbgD8/4Vq8esH3uP9rYKJ6eksijgGfHMDQm2UA97Dyumz9fAz44hhG3/k4RlyglTP/P89heG5TW9Lbl8gkD4tmLcT8Rtdi5WiJKtTFVWzCrGnLsd+xtNkGk5RBWCMQU3+K18zFDWtLBUiPOYAU0TCJqNVcrm/TLWfh3AdvR6IseTpddNJlQCtEyet9UGaDR/SQzajfw2XgiamPOOVedeQTnY46Ga+h0SW+v426HWk0b9MqOOE0Sk+ddrllL4pnSNRk2WAnS4TvkyhD9bZluThWbBXzNZFPbQZnlQWe2o/TJ3FGmdhWf355UyKamda/JE1H/N9vqnKOWPS59eVvLpGPyld+jcwuF3tq/5k/T+KsS+RavmEailfISjnlI5Fb/TvToX03kCmsxHqo68lXNXiRcJhrgL7q0zSXvUG2qa180aT75arpLfneOgAnYOrjklfxsJrYeo3tOAq3HUAiB1XkU/2mRRsgqutIjlxHNRseBYL9ZNpt6A1PIbOHtbCIhonyG/CRtppL8zZ9ruxzeHC6hMefofDV/8HZIl+mMZyDe4XsPne8mdvKahioAwFd36Zt02axv76Jk/+e5OO0nS3yuP4vOK1+M6/BFFx1z572bVryCpe+hfo3tULZksdQst7HaSwb3JKa7FVFkbaybrkQcbUZnFXGayM/27RZuszJvz4Bp/f4OG1nizzO/VMdRdZgCs4LGfXcV/2CiS13sr0iBoOuz8SEns65LPsAPGPySPT24GPrNTEYMeASXOj2mji06toFyXG+RCZWQKxNuQwTOzZ07wFHroMwWb/hG3RIS0NsbF3UrRuLmJg6iI6ORlSUNnMcFYkwUXqP27fpHoU4+eojOP2TJLU9fZTI4xaZB5ezr06pcwYBenN2V627t2ntgOvBWGVwvl/Ovjr/dxQ6cga1m4Krduzz8DZd95dXcPKNaZLUruZuRb97b0fsMVV+K1BRnrtqPUQTmpcDt+Yq+j2HxDtlhd/3qvxWgKI8d1Xqta/6DBNbsntezBWY1GQTpvyUjBmPCDhsPLFOFxVKEt2ep6iqgvWaYrfTXNqrfYGJ5Gj+KTmaZm6muapUTZgQJl7e+Cxf+zugJD6AejI41z/nO8lp3ItyS/5F3vz7vCpv4YF7c3Zn+tnjOTie9bAtcvIQbahvbCZTSGMl6jq2BCcWSDJeyb8og/MNs5DkT/LaFx1drvEPfnb92uHMqmkoWWHLv9i0DliU57Ydp1H0iUSWa2xTWW6jDdWNdv2uSMKp9x5Gaa4t/2LT2p+FFn7LqsO+6itMLAn4XGuye2h9yUm8sBxr1Yn04g2Y/q/PsS6pF94cOwjJ7iKPY6sxfu467JXchSYBX0VIX2ACbH//GTy8K6FKAr6qX2oCEyBzjLRVpz+ox9Vcfj99Pt7gOpXUU85fuvmE85h0dTGWTYwNZFXXdSi3rIP3f7WOj1a5v6z8V/yhipyir5dVXG1XOY5JV99kOTI9fTuOTFc2Cson0FNwXhqinUoaitj/eRGxOfYj/dU3Wzcxxu+RnfyyaED5+L2yrFaiQvYPqSInZRXX//cAKu1H+qvLtm1ijP64j+SelJVhgZ+Cq7YpOuur1R2ngrhkdO/aQpbTypLf+ZuAnqPx4vXWRF6xJNNv/uIwrlZNd9mX/RbHN0FGD5nKUlZAFuXjix2luN62NNi6KkzyJkmpGHNxRyQrmXNZPvzj7r3Y2+pWzLhGOcTRN5igWCAxV1ZplcWhd6deuLGldcllwe87sXZPjByHMty2q98/mMCymCAPCa1kCq3zOfjxRJLsg+lSyx4a2NsJk8Dq6VKa+nwj2VMC5ZcA7cekqy61DCaZwELbb4eE46wuzVlcsqdki7sBWmy2bQ48bTtGPxxndWnO4lL2lKiO9K8Cvq6ygdHy2yHhOatLfRaXZU+J/TdXND3FvpHV1j/CclaXfvpqdQc9QqKMdx7piC//JaumZFh+8++D0doRcciA/4Kc7Fucqp3u2iUbEr/chLXHS1Esb0CxsbKJsH1/TLy5u21lWDnyv12GrHU7sbnYumkxNjYOnVt0wZ0DBqG7JRLwESbKpbZNkvP3HcNx5Y1LNiImJzTBVb2ux62Xt7AtP/YTJijG9g/n44kdhZY2tO42HG8OcT25LKiDmdfCCROvEtXiAscJscoS4IlOWDSbjLj7H0DsvldQ/J7M+ZeHfzBxP0DLPH77pxB/10Bg3UyUfP6K7FOxvvHXy7XBJuSn8zpPM7YsAe5mg4UyVXTtdNS/QnaWyyKCMiXhHXbweRigZfl4zG3PoUHKXpyQiLD8iEQjSnQqu+KtsAnDSdIG6qu1eCJ5axAVIEyCKK7jR5CUzYmWnc5ybIYMeIlXt0P5N++ivLUsH64vA8rbMvjVedR6jWUwCfVvXDh/UdExQM9dLUuR/w8NZNnyn6tkDv+yoThHzhI7ISuTznZ8zzmI2w6tDNlvrjt+sMuqkSWC2ilHzd8rp+7W+xEnNgDxV19o2W1enC1tGKuKskL9eyyOX1S0v0xcitNnBc53DEXcydU4ub8t6l+ahNJVWQJq2dMuv11vj05D/aNpxumrQXxgWXStFCBMaiVfdTc7f6VO2ZiW1DQXpxLTLQNe4dz7cUZ5G1Ul2Su+z8HZbj1x9g3rVFdIBxOXAfqcYrGlVboMeKplzaokcWnur6gj+13+tE0vhfKHqBy/qGjZRHk1zspcd72eAud103DqEyVyElntCxoE1EW/JiEpwZ7/Ce0vMGoG6HuaoWRLEs5V4PyRalmzLcmugPpUkWxGPWo7STqkP5pmoL4atOeVBddWAcKktgp6ul/zVqr8hKys8PncPlXkcpNqhZF2sAzNz7lWqVNZipv9GEq/dbOPQ7XCSDNYhuQXGF0iKPm547PHZQWcfapII6t6NZx2sAzNTw9XrfN03hKcfPPpqnuO1KvhXMAekl9gNFBfDdbjynJrrwBhUnsN3ZagHmgb3hyHIvWApywVfSQTsT9loegD+3lZMvhd8gIShpTilHLwX8imurQDdFLX77UDnrJP457rJWcib/72pa72/ERaLgotye0QvfFrBtqFiN2thrN1WXOi5ExK3lCdlyWgjr17ImKVQyq/kjxKqKa61AO0srhiqQrOtj1F9dtuw8kXHnPCxZJLuxv4MLTRqXH6apAeVhYbEAUIk4DI6FqIvJXajmtHk4Hy87yf2Q5YtA549a+XE39tK1DOFsmu7NfVg5+ch1XnXVTISsWQTHU5flNF6ms2EJVHbNGIfRPlpU0dBx+ekTX5hZrBT2w9IbbKKSyhmOoqy5XVTspx7fLbJdHNfkKFZapQmdZS4CznVdmPHJc/lXwjG//UoG7ZGRUHlLaFBnyO31Q5R2yN2YYK+wkItk2UifZDOiUKLPqPFtTRyXLs1G8CvpBMdRmorwblWWWhgVKAMAmUkupyHD8kpfqjmwFPfYt28LN9Y1mNFNypLucArbLGdcBTG+qJD7faAAAgAElEQVQ6+Nm/s//gVzD0tJSp+iEpRx1V4ayuvgqoLV9aV8417VmDQx19bptqgLbf4wbO6uKqgNrypfMHv3yu2t8LDdRX/W0arw+tAoRJEPR2vJVayq5+wKt+8Av2YOIyQHsZ8Kod/By/HhgEQS0ssf8qpa18L3BWW1EF1MEGn+sAXR2c1Ya6AbVlk+gNrYIkqmz0s/8qpe77atAkYMEBUoAwCZCQzmJUb6V+DHieBr+gDibqAdrXAc/j4BfcN35nBOU7nD2COsjgcwzQfsDZI6iDGp0aqK8G/DllgYFWgDAJtKJHlsgPSMlR6C65EX+rcUzRnHokaFNdZ7fNwdF/51gPmFTlRvy11TFF0+pFORYmvcrR7/6W5+76E/+WH5D65fYquRF/y7ZGKe8i+rZgTXUdxfEZ3VFWz3rApCM34q+hjijld8sm0caBOjFabYeB+qq/8vH60CtAmARY85JvlqCs7VBNMrg2VQS6PLUtJ9csQVTPoTUf8FyjlM9zUHntQNQP0JHujuLlN8n/+LwezrnWuXChNpoqoD6RexoN+l3o8y8V+lyfLFI4/lMXJNYCzq5RSpGU10jKC/Qn0H0r0OUFur0sL7gKECbB1ZelUwEqQAUiQgHCJCLczEZSASpABYKrAGESXH1ZOhWgAlQgIhQgTCLCzWwkFaACVCC4ChAmwdWXpVMBKkAFIkIBwiQi3MxGUgEqQAWCq0DQYPLJp59WXti5M1JSUqptgT8GBFcKlk4FqAAVoAI1VcCfsby4qBDrN3yDDmlp8quWdVG3bixiYuogOjoaUVFRGhOi/vE//1M5etQotGnThjCpqXd4HxWgAlTAIAoEDSb33X9/5f977DG0b9+eMDFIZ6CZVIAKUIGaKkCY1FQ53kcFqAAVoAIOBYIGE05zsZdRASpABSJHgaDB5NmZMyszhg1jAj5y+hJbSgWoQAQrEDSYrPnvfytTWrcmTCK4c7HpVIAKRI4CQYPJzl27KuPq1SNMIqcvsaVUgApEsAKESQQ7n02nAlSACgRKAcIkUEqyHCpABahABCtAmESw89l0KkAFqECgFCBMAqUky6ECVIAKRLAC5oXJltnoee8irWv7TMbKOUPQOIIdzqZTASpABYKhgAlhUoCljw7AtPVu5DI9TOxtT8fk5VkY0iwYXYZlUgEqQAWqKmA6mGyd0xOjFlobmj5lJbIG2+MQGWjnfI3LHzVxZHJkKTIHTUMOCBM+7FSACoRWAZPBZCtm9xwFZXJLCxI3ojoGXvt32gG4YFkmBkzNAZRoZlQeBtinzEYuQO6j52uinxGv52JcN2s5DpjJdStT5lvLcNjzm8M+sbBK9KAGoXKPL+XCYk9XwNO03iRgKgET2qeKtVGBCFTAXDBxDKhe3szdDbw259sHcAdMfOoU/3975wIeRXnv/y8h2YSrAQTk0kqkBC8RT0BEAfWALaAWbKlSFLBH8CAof5RasZwiPAJ9qLaK8lBRj2gVUYqKFdQSrHAqiCIHcsRYIYhRJAhBMEICIYHw/72zM7uzs5fsMrub2Z3v+vAIZPa9fN7fvJ95b8NYPPu/90C6dL9MovmeadrNKhLj60Z5wv3cJx2EWSOiTKJpCV5DAiRgk0BaycQvAH/nHszHtKZiPNXD9Hd6Bw9jZOIbQfhHPdpoRS3kh5CXv9PXy2AeAen5BZUzxPSU7xr9O0HpIsQojNNcNm8Hfp0ESOBMCaSVTPxTPZFGJkYnbLnGJwavBLqYp7m0HWB+4fim0EJ03uZpLm36ydTp+6atLHn1ijBSMsRVbqwF+QQYOKWm5UWZnOl9wO+RAAnYJJBeMjGNAsKumYTrcBtRJj5xIfyIKlhSlInN2OfXSYAE4kggvWRinq4SSIFCkRHJ1DKMWzgQG42tw6GmuaxTUb51jeSMTMxlPrTqMWy8/B5tiy9lEseoZ1IkQAJxJ5BmMhE+Qbu0TMyC1jqsPP1TXwG7uRI9zWWRoL9U/vJEJRPTlJqWhqovF+DjftMwQRIggWAC6ScTvY6hdj8FjFSC1ikCp5iSKxNvoYPKHGl9xHy96bqALcKUCe95EiCBJBFIW5kkiR+zIQESIAESEAKUCcOABEiABEjANgHKxDZCJkACJEACJECZMAZIgARIgARsE6BMbCNkAiRAAiRAApQJY4AESIAESMA2AcrENkImQAIkQAIkQJkwBkiABEiABGwToExsI2QCJEACJEAClAljgARIgARIwDYBysQ2QiZAAiRAAiRAmTAGSIAESIAEbBOgTGwjZAIkQAIkQAJpK5MDBw7g8OHDOH78OE6fPs2WJgESIAESEAJNmjRBs2bN0LZtW3Ts2DFuTNJOJidOnMAXX3wBj8eDli1bIisrS4OnfvFDAiRAAm4moB6s1a+TJ0/i6NGjqK2txXnnnYfs7GzbWNJOJp999hlatWqliaRp06bIyMjwiYRCsR0vTIAESCCFCRgyqa+vx6lTp1BVVaVJ5YILLrBdq7SSiZraUnDat2+vjUwMmShKFIntWGECJEACaUBACUXJRI1O6urqcPDgQe3h2+6UV1rJRI1KlEjUyITTW2kQ9awCCZBAQgiYhaJGJkoodkcnaSWTbdu2oWfPnsjJydFGJfyQAAmQAAmEJ6CmumpqarBz50707t3bFqq0ksnWrVtRUFCgTXFxWstWXPDLJEACLiCgRihqEb6kpAR9+vSxVeO0k0mvXr2QmZlJmdgKC36ZBEjADQSMnV3bt2+nTMwNrkYml1xyiSYTfkiABEiABBomoBbiP/74Y8qEMmk4WHgFCZAACYQjQJmEIMORCW8YEiABEoiNAGVCmcQWMbyaBEiABEIQoEwoE94YJEACJGCbAGVCmdgOIiZAAiRAApQJZcK7gARIgARsE6BMKBPbQcQESIAESIAyoUx4F5AACZCAbQKUCWViO4iYAAmQAAlQJpQJ7wISIAESsE2AMqFMbAdR2AQOFmHmXUuA2xZh3rUdEpdPLClvX4JR84qQ76QyxVL+lLy2BEtGzUHRkFlYcXtBgmqQjDxiL3rJM6MwZ+1QzFoxAYmqeeylSsw3KBPKJDGRpVKlTBLHNqVSTkZHn4w8YodOmcTOLO3eGuzOFz1WYPPzS7B8X2/MmDEUtscSlEnsd1JafiMZHX0y8oi9cSiT2JlRJrEzc+A39BuyxwQs+j1l4sAGStEiJaOjT0YeseOnTGJnRpnEzsyB36BMHNgoaVCkZHT0ycgj9qagTGJnRplEw+xoGYqeXYjlH5Wjug7I6lKIX9w+FQP3zMeU54AJf56Hoe29CVX8fabv7/rtXYr5C1aj7JQs5C0zLeQdLMbyZ19A0XY9vdwCDLtjEsb1sUxQnapA8asyffVuCcoqJWNkIfeiYZg8ZRwK23nz8wZ9cCWiWqg+VY2ytUvw5OubvenndEHh9bdi8tUV+NPU0AvwFVuXY8lLRSj5uhp1RnnulPJo9a/D5kX/gUfe64lJT8/C4FxLuU5Jx3GrLOhedi+W3d1Pvq0zi5imflGkBXhpn3UvLcXKj3ai4qhqoBbokD8Yo28fiYFdWpgKUYGi303BEsgIbs5AVEvdF766GeXynaxWXVAwROp+YyFyrf/is+L03lIsfXkDShQnSb/LZaMxdfxQ5LXyJx9V20eKt6MbMX/CQpTIgvcyy4J36Yu3YeaqDhi38CEMP8eUiHAZM28jhv3+OYzrof99qLjp3g/Dx96K4RdZGkXnOnTmCoxuUYQnH30Bmw/mYcJiiel2oTv66t0rMX/WcpR1GY7Zs8chX0NcjfL3V0psrMPOg3psdC/A6DtnYPAPIlXalMfNLbDuxaVY/n4JKmuy0OIH/eT7EzC0u7kNJa0o7otY7sWlTyzButIKubclz/OvxLhfjUOH9bdxAT6avtF0DWXSELD9srPp3iUolZWIwiHDcWVBC1SXbMDqtWXI7e5B6Y7ckDIZN6031i1YjnItfdOuED29sg6FGD5iGHp6KlDy3mqsKf4OebctCNg9pYlivZGviKZiM1a/uA5lrSW9BSKnHKDyy2KUHSrD6oeWo+ScwZj0q35oo7TTpQAF5xjddYhKyg1ZNH8almwHOhQOx8ghPeGpKMGGN9egrF0ePDtKkWvZOaU6y2nPlaFDn+EY/mP/9cWV0vk8Ip2P6uS0zq0IPSc/jVmDAjuuuo8W4j/+tBn9fvMXTL3MW7ao0lQXhpFJ3der8eBvl6K0qRLhcAz7URt8t2cDil7fiLKaXAyduQATehmdkSGTkZiQtw4vfJpnaYMK4PwJWDDHPFVYLcKeJu1Qh/yrRmPYpR1Qa6TfQtrhT9IOevKGTMK2fUOxBr18R0djwcKR6OK7vhRLJ8zE6qNAoTy9zLjK37lqkvn7QMx6QcqhJFi5GQtnPIKNR1r4ygu9XYsPQnbDBcaYwXXo3fei+gn5nnpmQb4e0yFkYtwPKgZ9da9DyXN3Yc7fq5E34BcYOlDiR8+zwx3LhH8UMhk0DhO+WY7VzbyxiM/XYOWqYiEiZXnM/7CmUormvjDLJFx7VEtM3f9QESqa5mHwzcPRr0MtyjYW4bWPspDXrRSlu7ibq8GQpUyiRVSJjfPvwsISU2dpfNW4qeqMG8/7A2+HIh1Pj2p0uG4WJl/eAVnGk+4p6RSmzMS6XjOwaGIhWviegKtRvHgK5q/Px9QlMzBQf9otWbsSLa4YGfD0W/3BQkxcsBEFAZ1K7NNcle/Nx12LSoIEpp76ih4UyeyQOphlsmspJv5uHXrfvwiT+pieFKuL8eTU+Vj3o6l4bsZAtFB1nCgdX94kPD1zMPw60UctxcMw72l5mlV1jzbNcDLRea5WsjZ16lpDVEs5Zkk59g/EvUumop+IV1rHOzLZBbQYZG0DoOyv03D/axUYaJKdl1M1Ri+Yh+H+3h3Yvxozpy5F+Yh5eG5sfsNtH2XIla+ahmkvtgh4QMHXKzHl3m3I7SEdXAfzqK4Cq6dPwdIuxt9FiNdTlVj3p7vw5FYZ3SxY4K+LIekeUofet+I3P8s3jcwsMqmWP/9GRpboh6mz78VAY4RUIwK7VUQkTFdMLvTXVEZ01TUt0MIysAhEoech41Sr6IxYb/PLBVj0Cz/8aO+LaO7FULGjJDNNHogqzQ+BUbZfKl7GrcEhWi3u/zhW+WpMm7YUGLsAC0aYexJv5iXPjJGhsIgmaJqrFC2ul07mV95Oxvh4n8wrcKvpet8PpWO97Xer0W/GCkwy3Y9B1Qy50ypWmZRj9b3TsBTjsOCR4aYnYD23HVKWWavRxScTXQTf3Bpygd87BdMPM16ehEKRROnz8ue38gKnulSHM+ERFA8xuMSWZqiRSaiRTjDvjeg3bRmmXqFGQoZMCkJPwwV1il5Oyy8InnZS0zob59+Ghd+Nw6KHh2s76LydV+i2j7qT0cSxHF1MDwtauhuvxKyBGzDnxTz/KESfFlPzqtpopYF4NX5eZ+6cdZmgl1X+WoT7z5nc1sH7kLE7xIOVwe0yeaD4jTxQRF1ZUx6thvsfMozvn5IHlZvlQcUqqVDph7gvIrVH5NgR8c6biCe3c2QSS1NymisCrToZBYxZsBlDZ8tQ/aLgC81z5IFrJqUyvbIiaHjv7XSrI7aPda2jbn8pNhdvw849ZSj9tBwVh9TcriQRcJAsRpnonVCp6ak6oFBBN6Z/miV84U0jNL1D7GCa6vKyLDM9FceYZohpLi/PwNFcQPkOyRTl5CWm0UO4aSTjW6Y1FbUrTudUHLHF/B2O0XmFavvob0qdy6XGU763Y1t5gTydX7ZZRLMOgx9ZhJGyDuFlWuF7mKmWUdRti0ox3Lx+EpCxxMkYGVkU6KNI9bOIh0H1uNKnoJRIRs+ZgZHWNQwRqzYVuFZG4zJlOvrmYRjYzbpgFo6AkYdlVKNdHj6uo7kvIrVHQ7HDBfjoI9a4kjKJwCyULMyXh5dJ4KK88R1vgMqi5P3DkRcmX99ah0w3bVwwEws/qpTF4Q7o2asQXTp0Rc8OZVj+1DpU2JFJQ+dIgn6u39S9RmPGtWFLji4XFaCDNp2kj3zaGE+7Mgp5fAwe2WMeCcWYZohOr+Eb3jrnb5FFUBtYfq5zqLxmEiZcqlaiQn1ykdcnT5vOayheor09tRHvBzIduESmAzWhLUdPTSBe0ey80ftmgpLn5LoSWV/RR5cN5x+i/qYF+OC1DZ1fVhay6urguUqmBqfI9GyoiuibORa+vBHlNbJm117WBG+fjNGFDUkl0m6uEDKJ4b6IxKOh2Gno59G2ZSpcx2muEK0U72kubzBWYrT+JGjNMmaZqJv/78ZOmchhVrl+DiYuLsNg6xqF3sGVxkEmlZa5aF+JQslEPdF2n4CnZXG6oe5B04k299/GO53U1LtLqS5gUV5/So42zVAy0XgWBKwzBVDVRxblvno2JBN9VNBFr6c+sim7Vqa5bmv4pRoNd+bRdS3eEUepFnfD98rvn2njFYt8vXjxKMyvVCOLPBRNnYZ1V/vXEyrXzsTEZ8ojjEz0+vUyrbtEI5MhIpEur2mbL7qOmI1ZskYUdipLpFL+4Wq88NJqqAX/wil/lim4SBETm0xiuS8alomsp71grKcFtg1lEl2smq/iyCQSs09lZ9KDoXcmybYZfV411AJ86JGJdxqiGAN9c/jhMw8bzPraSrVVJqqz7xbtoUW9I78g1Dy51EwTWYlpAV5fHygOf/MF1UQXkkcEcm/TxVLvFpYbN8Y0Q8jEy7MkYMHcXI7geXFjzSRMPfQ1B/+agt75trDurgrdbvGSCXQJVsua1ejyaZiPGb6twt46t8GMhXl4baqMWMxTWnps5IZZ4wu5phKVTNS7ufJ8U1lBO8JC4TA2ZhhiDhvqsckklvsiUnv4xDtHtlSfbymcsYnkKNdMYlEKZRKJlhFUnuDdQv4dH9HLBJXyhH7XQhQHbKvUC3CqHEX/U42h13gX7Y0psYDzGqadVoFrJg2tBQRX0rtInmXZOivXGTt2DqltpP4XPXp3NRWjhUhsgZyBCHgyLS/COrnxBgfclLpsm47GaCzHa63uxV+m+M+WqBLFlGaouf0a6YjuEomGaB/fbq5jsrC7SN89ZtrN1UXWi+aZn7B9bAM3VJS+OFFb5wrVgVYXy3mbHw5FP/3MT9xkYizuNx+IgR9tRov7TdtrNUkvR96QQhStb+FfjNeaWI+DLyUmja3aRtMbu7m2y0juz7Jj0BgsRC0TGZn5GAEFty/ArCH6uaga2bUlZ2/8uxO1sSlWyshpeSfT+kzIe+1MZGLZQBHmvojYHpXrMGfik9iptoLPlvUx09ki73b1Ujk1RZlQJpmZsTCIeK1PGjmWveiyxXL4Nd9h5VvhDy0ai/LmDCrWzsG0Z0pQJ+kN/PlQXPlDjxwD2IA17xaj/Cr/21nrZFR0l4yKqtXc841yHgVl2LD2NZS0LkCbYjlbYnmTq1cOtci7dgJG51djp2zfHD0gwlu6fNKQPfX62QBo5yc2I3fIMFSvWh341mDfuRQ54Nd9IH4x5ErkqTMyG9dgzdZyDA6x4cAYOWRleTDsgVBPgMZZlyjSDLNQ7D8rEHjOZN2bm1FaY915pHe2dYMxNGcDipsNw/CrZJ2ndifWSH2L5VBQkDQUp+nzUSRTNh0KjeulLdavxuYdXQJ25oXvvOQcxvMywpDDpcP+awHGXRTh/I8eLFpaL5bJWoVsww2YivF20q8dykKd7J4yH/7Uvipb1udMX4KSU5ZzJmvXSP1aBD88xCITlX51GVY+NBPLd5jSUoK7Zzlw2XAMljMmbWokLv7xGlZ/KiesAs75hLrVYpNJLPdFQ3I3pAG5x4b99EoUtJaNBOrM155+GNZrNVavN8nkoMjnXpFP/iQskC3vtt9/F7ceyn5CXDMJwTDeayZGFtW7i7DkieXYrE59q9PPvYbi1ttHo8tH/tPuoU7Ah5KJdj+q9J55DZt3V8rTjyxW5uah4JrRmCCnr81PSJXFS7Fw8Rrt1LU6od3vxqmyEFwqoxs5RGl9Lbjc5EXPLMQL75drZRw4ZZFsh21gk2bAyX514rgAQ8fKomnXzaFfQW89Ma9OwMsp58E3isCsp/dVRY0to6G2ffqemC2n8MOlGWnXkfZGgeVY92mZnJyWhHNyUTBgNMbdMjjgjI7vyV2dgP+vfBQLL+9bDUx1D7VgrE5cv/gklrxnPmHfDyPHjsNg086meMrEe7ZkOSoKg5/sjV2B1gOMvlsixBsBtJgdP1p/U4Hp5olVJloA6+dNDumHQvPlfIt60WjAGwiC+YTu9mKTiUoj2vuiIZmotCq2LsWTT3nvMV/cjB2M6pctr6CnTBq0Fqe5GkQU/oKGthfaSJpfTQiBhhbgE5IpEyUBRxPgyCSJI5PQkaBvf62LbnHW0dHkmsJRJq5palY0agKUSSPLpPytmZj+fKm8jsRB/xph1OHj1gspE7e2POsdngBlkhSZqAXiOdjcvBD5+T3lwKC85LFiJ7bJIt3G3bKO0Ut2gqh/jMr6lllGrkMJUCYObRgWqxEJUCZJkUkdyt9bjhf+LjuD9uivMTEWiH8qr/O+vItlO2QjRgSzjoIAZRIFJF7iMgKUSVJk4rKoYnVJgARcR4AyoUxcF/SsMAmQQPwJUCaUSfyjiimSAAm4jgBlQpm4LuhZYRIggfgToEwok/hHFVMkARJwHQHKhDJxXdCzwiRAAvEnQJlQJvGPKqZIAiTgOgKUCWXiuqBnhUmABOJPgDKhTOIfVUyRBEjAdQQoE8rEdUHPCpMACcSfAGVCmcQ/qpgiCZCA6whQJpSJ64KeFSYBEog/AcqEMol/VDFFEiAB1xGgTCgT1wU9K0wCJBB/ApQJZRL/qGKKJEACriNAmVAmrgt6VpgESCD+BCgTyiT+UcUUSYAEXEeAMqFMXBf0rDAJkED8CVAmlEn8o4opkgAJuI4AZUKZuC7oWWESIIH4E6BMKJP4RxVTJAEScB0ByoQycV3Qs8IkQALxJ0CZUCbxjyqmSAIk4DoClAll4rqgZ4VJgATiT4AyoUziH1VMkQRIwHUEKBPKxHVBzwqTAAnEnwBlQpnEP6qYIgmQgOsIUCaUieuCnhUmARKIPwHKhDKJf1QxRRIgAdcRoEwoE9cFPStMAiQQfwKUCWUS/6hiiiRAAq4jQJlQJq4LelaYBEgg/gQoE8ok/lHFFEmABFxHgDKhTFwX9KwwCZBA/AlQJpRJ/KOKKZIACbiOAGVCmbgu6FlhEiCB+BOgTCiT+EcVUyQBEnAdAcqEMnFd0LPCJEAC8SdAmVAm8Y8qpkgCJOA6ApQJZeK6oGeFSYAE4k+AMqFM4h9VTJEESMB1BCgTysR1Qc8KkwAJxJ8AZUKZxD+qmCIJkIDrCFAmlInrgp4VJgESiD8ByoQyiX9UMUUSIAHXEaBMKBPXBT0rTAIkEH8ClAllEv+oYookQAKuI0CZUCauC3pWmARIIP4EKBPKJP5RxRRJgARcR4AyoUxcF/SsMAmQQPwJUCaUSfyjiimSAAm4jgBlQpm4LuhZYRIggfgTcLxM3l33zun27drj4l6XRKz9oAcfDPj5+tmzz5jW1q1bcckllyAzM/OM0+AXSYAESMBNBBwvk/c3bTjdJrcNLrjgIsrETZHJupIACaQUAcfLZOvWLadbtWyFHvk9KZOUCi0WlgRIwE0EKBOumbgp3llXEiCBBBGgTCiTBIUWkyUBEnATAcqEMnFTvLOuJEACCSJAmVAmCQotJksCJOAmApQJZeKmeGddSYAEEkSAMqFMEhRaTJYESMBNBCgTysRN8c66kgAJJIiA42XCQ4sJankmSwIkQAJxJOB4mfB1KnFsbSZFAiRAAgki4HiZfLZjx+mc7Gx069YtIgK+mytBEcJkSYAESCAKApQJ10yiCBNeQgIkQAKRCVAmlAnvERIgARKwTYAyoUxsBxETIAESIAHKhDLhXUACJEACtglQJpSJ7SBiAiRAAiRAmVAmvAtIgARIwDYByoQysR1ETIAESIAEKBPKhHcBCZAACdgmQJlQJraDiAmQAAmQAGVCmfAuIAESIAHbBCgTysR2EDEBEiABEqBMKBPeBSRAAiRgmwBlQpnYDiImQAIkQAKUCWXCu4AESIAEbBOgTCgT20HEBEiABEiAMqFMeBeQAAmQgG0ClAllYjuImAAJkAAJUCaUCe8CEiABErBNgDKhTGwHERMgARIgAcqEMuFdQAIkQAK2CVAmlIntIGICJEACJECZUCa8C0iABEjANgHKhDKxHURMgARIgAQoE8qEdwEJkAAJ2CZAmVAmtoOICZAACZAAZUKZ8C4gARIgAdsEKBPKxHYQMQESIAESoEwoE94FJEACJGCbAGVCmdgOIiZAAiRAApQJZcK7gARIgARsE6BMKBPbQcQESIAESIAyoUx4F5AACZCAbQKUCWViO4iYAAmQAAlQJpQJ7wISIAESsE2AMqFMbAcREyABEiAByoQy4V1AAiRAArYJUCaUie0gYgIkQAIkQJlQJrwLSIAESMA2AcqEMrEdREyABEiABCgTyoR3AQmQAAnYJkCZUCa2g4gJkAAJkABlQpnwLiABEiAB2wQoE8rEdhAxARIgARKgTCgT3gUkQAIkYJsAZUKZ2A4iJkACJEAClAllwruABEiABGwToEwoE9tBxARIgARIgDKhTHgXkAAJkIBtApQJZWI7iJgACZAACVAmlAnvAhIgARKwTYAyoUxsBxETIAESIAHKhDLhXUACJEACtglQJpSJ7SBiAiRAAiRAmVAmvAtIgARIwDYByoQysR1ETIAESIAEKBPKhHcBCZAACdgmQJlQJraDiAmQAAmQAGVCmfAuIAESIAHbBCgTysR2EDEBEiABEqBMKBPeBSRAAiRgmwBlQpnYDiImQAIkQAKUCWXCu4AESIAEbBOgTCgT20HEBEiABEiAMqFMeBeQAAmQgG0ClAllYjuImAAJkAAJUCaUCe8CEhITFTQAACAASURBVCABErBNgDKhTGwHERMgARIgAcqEMuFdQAIkQAK2CVAmlIntIGICJEACJECZUCa8C0iABEjANgHKhDKxHURMgARIgAQoE8qEdwEJkAAJ2CZAmVAmtoOICZAACZAAZUKZ8C4gARIgAdsEKBPKxHYQMQESIAESoEwoE94FJEACJGCbAGVCmdgOIiZAAiRAApQJZcK7gARIgARsE6BMKBPbQcQESIAESIAyoUx4F5AACZCAbQKUCWViO4iYAAmQAAlQJpQJ7wISIAESsE2AMqFMbAcREyABEiAByoQy4V1AAiRAArYJUCaUie0gYgIkQAIkQJlQJrwLSIAESMA2AcqEMrEdREyABEiABCgTyoR3AQmQAAnYJkCZUCa2g4gJkAAJkABlQpnwLiABEiAB2wQokxAIt23bhosvvhhZWVm2ATMBEiABEnADgbq6OnzyySfo3bu3reoOevDBgO+vnz07bHpVRyux6YMPcX7PnvB4sqTP9iAzsykyMjLQpEmTgO81+WzHjtM52dno1q1bxALGUoCGavrZZ5+hc+fOaN26dVCBGvouf04CJEACbiNw+vRpHDlyBPv27cMFF1xgq/qx9OWOl8mBAwdQXV2NvLw8ysRWWPDLJEACbiCgZFJWVoYWLVqgY8eOtqqcVjJRJNTopE2bNjjnnHNsgeGXSYAESCDdCezfvx/fffed7VGJ4pR2Mjlx4gS++OIL5OTkoH379ppxrXNw6R4grB8JkAAJhCOgRiNVVVX49ttvUVNTg/POOw/ZsiRh95N2MjGAqCmvw4cP4/jx41Dw+CEBEiABEoD2cN2sWTO0bdvW9tSWmWfayoRBQwIkQAIkkDwClEnyWDMnEiABEkhbApRJ2jYtK0YCJEACySNAmSSPNXMiARIggbQlQJmkbdOyYiRAAiSQPAKUSfJYMycSIAESSFsClEnaNi0rRgIkQALJI0CZJI81cyIBEiCBtCVAmaRt07JiJEACJJA8ApRJ8lgzJxIgARJIWwKUSdo2LStGAiRAAskjQJkkjzVzIgESIIG0JUCZpG3TsmIkQAIkkDwClEnyWDMnEiABEkhbApRJ2jYtK0YCJEACySNAmSSPNXMiARIggbQlQJmkbdOyYiRAAiSQPAKUSfJYMycSIAESSFsClEnaNi0rRgIkQALJI0CZJI81cyIBEiCBtCVAmaRt07JiJEACJJA8ApRJ8lgzJxIgARJIWwKUSdo2LStGAiRAAskjQJkkj7Xrc1q+aRPe/eQTfFlRgZP19a7n4QYAmRkZ6NahA665+GKM7t/fDVV2bR0pE9c2ffIqvu/wYcx+5RUcq62F+j0/7iPQuW1bNPd48OBNN0H9np/0I0CZpF+bOq5G//nUU/j+2DEcPHLEcWVjgZJHoH3r1jireXP89x13JC9T5pQ0ApRJ0lC7MyM1tbV661aOSNzZ/EG1VqOS4X36cMorDeOBMknDRnVSldSo5PP9+51UJJalkQn86JxzODpp5DZIRPaUSSKoMk0fgZ/MncvFdsZDAAG1KP/OAw+QSpoRoEzSrEGdVh1rgDmtfCxP4xBYP3t242TMXBNGgDJJGFomrAhQJoyDUAQok/SLC8ok/drUUTWiTBzVHI4pDGXimKaIW0Eok7ihZEKhCFAmjAuOTNwRA5SJO9q50WpJmTQaekdnzJGJo5vnjApHmZwRNn4pWgKUSbSk3HUdZZJ+7U2ZpF+bOqpGlImjmsMxhaFMHNMUcSsIZRI3lEyIayaMgWgJUCbRkkqd6yiT1GmrlCwpRyYp2WwJLzRlknDESc+AMkk6cndlSJm4q72jrS1lEi2p1LmOMkmdtkrJklImKdlsCS80ZZJwxEnPgDJJOnJ3ZUiZuKu9o60tZRItqdS5jjJJnbZKyZJSJinZbAkvNGWScMRJz4AySTpyd2WYijK5767ZuO7s4HaqOrIfm99/A/M+csIr9UfgL7MLce63xRj051UpF1SUSco1WYMFpkwaRMQL7BBIXZmcxOGKShw1Kp+Ti3NbZ8qfTmLXh3/GxKLKM8Ny+Uj85YoeaPXte/jF0g/OLA3tW5SJDXj8agIIUCYJgMok/QRSVybf4u0H/4w/mhqzx1W34tFBeWhZtQt/fOQlvH0mDX3DXVj/b2ej6su1GP48ZXImCPkdZxKgTJzZLmlTqnSSCZCLmf/vblzTNlg0UTdYvGWy/wMMempt1Nk75UJOczmlJeJXDsokfiyZUggC6SUTwLueEmLUctlI3DegB85tmQNPhoCoP4mqbz/Dkr+uxN8Om6alghjVoLjoIfz6Q/0HbS/G5GuvwnXdzkZLNasmn6rKMrz97iosLjFPrXmnudrZHuE0TthSJo3DPZG5UiaJpMu0U/IfxwonDKAQf7h3BPo1348Vc5/CYl/76usXJ6vw1d6v8fkRoG3XPBS2zUFtRTF+u3gViuW7E36eh05t83BN15ao/XYXNuyrkRRqUPrx21jxhUqsh8hqlMgqU0RUhuJ9VfDk/gAXdc1Fy3oR2Csy7VZqZEqZ8PZyFgHKxFntkXalSZ+RSS6u+fkYTO91Nmq/kPWOgMXzEXh0Qg3een0t3tVGIV4xzLn7FlyZW4XNrz+C327X/zrCNNd1N9+L+/Iz8en65zHlPf+OsU79b8XTP5G1moApLcok7W6WFK8QZZLiDej04qeuTAJ3c3lano1OzWXKad8WzPvvt7E5CvCjfnU/JndD4DRWWJlciUUzBuOiI8W4Rbb6fhOQ/sUyIhqJfpllWPzQC1ih/YwyiaIJeEkSCVAmSYTtxqxSVyaW1qqvwacfrsCUd8pCN6NMX43q1xeXd22Pti1binhk7URf8/jq/x7Ef7zRwMik1y147ec90DZikJjXaq7Ao/cPQY/9dneFNU5Ucs2kcbgnMlfKJJF0mXYarJnkorD/ENw36AJ0ypTF8neewq83BZ4x6dT/FiwaJCLQjqHU4JvDVag6dhCHW/ZAP1n/iEoml9+K1UPz4PGtpYQKnkpse32dviWZMuHt5SwClImz2iPtSpO6IxPLji29s295TKaalshUk29txFiUr8S7rz+PeaYdV95prpzoZHKZyORaWReRBftBsmDf8IcyaZgRr0gmAcokmbRdmFfayETabtQ4kcN5OdqBw4ly4NC7rhH+JPrkO2Zj1DkIlMlwObTYO9ShxSF4+oEr0OPkXrw4fwmWpHmscJor/RqYMkm/NnVUjdJJJmgro4H/HILCHPPZEF0mllPxvh1Y0hoB01zGdNbeDRi6ZJ2prXIx+Y67RD6yLThAVuoStZNsBK4ufwGzPnJU855xYSiTM0bn2C9SJo5tmvQoWFrJRJqk06AJ+MtVXeFR011/VDur8nDf5FtwXYdM1FbtR/EXB6XvV2dD5CzJsZOyGG+Z5mp7HZ6+qy96ZNTgq893YY+nPfDZU5ilDi3mi5hukpc3ytpLbdW3+HTPNzjsaYMLO3eVBX3L4cZ/G4XXhl+Atsd2YbG82sW7wyt1PpRJ6rRVtCWlTKIlxevOiEC6yUSNEowRxOHSVfjFy8VyQrEvZv5yMK48Wz/9XlOJ4m1v48POI4PXTIRiv5/cirsvlQOMHvlDfSU2vPE4ZhnnUDpLWjeY0pJLao99i+Lt7+Hxok/8W4YpkzOKR34pcQQok8SxZcpCIBVlwoZLPAGOTBLPONk5UCbJJu6y/CgTlzV4lNWlTKIElUKXUSYp1FipWFTKJBVbLfFlpkwSzzjZOVAmySbusvwoE5c1eJTVpUyiBJVCl1EmKdRYqVhUyiQVWy3xZaZMEs842TlQJskm7rL8KBOXNXiU1aVMogSVQpdRJinUWKlYVMokFVst8WWmTBLPONk5UCbJJu6y/CgTlzV4lNWlTKIElUKXUSYp1FipWFTKJBVbLfFlpkwSzzjZOVAmySbusvwoE5c1eJTVpUyiBJVCl1EmKdRYqVhUyiQVWy3xZaZMEs842TlQJskm7rL8fjJ3Lk7W17us1qxuJAKZGRl454EHCCnNCFAmadagTqvOfz71FD7fv99pxWJ5GpHAj845B/99xx2NWAJmnQgClEkiqDJNH4HlmzZh9dat2HfY908Tko6LCXRu2xbD+/TB6P79XUwhPatOmaRnuzqqVmp08v2xYzh45IijysXCJJdA+9atcVbz5hyVJBd70nKjTJKG2r0ZqVHJ7FdewbHaWo5QXBoGakTS3OPBgzfdBPV7ftKPAGWSfm3q2BqpKa93P/kEX1ZUcFHesa0U34KpxfZuHTrgmosv5tRWfNE6LjXKxHFNwgKRAAmQQOoRoExSr81YYhIgARJwHAHKxHFNwgKRAAmQQOoRoExSr81YYhIgARJwHAHKxHFNwgKRAAmQQOoRoExSr81YYhIgARJwHAHKxHFNwgKRAAmQQOoRoExSr81YYhIgARJwHAHKxHFNwgKRAAmQQOoRoExSr81YYhIgARJwHAHKxHFNwgKRAAmQQOoRoExSr81YYhIgARJwHAHKxHFNwgKRAAmQQOoRoExSr81YYhIgARJwHAHKxHFNwgKRAAmQQOoRoExSr81YYhIgARJwHAHKxHFNwgKRAAmQQOoRoExSr81YYhIgARJwHAHKxHFNwgKRAAmQQOoRoExSr81YYhIgARJwHAHKxHFNwgKRAAmQQOoRoExSr81YYhIgARJwHAHKxHFNwgKRAAmQQOoRoExSr81YYhIgARJwHAHKxHFNwgKRAAmQQOoRoExSr81YYhIgARJwHAHKxHFNwgKRAAmQQOoRoExSr81YYhIgARJwHAHKxHFNwgKRAAmQQOoRoExSr81YYhIgARJwHIFYZKIKv/adIpyfnw+PJwtZWR5kZjZFRkYGmjRpElC3Jp/t2HE6Jzsb3bp1i1jpWAvgOIIsEAmQAAmQAGLtyykTBg0JkAAJkEAQAcqEQUECJEACJGCbAGViGyETIAESIAESoEwYAyRAAiRAArYJUCa2ETIBEiABEiAByoQxQAIkQAIkYJsAZWIbIRMgARIgARKgTBgDJEACJEACtglQJrYRMgESIAESIAHKhDFAAiRAAiRgmwBlYhshE3AEgX99iEuXVepFycWzv78cvc6oYNvx2KXj8aJ8d8CsIjw+ot0ZpcIvpQCBgx/j7se+wftaUbPxwD2DcEP7FCi3Q4tImTi0YUIX6xDeeGwL5h6MstDtO6HonksQ3+4wchnyzmqGAX3Pxbgru6FdZpTljMdljSaTUDyyMH3KNRjVKUTF6veI6P6FJ2rMP7Mjv1DwrGWSjnLq1bihY0bQxdtfXoPxJd6/HvDjvnh8UHyjJR5Nm7A0KJO4oqVM4ooz0Yk5XyYGAU+rdnjy133Ry5NoJnr6jpIJ0HPAJVh2XQiblG7BiOcPYV8AlkTLBPB06orVUwqCHiziJpOTx7HvyzJs3HwYa47m4o+TgvNKUiREnw1lEj2rKK6kTKKA5JxLUkcmilmvKwvx7LCOycHnEJl45OG/tl6qfFZHvDK9EHkBta/HzpX/wJitcoFc55H/1Wo/T7xMVC7Dftof865oHVCiuMnEzD8hI+IEhBFlEleolElccSY/MXNngIIe+N+buye4EIFC80+N1OHo5yWY+fwBvK86U/VJSnmcNDLJxoD2J/C+Ng0pU12TZKrrB6bmME1xde7SDF3Kj2NLEmWCjJZ4/HcDMSDHXybKhGsm8eowKJN4kWykdCLKJOjJ63Kc/8GHmLrlBA517IqiKc2w9He7tMVm9Rk7ZhjuudCoyG485vuZeXEynEzU9ywjpwCZyDTI9lL87cPD0tmewM5j3nzatWqGa6/sjjsHdIVvRiyo3Fdj8KGP8dCqA1jzvTzRyz+m87MfF2D6ANOoJ9zI5OtijH/yALbr1crreyFe+dkPI7RWrAvw5jpnY2wB8GLJCS39oKku0xTX2ILWct0RvRzekcn5xZvw768e0UcrwQvCh9avx9B/eNP2nN8d/zOuh59ZQI0sbdQ+W2OuPp0v7IFXx3T3fa9BmRyS+HhtD5Z+XYdD8pDgkaHXwPzOmPDTC9GzlVqDMcdJMNaxY/oib61/nS9gdGRp53m/HoRh2pJNPbYsW4vJ/1K/z8Cdtw3B+B/paR+Vh5X1UqZPqrBFj6FWzUXiF3fFtOt6BK7TWWNibnd8u3Q75pbW4UTh+dh09fehF+BrduDh33+JFfpDkefcH6Jo4oVoFSFq+CPw3zNJ9SCIRSZ39s3AM1uOezsrbSqiZfxkUn8C+7Zuxd1/O4IyHerg6/rj4QHGtErkTidPbu5lN3bzdnKWTmb6kGZ4ZW2lL12jzUaNvBrT+zTz/jGUTOoP4o2FW30bFjydOuHVOy9B5+B1aFMY2JPJAzfm4o1XdXkFTHWZp7haY/HPMjB5pWX3mWVxPnBB/AjWPLEJM8u9RR07ZoiIP1xFrMLvhks2fYkntM43Q757pXzXyy2STGqF6RjZIWe0Z8C90rwlHp44EIPbNySTYbjhy3dx0/t12tc7i8xX6TI/+sE/MejN475kR40cJO2ZLX/+Bise/hgPy4MDMkS0D8rOPDV9+FUx7nvGNPK13ryqTLf3x2Bjo0FATLTGnX2r8MQW3RDqQefHVSFkIqPFZRtEZPp1zSX/eyV/02gu1fuMRJWfI5NEkU1SutHLRJ4qjfn8OMokXDWDO+4v8eKTh5B3fTf07dQOHrXT6/tdeGzRbryodXLNMG/61Rh2lvw2QCaWcpszlCfG9cYTY5BMLsPZ6/+JG+VJXpNnhjzpTwm9oymwDjZlIkO7E88X4+HvVKqmqS6TKLRRRZ9D6B9iK/O+Ne9ixAZvx4suXbH+zgLvE/HRf2HmH/Zgjfp9Tjss+11f9AwrxeDR4x877cKYpboYVAd5n3SQYu6wMjlYgrsX7vVOWTZvjccn9cUAGTUcLd6K8a960wkYHUVaM9nxIfpL3lo7yEaAIm0jQL3kvda3k0z9yCeaWhkZPCgjA/WX+d2w6Vfnw1Mr0npIRiQBu+BCRF+bjlj1m0J0Vj8KiAlLHIWRybUHzQINFG+SbumUzYYySdmm8xY8FplAOpHFU/qg71lNUfu99OBnHcATNqe5gvDJv+E8oDAPs0ZYphysF9YcwdHqary/6hPM/Nz7FDj2l/K0rR5BrTJRI4pJMqLAAbzxZDHmfqMnpp5a5+rnSawykVHXEqMzlMsDRjER29yuTAZhYIl/Oso31WWa4hp1ozyBZxeHPhfzfQmmP7wX67QyNsPDv5UpPrFJ7daN6L+ySvtb89N96KqEmopsie2v/hPji72sjem+cDLZ+be1GKM/xQeOME2jBsgIa25/yIA3sOO2LsCb5eD7jmyRnqu2SGejb7sT2HJI0jC+97nseHvOu+PNmBYLHMVkYNTPCnFPn/YykrWOiE3TYlaZSBwtm3gx8jyncPT7k2hVWxo4MpmUh/IXduBZffqsl+zIezbUjrwU7zMSVXzKJFFkk5RuLDLROrFCNY1gfAKnKM5kzcRaTU+rlpj1q34Y1inL8qN6HNrxCZauEyGU1+NoCD6+aZ0AmVgWsrdvwqV/DVxr0A4nBnQczTDs3ONY85U3kzx5Cl0mGxOi26VsXyY3wHQYTpvqugRHjadwY9pGntZDH7KUjnXpekze4S27d+oHeP/59bi7VP1NiIX9IJZh1rVqpL3/aDzdq3QG4fyN/tGBf1ot2l2DpnWdiLu5jmDd05swXWsPvfw5OiPhMf2KajysTYPJBoHZA2VdT2S8Vq3x+NM3x7lH2nNTwEaTMPUNiIkQZ38s06nDzq2TmPHKNrop0STd5CmSDWWSIg0VrpjRyyTUCV/7MtE6oKuzseWvmzC5RJ9nDrFr6NA/12O4dBDerbDSwZ+VhbNzmyGvtgorvvF+L7RMLOUOt9BueQo18wq1JTZ8s8dBJu3N6xvSiU3shn3PSCeuFrCNjjDSVmbzWRQ1zXNzUzw2d7d3Qdg8jRO2EuE3SagRzr/LCMdYN3ug/TeQAUIgf+tGirD5RCsT2Zph2jyg2uN+FHvXS1T9+lbi32XKr1ZfbL/0/+QgZbFkalpzamijQMifN7Rd3DICNlez4Y0aKd5xJKD4lEkCoCYzyYTJxDxHH/CqiTAdVb1Mfzwqi6baWoF0mgE7YIwpDfmBEs30/hig7QQCzNMp8ZNJa9npdVx/2lV5ynTRb2S6SK3HNPiJh0xkbeF9WVx+27u4POD81vh2xxHslN/7Fs4jdnSBC9CLbwLu/qt3zSG6U+qRdtyZRwmB6wjhRiaB01xhAJrr064TVv1aTUuaPrKrbozsqlMM1DTdvOP/0tZLBgyRh5HeB3zrQX0H9cCwkl3apgnzdJ45zjv3kUX8keYdeZb6qjSvlgWemGSSjXsGZOGJ93XRamL7sewii7hbo8FoctMFlEmKt7Y9mZg6eU0Ackp6vFocPYItr3zoH2lEIxP5fq1M3fgWedWuoV/KrqFesmvokCzmPiqLuYq1dOzz7ukvW0Cb4ugXH2Pmc/7dOfGTiVpLORc7zHILcwI8uPnjI5OABXMjE9POpIY6Ov9CfJacXTklW3vVsMS0SSFi3EaSiXzRvLhuSscvE8viuOySeuCXBbj2vFzZxFGP2mMH8fE/9uDoFX1lN5eeQEDHnS2vkxkor5MxT3WaYq1TS9zwXRXeqDGm7GTX3aOy606tm1zYGmP/dUTbrm7esWaWMzKycOfNfTFeroXsIiz7YAumv12l7zozTQPGKJMH7rkcZ7/9T306UQpg2qiQ4t1EUopPmSQFc+IysScTOWDnm4u3lDEnA51r6vXXfkR7zuS4pBfiZsyU6bQH/OdZzDmZd5jFVSbqRY+ykHuTLOQaW1sH/LiPvHuqoTf5xUkmImT/OoG3xgFz/Q11dAEL8Tox8+4uOzKR71qnHVVyAaMeC7vg7CzTj6aRh/la/zqcKdaM2DJtoDCPUL3f966fDDAWuixnP8JVP2BE3BDjUCfgPbJr7k+ya06fsY1tvS1x93kqpEyZpEIrRSijPZlYRxNGRmpLpEwjLJPtvNpfRSsTudQyD+3dEdM2YCeRkYt6X9T97fZirvVFg5FecxHVmonxepITgflGtT04XjIJ3IGl6hxwNqShjk52KZkX4tX3o1/7aWBkohKznMEJkgmOyxTkJty2pc63zhUYhtY1uANY8SdjS7T/SvOmDuu5Et+2X7ncvFtN+7Z527eeXK2sJU1aegjbjTcsWO4LT6tcPCmjC9+ZkIYYh4mzQNFye3C0XSRlEi0ph15nVybqtPGh7Vvx0OpDWCdbIj2ebNz+80KM73XoDE7Aa72UdELy/injcJgSkXpjrSxKb/mbrKl8fBxlJ+W9XfmdZOpEdjm9HuKttXGTiRRH7WB6REZF+nZPtf101dRIBxfjJxOZ9/Ofl7CeDWmoo1Mo5UT8pXIiXvtkyDbcB2QbblRb0qKQiUrT8naA4PUY/w68v8smCXUCHrL1u6eaprqiJ0YVWt4wfFTOhry8G4u/klfryKW98n+IeeMu9B8StTxoBMjRPBUq3w27NnR0L9a8uRtLS0V2+m4O7S0K/UK8qbohxuHiTIn2CZl2M7ag5wj7+4Q9Dy5G7AUpE4dKgsVqLAKxyiRR5QwcmUR+fUqiysB0SSB6ApRJ9Kx4pSsIOEEm8mRvOmmuvZ/qV7KzKJ87i1wRgilaScokRRuOxU4UgcaUSej3XPFFg4lqa6YbTwKUSTxpMq00IOAwmfBFg2kQU+6oAmXijnZmLaMm4BCZyEJ3rx91xP0jL9Zf9R51BXghCTQKAcqkUbAzUxIgARJILwKUSXq1J2tDAiRAAo1CgDJpFOzMlARIgATSiwBlkl7tydqQAAmQQKMQoEwaBTszJQESIIH0IkCZpFd7sjYkQAIk0CgEKJNGwc5MSYAESCC9CFAm6dWerA0JkAAJNAoByqRRsDNTEiABEkgvApRJerUna0MCJEACjUKAMmkU7MyUBEiABNKLAGWSXu3J2pAACZBAoxCgTBoFOzMlARIggfQiQJmkV3uyNiRAAiTQKAQcJ5NGocBMSYAESIAE4kpg/ezZEdNb+04Rzs/Ph8eThawsDzIzmyJD/umFJk2aBHyvyWc7dpzOyc5Gt27dIiZ4/R/+gGMnTsS1EkyMBEiABEig8Qg0l77/rd/+Nrkyeeztt/HGli2NV2vmTAIkQAIkEFcCN/Tti3uuuy65MlG5KaG8s307RyhxbU4mRgIkQALJJaBGJD/p1atBkahSxX2aK7lVZW4kQAIkQAJOIECZOKEVWAYSIAESSHEClEmKNyCLTwIkQAJOIECZOKEVWAYSIAESSHEClEmKNyCLTwIkQAJOIKBk0lPOmWQ3dM5khzpnkpODc8891wnlZhlIgARIgAQcRGDt2jXo2bMncrI9cmgxC02bhjm0SJk4qNVYFBIgARJwGIGoZbJz587THnUCniMThzUhi0MCJEACjU/gH/9Yi/yeMs0lo5KII5PSXbtOVxw4gNq6OpxUv+rrcerkSciLV3D69GmtJsb/vX9o/MqxBCQQbwLfHjwA9VDl8XjinTTTIwFnE9BfsdUE6j/p4KXvz5SprKzMTGRkZSI7Mwv5+T2QLfeHmuLKlL9X7+UKejfX4e++O11bW4uTIpBaeffWqVOncEokclqkoryhRNJEl4qzibB0JHDmBL75Zi/U2qG6YfghAbcSyBBZKKU0lRc5ZopIlDjUyx29i+9Z2p+NlzwGyeT7778/XSsiOaVGJfJ/NTI5LUKpV0LRJWL9kltBs97pS2Dfvq81meRk56RvJVkzEohAwOjn1f8zmmZoQmkqo5IseUuwR1t4F7mIYNTfh3JCk6qqKnHHKdQpgahRiQjFEIkxoxXwRU5zMSDTkED53j3IaZaDZiIUfkjAVQSMN8kbgwclkSYiDPV/kYp3dCIy0f4sI5cQU1yKV5OamhqZ0arXRiXq/0os9eonRsLqIst7610FmpV1BYG9X38pMmkmMmnmltAt8AAAAzlJREFUivqykiRgJmCMEbRljQwZmcgPjS3ATdUaiZr6ErGoKS71K9SnSd3Jk6e1EYn8Uh8llJAL72RPAmlM4Os9ZSKT5mguoxN+SMCNBMyDBv8/fuWViDb1pU9vhRtcNBGJaCMTbfeWSSTewYm+myuUwtxIm3VOWwJ7vvoCzZo358gkbVuYFQtLwNjNpaavTNt1tRGIkog+MxVuestIt4mIxLcKouQRsA1YvyrU3yWrad6Wf0NFfa5r4B9wSVZ5mE96EvhKyUSmuZrLL35IwK0EzIvwioH1z5G4yK5f7/AjlDA2b94M9WvChAlo0aIFqqursWTJEvTr10/7Zf009PMzaaC33npL+9r1118f89cTUZ6YC8EvpASBr77crY1MKJOUaC4WMkkEYlkv98kkVNkokyS1GLNpdAKUSaM3AQuQ4gQiyiTWkUciRgIcmaR4hKVI8SmTFGkoFtOxBCgTxzYNC5ZMApRJMmkzr3Qk0OTNN988HW49Il7TXMaI5dNPP9UYXnTRRb51GPVn4+eqHPIWY6xatQojRozQ1kmMkcmll16Kp59+Gnv37tXSuOqqqzBq1CjtME24T6iRkqrT559/ri3oL126FEaZjPysaanrn332Wd9fW8uejkHhxjpRJm5sddY5ngQSvmZyQF4iqSQwZMgQ36K9EsTu3buDFvbVbprBgweje/fuvjqqa1Xn37VrV00wSh6GJNq1axdRKOFkouRglkKoMqoCqLy3bduGiRMnomPHjlqZNmzYgN69e2sbEvhJHwKUSfq0JWvSOATOSCbG03y4Io8fPz5AHJWVlQGdvrWTN/6sJGIdJVnFY+RpCOCWW24JkI+5TOFksnbt2gBBGOIwl1PJ7qWXXgq6rnGaibkmmgBlkmjCTD/dCZyRTKLdGmyevjKPNurkpZIrVqxAbm6uJo9IC/fhFuCjWeyPNM1lnSKzTumpfK0STPdgcHP9KBM3tz7rHg8CCZWJMXow1jmsBTbWKcJJxxgxqP9bRyyJlIn6Ny3MsosHaKbhbAKUibPbh6VzPoGEyiSSJEJNRylhmEcw0cgk1HeMtO2OTEJJzPlNyhKeCQHK5Eyo8Tsk4Cfw/wF8oxqOf7XVvAAAAABJRU5ErkJggg==;" vertex="1" parent="WIyWlLk6GJQsqaUBKTNV-1">
          <mxGeometry x="280" y="261" width="313" height="646.19" as="geometry" />
        </mxCell>
      </root>
    </mxGraphModel>
  </diagram>
</mxfile>
